solid 
 facet normal -7.621967e-02 -9.970911e-01  0.000000e+00
   outer loop
     vertex  7.906467e-02  4.395614e-02 -5.000000e-02
     vertex  0.000000e+00  5.000000e-02  5.000000e-02
     vertex  0.000000e+00  5.000000e-02 -5.000000e-02
   endloop
 endfacet
 facet normal -7.621967e-02 -9.970911e-01  0.000000e+00
   outer loop
     vertex  7.906467e-02  4.395614e-02 -5.000000e-02
     vertex  7.906467e-02  4.395614e-02  5.000000e-02
     vertex  0.000000e+00  5.000000e-02  5.000000e-02
   endloop
 endfacet
 facet normal -2.054208e-01 -9.786737e-01  0.000000e+00
   outer loop
     vertex  1.567030e-01  2.766008e-02 -5.000000e-02
     vertex  1.567030e-01  2.766008e-02  5.000000e-02
     vertex  7.906467e-02  4.395614e-02  5.000000e-02
   endloop
 endfacet
 facet normal -2.054208e-01 -9.786737e-01  0.000000e+00
   outer loop
     vertex  1.567030e-01  2.766008e-02 -5.000000e-02
     vertex  7.906467e-02  4.395614e-02  5.000000e-02
     vertex  7.906467e-02  4.395614e-02 -5.000000e-02
   endloop
 endfacet
 facet normal -2.880913e-01 -9.576029e-01  0.000000e+00
   outer loop
     vertex  3.002533e-01 -1.552651e-02 -5.000000e-02
     vertex  3.002533e-01 -1.552651e-02  5.000000e-02
     vertex  1.567030e-01  2.766008e-02  5.000000e-02
   endloop
 endfacet
 facet normal -2.880913e-01 -9.576029e-01  0.000000e+00
   outer loop
     vertex  3.002533e-01 -1.552651e-02 -5.000000e-02
     vertex  1.567030e-01  2.766008e-02  5.000000e-02
     vertex  1.567030e-01  2.766008e-02 -5.000000e-02
   endloop
 endfacet
 facet normal -2.432242e-01 -9.699701e-01  0.000000e+00
   outer loop
     vertex  3.986531e-01 -4.020068e-02 -5.000000e-02
     vertex  3.986531e-01 -4.020068e-02  5.000000e-02
     vertex  3.002533e-01 -1.552651e-02  5.000000e-02
   endloop
 endfacet
 facet normal -2.432242e-01 -9.699701e-01  0.000000e+00
   outer loop
     vertex  3.986531e-01 -4.020068e-02 -5.000000e-02
     vertex  3.002533e-01 -1.552651e-02  5.000000e-02
     vertex  3.002533e-01 -1.552651e-02 -5.000000e-02
   endloop
 endfacet
 facet normal -1.148647e-01 -9.933811e-01  0.000000e+00
   outer loop
     vertex  4.799856e-01 -4.960517e-02 -5.000000e-02
     vertex  4.799856e-01 -4.960517e-02  5.000000e-02
     vertex  3.986531e-01 -4.020068e-02  5.000000e-02
   endloop
 endfacet
 facet normal -1.148647e-01 -9.933811e-01  0.000000e+00
   outer loop
     vertex  4.799856e-01 -4.960517e-02 -5.000000e-02
     vertex  3.986531e-01 -4.020068e-02  5.000000e-02
     vertex  3.986531e-01 -4.020068e-02 -5.000000e-02
   endloop
 endfacet
 facet normal  3.873670e-02 -9.992495e-01  0.000000e+00
   outer loop
     vertex  5.598107e-01 -4.651069e-02 -5.000000e-02
     vertex  5.598107e-01 -4.651069e-02  5.000000e-02
     vertex  4.799856e-01 -4.960517e-02  5.000000e-02
   endloop
 endfacet
 facet normal  3.873670e-02 -9.992495e-01  0.000000e+00
   outer loop
     vertex  5.598107e-01 -4.651069e-02 -5.000000e-02
     vertex  4.799856e-01 -4.960517e-02  5.000000e-02
     vertex  4.799856e-01 -4.960517e-02 -5.000000e-02
   endloop
 endfacet
 facet normal  1.807868e-01 -9.835223e-01  0.000000e+00
   outer loop
     vertex  6.416956e-01 -3.145895e-02 -5.000000e-02
     vertex  6.416956e-01 -3.145895e-02  5.000000e-02
     vertex  5.598107e-01 -4.651069e-02  5.000000e-02
   endloop
 endfacet
 facet normal  1.807868e-01 -9.835223e-01  0.000000e+00
   outer loop
     vertex  6.416956e-01 -3.145895e-02 -5.000000e-02
     vertex  5.598107e-01 -4.651069e-02  5.000000e-02
     vertex  5.598107e-01 -4.651069e-02 -5.000000e-02
   endloop
 endfacet
 facet normal  2.827211e-01 -9.592022e-01  0.000000e+00
   outer loop
     vertex  7.756654e-01  8.028137e-03 -5.000000e-02
     vertex  7.756654e-01  8.028137e-03  5.000000e-02
     vertex  6.416956e-01 -3.145895e-02  5.000000e-02
   endloop
 endfacet
 facet normal  2.827211e-01 -9.592022e-01  0.000000e+00
   outer loop
     vertex  7.756654e-01  8.028137e-03 -5.000000e-02
     vertex  6.416956e-01 -3.145895e-02  5.000000e-02
     vertex  6.416956e-01 -3.145895e-02 -5.000000e-02
   endloop
 endfacet
 facet normal  2.636838e-01 -9.646092e-01  0.000000e+00
   outer loop
     vertex  8.782396e-01  3.606762e-02 -5.000000e-02
     vertex  8.782396e-01  3.606762e-02  5.000000e-02
     vertex  7.756654e-01  8.028137e-03  5.000000e-02
   endloop
 endfacet
 facet normal  2.636838e-01 -9.646092e-01  0.000000e+00
   outer loop
     vertex  8.782396e-01  3.606762e-02 -5.000000e-02
     vertex  7.756654e-01  8.028137e-03  5.000000e-02
     vertex  7.756654e-01  8.028137e-03 -5.000000e-02
   endloop
 endfacet
 facet normal  1.674150e-01 -9.858865e-01  0.000000e+00
   outer loop
     vertex  9.387468e-01  4.634245e-02 -5.000000e-02
     vertex  9.387468e-01  4.634245e-02  5.000000e-02
     vertex  8.782396e-01  3.606762e-02  5.000000e-02
   endloop
 endfacet
 facet normal  1.674150e-01 -9.858865e-01  0.000000e+00
   outer loop
     vertex  9.387468e-01  4.634245e-02 -5.000000e-02
     vertex  8.782396e-01  3.606762e-02  5.000000e-02
     vertex  8.782396e-01  3.606762e-02 -5.000000e-02
   endloop
 endfacet
 facet normal  5.960579e-02 -9.982220e-01  0.000000e+00
   outer loop
     vertex  1.000000e+00  5.000000e-02 -5.000000e-02
     vertex  1.000000e+00  5.000000e-02  5.000000e-02
     vertex  9.387468e-01  4.634245e-02  5.000000e-02
   endloop
 endfacet
 facet normal  5.960579e-02 -9.982220e-01  0.000000e+00
   outer loop
     vertex  1.000000e+00  5.000000e-02 -5.000000e-02
     vertex  9.387468e-01  4.634245e-02  5.000000e-02
     vertex  9.387468e-01  4.634245e-02 -5.000000e-02
   endloop
 endfacet
 facet normal  1.000000e+00  0.000000e+00  0.000000e+00
   outer loop
     vertex  1.000000e+00  3.050000e+00 -5.000000e-02
     vertex  1.000000e+00  5.000000e-02  5.000000e-02
     vertex  1.000000e+00  5.000000e-02 -5.000000e-02
   endloop
 endfacet
 facet normal  1.000000e+00  0.000000e+00 -0.000000e+00
   outer loop
     vertex  1.000000e+00  3.050000e+00 -5.000000e-02
     vertex  1.000000e+00  3.050000e+00  5.000000e-02
     vertex  1.000000e+00  5.000000e-02  5.000000e-02
   endloop
 endfacet
 facet normal  0.000000e+00  1.000000e+00  0.000000e+00
   outer loop
     vertex  1.000000e+00  3.050000e+00 -5.000000e-02
     vertex  0.000000e+00  3.050000e+00 -5.000000e-02
     vertex  0.000000e+00  3.050000e+00  5.000000e-02
   endloop
 endfacet
 facet normal  0.000000e+00  1.000000e+00 -0.000000e+00
   outer loop
     vertex  1.000000e+00  3.050000e+00 -5.000000e-02
     vertex  0.000000e+00  3.050000e+00  5.000000e-02
     vertex  1.000000e+00  3.050000e+00  5.000000e-02
   endloop
 endfacet
 facet normal -1.000000e+00  0.000000e+00  0.000000e+00
   outer loop
     vertex  0.000000e+00  3.050000e+00 -5.000000e-02
     vertex  0.000000e+00  5.000000e-02 -5.000000e-02
     vertex  0.000000e+00  5.000000e-02  5.000000e-02
   endloop
 endfacet
 facet normal -1.000000e+00  0.000000e+00  0.000000e+00
   outer loop
     vertex  0.000000e+00  3.050000e+00 -5.000000e-02
     vertex  0.000000e+00  5.000000e-02  5.000000e-02
     vertex  0.000000e+00  3.050000e+00  5.000000e-02
   endloop
 endfacet
 facet normal -0.000000e+00  0.000000e+00 -1.000000e+00
   outer loop
     vertex  5.598107e-01 -4.651069e-02 -5.000000e-02
     vertex  4.799856e-01 -4.960517e-02 -5.000000e-02
     vertex  3.986531e-01 -4.020068e-02 -5.000000e-02
   endloop
 endfacet
 facet normal -0.000000e+00  0.000000e+00 -1.000000e+00
   outer loop
     vertex  6.416956e-01 -3.145895e-02 -5.000000e-02
     vertex  3.986531e-01 -4.020068e-02 -5.000000e-02
     vertex  3.002533e-01 -1.552651e-02 -5.000000e-02
   endloop
 endfacet
 facet normal  0.000000e+00  0.000000e+00 -1.000000e+00
   outer loop
     vertex  6.416956e-01 -3.145895e-02 -5.000000e-02
     vertex  5.598107e-01 -4.651069e-02 -5.000000e-02
     vertex  3.986531e-01 -4.020068e-02 -5.000000e-02
   endloop
 endfacet
 facet normal -0.000000e+00  0.000000e+00 -1.000000e+00
   outer loop
     vertex  7.756654e-01  8.028137e-03 -5.000000e-02
     vertex  3.002533e-01 -1.552651e-02 -5.000000e-02
     vertex  1.567030e-01  2.766008e-02 -5.000000e-02
   endloop
 endfacet
 facet normal  0.000000e+00  0.000000e+00 -1.000000e+00
   outer loop
     vertex  7.756654e-01  8.028137e-03 -5.000000e-02
     vertex  6.416956e-01 -3.145895e-02 -5.000000e-02
     vertex  3.002533e-01 -1.552651e-02 -5.000000e-02
   endloop
 endfacet
 facet normal  0.000000e+00  0.000000e+00 -1.000000e+00
   outer loop
     vertex  8.782396e-01  3.606762e-02 -5.000000e-02
     vertex  7.756654e-01  8.028137e-03 -5.000000e-02
     vertex  1.567030e-01  2.766008e-02 -5.000000e-02
   endloop
 endfacet
 facet normal  0.000000e+00  0.000000e+00 -1.000000e+00
   outer loop
     vertex  0.000000e+00  3.050000e+00 -5.000000e-02
     vertex  7.906467e-02  4.395614e-02 -5.000000e-02
     vertex  0.000000e+00  5.000000e-02 -5.000000e-02
   endloop
 endfacet
 facet normal  0.000000e+00  0.000000e+00 -1.000000e+00
   outer loop
     vertex  0.000000e+00  3.050000e+00 -5.000000e-02
     vertex  1.567030e-01  2.766008e-02 -5.000000e-02
     vertex  7.906467e-02  4.395614e-02 -5.000000e-02
   endloop
 endfacet
 facet normal  0.000000e+00  0.000000e+00 -1.000000e+00
   outer loop
     vertex  0.000000e+00  3.050000e+00 -5.000000e-02
     vertex  8.782396e-01  3.606762e-02 -5.000000e-02
     vertex  1.567030e-01  2.766008e-02 -5.000000e-02
   endloop
 endfacet
 facet normal  0.000000e+00  0.000000e+00 -1.000000e+00
   outer loop
     vertex  1.000000e+00  3.050000e+00 -5.000000e-02
     vertex  9.387468e-01  4.634245e-02 -5.000000e-02
     vertex  8.782396e-01  3.606762e-02 -5.000000e-02
   endloop
 endfacet
 facet normal  0.000000e+00 -0.000000e+00 -1.000000e+00
   outer loop
     vertex  1.000000e+00  3.050000e+00 -5.000000e-02
     vertex  1.000000e+00  5.000000e-02 -5.000000e-02
     vertex  9.387468e-01  4.634245e-02 -5.000000e-02
   endloop
 endfacet
 facet normal -0.000000e+00  0.000000e+00 -1.000000e+00
   outer loop
     vertex  1.000000e+00  3.050000e+00 -5.000000e-02
     vertex  8.782396e-01  3.606762e-02 -5.000000e-02
     vertex  0.000000e+00  3.050000e+00 -5.000000e-02
   endloop
 endfacet
 facet normal  0.000000e+00  0.000000e+00  1.000000e+00
   outer loop
     vertex  5.598107e-01 -4.651069e-02  5.000000e-02
     vertex  3.986531e-01 -4.020068e-02  5.000000e-02
     vertex  4.799856e-01 -4.960517e-02  5.000000e-02
   endloop
 endfacet
 facet normal  0.000000e+00  0.000000e+00  1.000000e+00
   outer loop
     vertex  6.416956e-01 -3.145895e-02  5.000000e-02
     vertex  3.002533e-01 -1.552651e-02  5.000000e-02
     vertex  3.986531e-01 -4.020068e-02  5.000000e-02
   endloop
 endfacet
 facet normal  0.000000e+00  0.000000e+00  1.000000e+00
   outer loop
     vertex  6.416956e-01 -3.145895e-02  5.000000e-02
     vertex  3.986531e-01 -4.020068e-02  5.000000e-02
     vertex  5.598107e-01 -4.651069e-02  5.000000e-02
   endloop
 endfacet
 facet normal  0.000000e+00  0.000000e+00  1.000000e+00
   outer loop
     vertex  7.756654e-01  8.028137e-03  5.000000e-02
     vertex  1.567030e-01  2.766008e-02  5.000000e-02
     vertex  3.002533e-01 -1.552651e-02  5.000000e-02
   endloop
 endfacet
 facet normal  0.000000e+00  0.000000e+00  1.000000e+00
   outer loop
     vertex  7.756654e-01  8.028137e-03  5.000000e-02
     vertex  3.002533e-01 -1.552651e-02  5.000000e-02
     vertex  6.416956e-01 -3.145895e-02  5.000000e-02
   endloop
 endfacet
 facet normal  0.000000e+00  0.000000e+00  1.000000e+00
   outer loop
     vertex  8.782396e-01  3.606762e-02  5.000000e-02
     vertex  1.567030e-01  2.766008e-02  5.000000e-02
     vertex  7.756654e-01  8.028137e-03  5.000000e-02
   endloop
 endfacet
 facet normal  0.000000e+00  0.000000e+00  1.000000e+00
   outer loop
     vertex  0.000000e+00  3.050000e+00  5.000000e-02
     vertex  0.000000e+00  5.000000e-02  5.000000e-02
     vertex  7.906467e-02  4.395614e-02  5.000000e-02
   endloop
 endfacet
 facet normal  0.000000e+00  0.000000e+00  1.000000e+00
   outer loop
     vertex  0.000000e+00  3.050000e+00  5.000000e-02
     vertex  7.906467e-02  4.395614e-02  5.000000e-02
     vertex  1.567030e-01  2.766008e-02  5.000000e-02
   endloop
 endfacet
 facet normal  0.000000e+00  0.000000e+00  1.000000e+00
   outer loop
     vertex  0.000000e+00  3.050000e+00  5.000000e-02
     vertex  1.567030e-01  2.766008e-02  5.000000e-02
     vertex  8.782396e-01  3.606762e-02  5.000000e-02
   endloop
 endfacet
 facet normal  0.000000e+00  0.000000e+00  1.000000e+00
   outer loop
     vertex  1.000000e+00  3.050000e+00  5.000000e-02
     vertex  8.782396e-01  3.606762e-02  5.000000e-02
     vertex  9.387468e-01  4.634245e-02  5.000000e-02
   endloop
 endfacet
 facet normal  0.000000e+00  0.000000e+00  1.000000e+00
   outer loop
     vertex  1.000000e+00  3.050000e+00  5.000000e-02
     vertex  9.387468e-01  4.634245e-02  5.000000e-02
     vertex  1.000000e+00  5.000000e-02  5.000000e-02
   endloop
 endfacet
 facet normal  0.000000e+00  0.000000e+00  1.000000e+00
   outer loop
     vertex  1.000000e+00  3.050000e+00  5.000000e-02
     vertex  0.000000e+00  3.050000e+00  5.000000e-02
     vertex  8.782396e-01  3.606762e-02  5.000000e-02
   endloop
 endfacet
endsolid
