solid 
 facet normal -2.470263e-02 -9.996948e-01  0.000000e+00
   outer loop
     vertex  2.508855e-02 -6.199423e-04 -5.000000e-02
     vertex  0.000000e+00  0.000000e+00  5.000000e-02
     vertex  0.000000e+00  0.000000e+00 -5.000000e-02
   endloop
 endfacet
 facet normal -2.470263e-02 -9.996948e-01  0.000000e+00
   outer loop
     vertex  2.508855e-02 -6.199423e-04 -5.000000e-02
     vertex  2.508855e-02 -6.199423e-04  5.000000e-02
     vertex  0.000000e+00  0.000000e+00  5.000000e-02
   endloop
 endfacet
 facet normal -7.326356e-02 -9.973126e-01  0.000000e+00
   outer loop
     vertex  5.011746e-02 -2.458590e-03 -5.000000e-02
     vertex  5.011746e-02 -2.458590e-03  5.000000e-02
     vertex  2.508855e-02 -6.199423e-04  5.000000e-02
   endloop
 endfacet
 facet normal -7.326356e-02 -9.973126e-01  0.000000e+00
   outer loop
     vertex  5.011746e-02 -2.458590e-03 -5.000000e-02
     vertex  2.508855e-02 -6.199423e-04  5.000000e-02
     vertex  2.508855e-02 -6.199423e-04 -5.000000e-02
   endloop
 endfacet
 facet normal -1.201514e-01 -9.927556e-01  0.000000e+00
   outer loop
     vertex  7.591097e-02 -5.580332e-03 -5.000000e-02
     vertex  7.591097e-02 -5.580332e-03  5.000000e-02
     vertex  5.011746e-02 -2.458590e-03  5.000000e-02
   endloop
 endfacet
 facet normal -1.201514e-01 -9.927556e-01  0.000000e+00
   outer loop
     vertex  7.591097e-02 -5.580332e-03 -5.000000e-02
     vertex  5.011746e-02 -2.458590e-03  5.000000e-02
     vertex  5.011746e-02 -2.458590e-03 -5.000000e-02
   endloop
 endfacet
 facet normal -1.646618e-01 -9.863501e-01  0.000000e+00
   outer loop
     vertex  1.026537e-01 -1.004477e-02 -5.000000e-02
     vertex  1.026537e-01 -1.004477e-02  5.000000e-02
     vertex  7.591097e-02 -5.580332e-03  5.000000e-02
   endloop
 endfacet
 facet normal -1.646618e-01 -9.863501e-01  0.000000e+00
   outer loop
     vertex  1.026537e-01 -1.004477e-02 -5.000000e-02
     vertex  7.591097e-02 -5.580332e-03  5.000000e-02
     vertex  7.591097e-02 -5.580332e-03 -5.000000e-02
   endloop
 endfacet
 facet normal -2.056328e-01 -9.786292e-01  0.000000e+00
   outer loop
     vertex  1.309339e-01 -1.598711e-02 -5.000000e-02
     vertex  1.309339e-01 -1.598711e-02  5.000000e-02
     vertex  1.026537e-01 -1.004477e-02  5.000000e-02
   endloop
 endfacet
 facet normal -2.056328e-01 -9.786292e-01  0.000000e+00
   outer loop
     vertex  1.309339e-01 -1.598711e-02 -5.000000e-02
     vertex  1.026537e-01 -1.004477e-02  5.000000e-02
     vertex  1.026537e-01 -1.004477e-02 -5.000000e-02
   endloop
 endfacet
 facet normal -2.420169e-01 -9.702720e-01  0.000000e+00
   outer loop
     vertex  1.617027e-01 -2.366183e-02 -5.000000e-02
     vertex  1.617027e-01 -2.366183e-02  5.000000e-02
     vertex  1.309339e-01 -1.598711e-02  5.000000e-02
   endloop
 endfacet
 facet normal -2.420169e-01 -9.702720e-01  0.000000e+00
   outer loop
     vertex  1.617027e-01 -2.366183e-02 -5.000000e-02
     vertex  1.309339e-01 -1.598711e-02  5.000000e-02
     vertex  1.309339e-01 -1.598711e-02 -5.000000e-02
   endloop
 endfacet
 facet normal -2.723633e-01 -9.621945e-01  0.000000e+00
   outer loop
     vertex  1.968297e-01 -3.360506e-02 -5.000000e-02
     vertex  1.617027e-01 -2.366183e-02  5.000000e-02
     vertex  1.617027e-01 -2.366183e-02 -5.000000e-02
   endloop
 endfacet
 facet normal -2.723633e-01 -9.621945e-01  0.000000e+00
   outer loop
     vertex  1.968297e-01 -3.360506e-02 -5.000000e-02
     vertex  1.968297e-01 -3.360506e-02  5.000000e-02
     vertex  1.617027e-01 -2.366183e-02  5.000000e-02
   endloop
 endfacet
 facet normal -2.937278e-01 -9.558891e-01  0.000000e+00
   outer loop
     vertex  2.415810e-01 -4.735634e-02 -5.000000e-02
     vertex  1.968297e-01 -3.360506e-02  5.000000e-02
     vertex  1.968297e-01 -3.360506e-02 -5.000000e-02
   endloop
 endfacet
 facet normal -2.937278e-01 -9.558891e-01  0.000000e+00
   outer loop
     vertex  2.415810e-01 -4.735634e-02 -5.000000e-02
     vertex  2.415810e-01 -4.735634e-02  5.000000e-02
     vertex  1.968297e-01 -3.360506e-02  5.000000e-02
   endloop
 endfacet
 facet normal -2.962433e-01 -9.551125e-01  0.000000e+00
   outer loop
     vertex  2.976532e-01 -6.474800e-02 -5.000000e-02
     vertex  2.415810e-01 -4.735634e-02  5.000000e-02
     vertex  2.415810e-01 -4.735634e-02 -5.000000e-02
   endloop
 endfacet
 facet normal -2.962433e-01 -9.551125e-01  0.000000e+00
   outer loop
     vertex  2.976532e-01 -6.474800e-02 -5.000000e-02
     vertex  2.976532e-01 -6.474800e-02  5.000000e-02
     vertex  2.415810e-01 -4.735634e-02  5.000000e-02
   endloop
 endfacet
 facet normal -2.750756e-01 -9.614226e-01  0.000000e+00
   outer loop
     vertex  3.361457e-01 -7.576121e-02 -5.000000e-02
     vertex  2.976532e-01 -6.474800e-02  5.000000e-02
     vertex  2.976532e-01 -6.474800e-02 -5.000000e-02
   endloop
 endfacet
 facet normal -2.750756e-01 -9.614226e-01  0.000000e+00
   outer loop
     vertex  3.361457e-01 -7.576121e-02 -5.000000e-02
     vertex  3.361457e-01 -7.576121e-02  5.000000e-02
     vertex  2.976532e-01 -6.474800e-02  5.000000e-02
   endloop
 endfacet
 facet normal -2.435122e-01 -9.698978e-01  0.000000e+00
   outer loop
     vertex  3.683954e-01 -8.385815e-02 -5.000000e-02
     vertex  3.683954e-01 -8.385815e-02  5.000000e-02
     vertex  3.361457e-01 -7.576121e-02  5.000000e-02
   endloop
 endfacet
 facet normal -2.435122e-01 -9.698978e-01  0.000000e+00
   outer loop
     vertex  3.683954e-01 -8.385815e-02 -5.000000e-02
     vertex  3.361457e-01 -7.576121e-02  5.000000e-02
     vertex  3.361457e-01 -7.576121e-02 -5.000000e-02
   endloop
 endfacet
 facet normal -2.067501e-01 -9.783938e-01  0.000000e+00
   outer loop
     vertex  3.963917e-01 -8.977420e-02 -5.000000e-02
     vertex  3.963917e-01 -8.977420e-02  5.000000e-02
     vertex  3.683954e-01 -8.385815e-02  5.000000e-02
   endloop
 endfacet
 facet normal -2.067501e-01 -9.783938e-01  0.000000e+00
   outer loop
     vertex  3.963917e-01 -8.977420e-02 -5.000000e-02
     vertex  3.683954e-01 -8.385815e-02  5.000000e-02
     vertex  3.683954e-01 -8.385815e-02 -5.000000e-02
   endloop
 endfacet
 facet normal -1.670228e-01 -9.859530e-01  0.000000e+00
   outer loop
     vertex  4.221039e-01 -9.412992e-02 -5.000000e-02
     vertex  4.221039e-01 -9.412992e-02  5.000000e-02
     vertex  3.963917e-01 -8.977420e-02  5.000000e-02
   endloop
 endfacet
 facet normal -1.670228e-01 -9.859530e-01  0.000000e+00
   outer loop
     vertex  4.221039e-01 -9.412992e-02 -5.000000e-02
     vertex  3.963917e-01 -8.977420e-02  5.000000e-02
     vertex  3.963917e-01 -8.977420e-02 -5.000000e-02
   endloop
 endfacet
 facet normal -1.250019e-01 -9.921565e-01  0.000000e+00
   outer loop
     vertex  4.464097e-01 -9.719220e-02 -5.000000e-02
     vertex  4.464097e-01 -9.719220e-02  5.000000e-02
     vertex  4.221039e-01 -9.412992e-02  5.000000e-02
   endloop
 endfacet
 facet normal -1.250019e-01 -9.921565e-01  0.000000e+00
   outer loop
     vertex  4.464097e-01 -9.719220e-02 -5.000000e-02
     vertex  4.221039e-01 -9.412992e-02  5.000000e-02
     vertex  4.221039e-01 -9.412992e-02 -5.000000e-02
   endloop
 endfacet
 facet normal -8.137226e-02 -9.966838e-01  0.000000e+00
   outer loop
     vertex  4.698308e-01 -9.910437e-02 -5.000000e-02
     vertex  4.698308e-01 -9.910437e-02  5.000000e-02
     vertex  4.464097e-01 -9.719220e-02  5.000000e-02
   endloop
 endfacet
 facet normal -8.137226e-02 -9.966838e-01  0.000000e+00
   outer loop
     vertex  4.698308e-01 -9.910437e-02 -5.000000e-02
     vertex  4.464097e-01 -9.719220e-02  5.000000e-02
     vertex  4.464097e-01 -9.719220e-02 -5.000000e-02
   endloop
 endfacet
 facet normal -3.681731e-02 -9.993220e-01  0.000000e+00
   outer loop
     vertex  4.927216e-01 -9.994772e-02 -5.000000e-02
     vertex  4.927216e-01 -9.994772e-02  5.000000e-02
     vertex  4.698308e-01 -9.910437e-02  5.000000e-02
   endloop
 endfacet
 facet normal -3.681731e-02 -9.993220e-01  0.000000e+00
   outer loop
     vertex  4.927216e-01 -9.994772e-02 -5.000000e-02
     vertex  4.698308e-01 -9.910437e-02  5.000000e-02
     vertex  4.698308e-01 -9.910437e-02 -5.000000e-02
   endloop
 endfacet
 facet normal  1.046884e-02 -9.999452e-01  0.000000e+00
   outer loop
     vertex  5.178992e-01 -9.968413e-02 -5.000000e-02
     vertex  5.178992e-01 -9.968413e-02  5.000000e-02
     vertex  4.927216e-01 -9.994772e-02  5.000000e-02
   endloop
 endfacet
 facet normal  1.046884e-02 -9.999452e-01  0.000000e+00
   outer loop
     vertex  5.178992e-01 -9.968413e-02 -5.000000e-02
     vertex  4.927216e-01 -9.994772e-02  5.000000e-02
     vertex  4.927216e-01 -9.994772e-02 -5.000000e-02
   endloop
 endfacet
 facet normal  5.968482e-02 -9.982173e-01  0.000000e+00
   outer loop
     vertex  5.431186e-01 -9.817623e-02 -5.000000e-02
     vertex  5.431186e-01 -9.817623e-02  5.000000e-02
     vertex  5.178992e-01 -9.968413e-02  5.000000e-02
   endloop
 endfacet
 facet normal  5.968482e-02 -9.982173e-01  0.000000e+00
   outer loop
     vertex  5.431186e-01 -9.817623e-02 -5.000000e-02
     vertex  5.178992e-01 -9.968413e-02  5.000000e-02
     vertex  5.178992e-01 -9.968413e-02 -5.000000e-02
   endloop
 endfacet
 facet normal  1.073999e-01 -9.942159e-01  0.000000e+00
   outer loop
     vertex  5.687397e-01 -9.540851e-02 -5.000000e-02
     vertex  5.687397e-01 -9.540851e-02  5.000000e-02
     vertex  5.431186e-01 -9.817623e-02  5.000000e-02
   endloop
 endfacet
 facet normal  1.073999e-01 -9.942159e-01  0.000000e+00
   outer loop
     vertex  5.687397e-01 -9.540851e-02 -5.000000e-02
     vertex  5.431186e-01 -9.817623e-02  5.000000e-02
     vertex  5.431186e-01 -9.817623e-02 -5.000000e-02
   endloop
 endfacet
 facet normal  1.527259e-01 -9.882686e-01  0.000000e+00
   outer loop
     vertex  5.951690e-01 -9.132416e-02 -5.000000e-02
     vertex  5.951690e-01 -9.132416e-02  5.000000e-02
     vertex  5.687397e-01 -9.540851e-02  5.000000e-02
   endloop
 endfacet
 facet normal  1.527259e-01 -9.882686e-01  0.000000e+00
   outer loop
     vertex  5.951690e-01 -9.132416e-02 -5.000000e-02
     vertex  5.687397e-01 -9.540851e-02  5.000000e-02
     vertex  5.687397e-01 -9.540851e-02 -5.000000e-02
   endloop
 endfacet
 facet normal  1.947658e-01 -9.808498e-01  0.000000e+00
   outer loop
     vertex  6.229527e-01 -8.580719e-02 -5.000000e-02
     vertex  6.229527e-01 -8.580719e-02  5.000000e-02
     vertex  5.951690e-01 -9.132416e-02  5.000000e-02
   endloop
 endfacet
 facet normal  1.947658e-01 -9.808498e-01  0.000000e+00
   outer loop
     vertex  6.229527e-01 -8.580719e-02 -5.000000e-02
     vertex  5.951690e-01 -9.132416e-02  5.000000e-02
     vertex  5.951690e-01 -9.132416e-02 -5.000000e-02
   endloop
 endfacet
 facet normal  2.325328e-01 -9.725886e-01  0.000000e+00
   outer loop
     vertex  6.529085e-01 -7.864516e-02 -5.000000e-02
     vertex  6.229527e-01 -8.580719e-02  5.000000e-02
     vertex  6.229527e-01 -8.580719e-02 -5.000000e-02
   endloop
 endfacet
 facet normal  2.325328e-01 -9.725886e-01  0.000000e+00
   outer loop
     vertex  6.529085e-01 -7.864516e-02 -5.000000e-02
     vertex  6.529085e-01 -7.864516e-02  5.000000e-02
     vertex  6.229527e-01 -8.580719e-02  5.000000e-02
   endloop
 endfacet
 facet normal  2.647346e-01 -9.643213e-01  0.000000e+00
   outer loop
     vertex  6.865482e-01 -6.941009e-02 -5.000000e-02
     vertex  6.865482e-01 -6.941009e-02  5.000000e-02
     vertex  6.529085e-01 -7.864516e-02  5.000000e-02
   endloop
 endfacet
 facet normal  2.647346e-01 -9.643213e-01  0.000000e+00
   outer loop
     vertex  6.865482e-01 -6.941009e-02 -5.000000e-02
     vertex  6.529085e-01 -7.864516e-02  5.000000e-02
     vertex  6.529085e-01 -7.864516e-02 -5.000000e-02
   endloop
 endfacet
 facet normal  2.890747e-01 -9.573065e-01  0.000000e+00
   outer loop
     vertex  7.276169e-01 -5.700870e-02 -5.000000e-02
     vertex  7.276169e-01 -5.700870e-02  5.000000e-02
     vertex  6.865482e-01 -6.941009e-02  5.000000e-02
   endloop
 endfacet
 facet normal  2.890747e-01 -9.573065e-01  0.000000e+00
   outer loop
     vertex  7.276169e-01 -5.700870e-02 -5.000000e-02
     vertex  6.865482e-01 -6.941009e-02  5.000000e-02
     vertex  6.865482e-01 -6.941009e-02 -5.000000e-02
   endloop
 endfacet
 facet normal  2.987734e-01 -9.543241e-01  0.000000e+00
   outer loop
     vertex  7.734444e-01 -4.266134e-02 -5.000000e-02
     vertex  7.734444e-01 -4.266134e-02  5.000000e-02
     vertex  7.276169e-01 -5.700870e-02  5.000000e-02
   endloop
 endfacet
 facet normal  2.987734e-01 -9.543241e-01  0.000000e+00
   outer loop
     vertex  7.734444e-01 -4.266134e-02 -5.000000e-02
     vertex  7.276169e-01 -5.700870e-02  5.000000e-02
     vertex  7.276169e-01 -5.700870e-02 -5.000000e-02
   endloop
 endfacet
 facet normal  2.875032e-01 -9.577797e-01  0.000000e+00
   outer loop
     vertex  8.183854e-01 -2.917109e-02 -5.000000e-02
     vertex  8.183854e-01 -2.917109e-02  5.000000e-02
     vertex  7.734444e-01 -4.266134e-02  5.000000e-02
   endloop
 endfacet
 facet normal  2.875032e-01 -9.577797e-01  0.000000e+00
   outer loop
     vertex  8.183854e-01 -2.917109e-02 -5.000000e-02
     vertex  7.734444e-01 -4.266134e-02  5.000000e-02
     vertex  7.734444e-01 -4.266134e-02 -5.000000e-02
   endloop
 endfacet
 facet normal  2.610216e-01 -9.653330e-01  0.000000e+00
   outer loop
     vertex  8.507153e-01 -2.042924e-02 -5.000000e-02
     vertex  8.507153e-01 -2.042924e-02  5.000000e-02
     vertex  8.183854e-01 -2.917109e-02  5.000000e-02
   endloop
 endfacet
 facet normal  2.610216e-01 -9.653330e-01  0.000000e+00
   outer loop
     vertex  8.507153e-01 -2.042924e-02 -5.000000e-02
     vertex  8.183854e-01 -2.917109e-02  5.000000e-02
     vertex  8.183854e-01 -2.917109e-02 -5.000000e-02
   endloop
 endfacet
 facet normal  2.281637e-01 -9.736228e-01  0.000000e+00
   outer loop
     vertex  8.807534e-01 -1.338996e-02 -5.000000e-02
     vertex  8.807534e-01 -1.338996e-02  5.000000e-02
     vertex  8.507153e-01 -2.042924e-02  5.000000e-02
   endloop
 endfacet
 facet normal  2.281637e-01 -9.736228e-01  0.000000e+00
   outer loop
     vertex  8.807534e-01 -1.338996e-02 -5.000000e-02
     vertex  8.507153e-01 -2.042924e-02  5.000000e-02
     vertex  8.507153e-01 -2.042924e-02 -5.000000e-02
   endloop
 endfacet
 facet normal  1.900569e-01 -9.817731e-01  0.000000e+00
   outer loop
     vertex  9.076212e-01 -8.188734e-03 -5.000000e-02
     vertex  9.076212e-01 -8.188734e-03  5.000000e-02
     vertex  8.807534e-01 -1.338996e-02  5.000000e-02
   endloop
 endfacet
 facet normal  1.900569e-01 -9.817731e-01  0.000000e+00
   outer loop
     vertex  9.076212e-01 -8.188734e-03 -5.000000e-02
     vertex  8.807534e-01 -1.338996e-02  5.000000e-02
     vertex  8.807534e-01 -1.338996e-02 -5.000000e-02
   endloop
 endfacet
 facet normal  1.492650e-01 -9.887972e-01  0.000000e+00
   outer loop
     vertex  9.326511e-01 -4.410330e-03 -5.000000e-02
     vertex  9.326511e-01 -4.410330e-03  5.000000e-02
     vertex  9.076212e-01 -8.188734e-03  5.000000e-02
   endloop
 endfacet
 facet normal  1.064721e-01 -9.943157e-01  0.000000e+00
   outer loop
     vertex  9.326511e-01 -4.410330e-03 -5.000000e-02
     vertex  9.565262e-01 -1.853757e-03  5.000000e-02
     vertex  9.326511e-01 -4.410330e-03  5.000000e-02
   endloop
 endfacet
 facet normal  1.492650e-01 -9.887972e-01  0.000000e+00
   outer loop
     vertex  9.326511e-01 -4.410330e-03 -5.000000e-02
     vertex  9.076212e-01 -8.188734e-03  5.000000e-02
     vertex  9.076212e-01 -8.188734e-03 -5.000000e-02
   endloop
 endfacet
 facet normal  1.064721e-01 -9.943157e-01  0.000000e+00
   outer loop
     vertex  9.565262e-01 -1.853757e-03 -5.000000e-02
     vertex  9.565262e-01 -1.853757e-03  5.000000e-02
     vertex  9.326511e-01 -4.410330e-03 -5.000000e-02
   endloop
 endfacet
 facet normal  6.375065e-02 -9.979659e-01  0.000000e+00
   outer loop
     vertex  9.782435e-01 -4.664440e-04 -5.000000e-02
     vertex  9.565262e-01 -1.853757e-03  5.000000e-02
     vertex  9.565262e-01 -1.853757e-03 -5.000000e-02
   endloop
 endfacet
 facet normal  6.375065e-02 -9.979659e-01  0.000000e+00
   outer loop
     vertex  9.782435e-01 -4.664440e-04 -5.000000e-02
     vertex  9.782435e-01 -4.664440e-04  5.000000e-02
     vertex  9.565262e-01 -1.853757e-03  5.000000e-02
   endloop
 endfacet
 facet normal  2.143438e-02 -9.997703e-01  0.000000e+00
   outer loop
     vertex  1.000000e+00  0.000000e+00 -5.000000e-02
     vertex  9.782435e-01 -4.664440e-04  5.000000e-02
     vertex  9.782435e-01 -4.664440e-04 -5.000000e-02
   endloop
 endfacet
 facet normal  2.143438e-02 -9.997703e-01  0.000000e+00
   outer loop
     vertex  1.000000e+00  0.000000e+00 -5.000000e-02
     vertex  1.000000e+00  0.000000e+00  5.000000e-02
     vertex  9.782435e-01 -4.664440e-04  5.000000e-02
   endloop
 endfacet
 facet normal  1.000000e+00  0.000000e+00  0.000000e+00
   outer loop
     vertex  1.000000e+00  3.000000e+00 -5.000000e-02
     vertex  1.000000e+00  0.000000e+00  5.000000e-02
     vertex  1.000000e+00  0.000000e+00 -5.000000e-02
   endloop
 endfacet
 facet normal  1.000000e+00  0.000000e+00 -0.000000e+00
   outer loop
     vertex  1.000000e+00  3.000000e+00 -5.000000e-02
     vertex  1.000000e+00  3.000000e+00  5.000000e-02
     vertex  1.000000e+00  0.000000e+00  5.000000e-02
   endloop
 endfacet
 facet normal  0.000000e+00  1.000000e+00  0.000000e+00
   outer loop
     vertex  1.000000e+00  3.000000e+00 -5.000000e-02
     vertex  0.000000e+00  3.000000e+00 -5.000000e-02
     vertex  0.000000e+00  3.000000e+00  5.000000e-02
   endloop
 endfacet
 facet normal  0.000000e+00  1.000000e+00 -0.000000e+00
   outer loop
     vertex  1.000000e+00  3.000000e+00 -5.000000e-02
     vertex  0.000000e+00  3.000000e+00  5.000000e-02
     vertex  1.000000e+00  3.000000e+00  5.000000e-02
   endloop
 endfacet
 facet normal -1.000000e+00  0.000000e+00  0.000000e+00
   outer loop
     vertex  0.000000e+00  3.000000e+00 -5.000000e-02
     vertex  0.000000e+00  0.000000e+00 -5.000000e-02
     vertex  0.000000e+00  0.000000e+00  5.000000e-02
   endloop
 endfacet
 facet normal -1.000000e+00  0.000000e+00  0.000000e+00
   outer loop
     vertex  0.000000e+00  3.000000e+00 -5.000000e-02
     vertex  0.000000e+00  0.000000e+00  5.000000e-02
     vertex  0.000000e+00  3.000000e+00  5.000000e-02
   endloop
 endfacet
 facet normal -0.000000e+00  0.000000e+00 -1.000000e+00
   outer loop
     vertex  5.178992e-01 -9.968413e-02 -5.000000e-02
     vertex  4.927216e-01 -9.994772e-02 -5.000000e-02
     vertex  4.698308e-01 -9.910437e-02 -5.000000e-02
   endloop
 endfacet
 facet normal -0.000000e+00  0.000000e+00 -1.000000e+00
   outer loop
     vertex  5.431186e-01 -9.817623e-02 -5.000000e-02
     vertex  4.698308e-01 -9.910437e-02 -5.000000e-02
     vertex  4.464097e-01 -9.719220e-02 -5.000000e-02
   endloop
 endfacet
 facet normal  0.000000e+00  0.000000e+00 -1.000000e+00
   outer loop
     vertex  5.431186e-01 -9.817623e-02 -5.000000e-02
     vertex  5.178992e-01 -9.968413e-02 -5.000000e-02
     vertex  4.698308e-01 -9.910437e-02 -5.000000e-02
   endloop
 endfacet
 facet normal -0.000000e+00  0.000000e+00 -1.000000e+00
   outer loop
     vertex  5.687397e-01 -9.540851e-02 -5.000000e-02
     vertex  4.464097e-01 -9.719220e-02 -5.000000e-02
     vertex  4.221039e-01 -9.412992e-02 -5.000000e-02
   endloop
 endfacet
 facet normal  0.000000e+00  0.000000e+00 -1.000000e+00
   outer loop
     vertex  5.687397e-01 -9.540851e-02 -5.000000e-02
     vertex  5.431186e-01 -9.817623e-02 -5.000000e-02
     vertex  4.464097e-01 -9.719220e-02 -5.000000e-02
   endloop
 endfacet
 facet normal -0.000000e+00  0.000000e+00 -1.000000e+00
   outer loop
     vertex  5.951690e-01 -9.132416e-02 -5.000000e-02
     vertex  4.221039e-01 -9.412992e-02 -5.000000e-02
     vertex  3.963917e-01 -8.977420e-02 -5.000000e-02
   endloop
 endfacet
 facet normal  0.000000e+00  0.000000e+00 -1.000000e+00
   outer loop
     vertex  5.951690e-01 -9.132416e-02 -5.000000e-02
     vertex  5.687397e-01 -9.540851e-02 -5.000000e-02
     vertex  4.221039e-01 -9.412992e-02 -5.000000e-02
   endloop
 endfacet
 facet normal -0.000000e+00  0.000000e+00 -1.000000e+00
   outer loop
     vertex  6.229527e-01 -8.580719e-02 -5.000000e-02
     vertex  3.963917e-01 -8.977420e-02 -5.000000e-02
     vertex  3.683954e-01 -8.385815e-02 -5.000000e-02
   endloop
 endfacet
 facet normal  0.000000e+00  0.000000e+00 -1.000000e+00
   outer loop
     vertex  6.229527e-01 -8.580719e-02 -5.000000e-02
     vertex  5.951690e-01 -9.132416e-02 -5.000000e-02
     vertex  3.963917e-01 -8.977420e-02 -5.000000e-02
   endloop
 endfacet
 facet normal -0.000000e+00  0.000000e+00 -1.000000e+00
   outer loop
     vertex  6.529085e-01 -7.864516e-02 -5.000000e-02
     vertex  3.683954e-01 -8.385815e-02 -5.000000e-02
     vertex  3.361457e-01 -7.576121e-02 -5.000000e-02
   endloop
 endfacet
 facet normal  0.000000e+00  0.000000e+00 -1.000000e+00
   outer loop
     vertex  6.529085e-01 -7.864516e-02 -5.000000e-02
     vertex  6.229527e-01 -8.580719e-02 -5.000000e-02
     vertex  3.683954e-01 -8.385815e-02 -5.000000e-02
   endloop
 endfacet
 facet normal -0.000000e+00  0.000000e+00 -1.000000e+00
   outer loop
     vertex  6.865482e-01 -6.941009e-02 -5.000000e-02
     vertex  3.361457e-01 -7.576121e-02 -5.000000e-02
     vertex  2.976532e-01 -6.474800e-02 -5.000000e-02
   endloop
 endfacet
 facet normal  0.000000e+00  0.000000e+00 -1.000000e+00
   outer loop
     vertex  6.865482e-01 -6.941009e-02 -5.000000e-02
     vertex  6.529085e-01 -7.864516e-02 -5.000000e-02
     vertex  3.361457e-01 -7.576121e-02 -5.000000e-02
   endloop
 endfacet
 facet normal -0.000000e+00  0.000000e+00 -1.000000e+00
   outer loop
     vertex  7.276169e-01 -5.700870e-02 -5.000000e-02
     vertex  2.976532e-01 -6.474800e-02 -5.000000e-02
     vertex  2.415810e-01 -4.735634e-02 -5.000000e-02
   endloop
 endfacet
 facet normal  0.000000e+00  0.000000e+00 -1.000000e+00
   outer loop
     vertex  7.276169e-01 -5.700870e-02 -5.000000e-02
     vertex  6.865482e-01 -6.941009e-02 -5.000000e-02
     vertex  2.976532e-01 -6.474800e-02 -5.000000e-02
   endloop
 endfacet
 facet normal -0.000000e+00  0.000000e+00 -1.000000e+00
   outer loop
     vertex  7.734444e-01 -4.266134e-02 -5.000000e-02
     vertex  2.415810e-01 -4.735634e-02 -5.000000e-02
     vertex  1.968297e-01 -3.360506e-02 -5.000000e-02
   endloop
 endfacet
 facet normal  0.000000e+00  0.000000e+00 -1.000000e+00
   outer loop
     vertex  7.734444e-01 -4.266134e-02 -5.000000e-02
     vertex  7.276169e-01 -5.700870e-02 -5.000000e-02
     vertex  2.415810e-01 -4.735634e-02 -5.000000e-02
   endloop
 endfacet
 facet normal -0.000000e+00  0.000000e+00 -1.000000e+00
   outer loop
     vertex  8.183854e-01 -2.917109e-02 -5.000000e-02
     vertex  1.968297e-01 -3.360506e-02 -5.000000e-02
     vertex  1.617027e-01 -2.366183e-02 -5.000000e-02
   endloop
 endfacet
 facet normal  0.000000e+00  0.000000e+00 -1.000000e+00
   outer loop
     vertex  8.183854e-01 -2.917109e-02 -5.000000e-02
     vertex  7.734444e-01 -4.266134e-02 -5.000000e-02
     vertex  1.968297e-01 -3.360506e-02 -5.000000e-02
   endloop
 endfacet
 facet normal -0.000000e+00  0.000000e+00 -1.000000e+00
   outer loop
     vertex  8.507153e-01 -2.042924e-02 -5.000000e-02
     vertex  1.617027e-01 -2.366183e-02 -5.000000e-02
     vertex  1.309339e-01 -1.598711e-02 -5.000000e-02
   endloop
 endfacet
 facet normal  0.000000e+00  0.000000e+00 -1.000000e+00
   outer loop
     vertex  8.507153e-01 -2.042924e-02 -5.000000e-02
     vertex  8.183854e-01 -2.917109e-02 -5.000000e-02
     vertex  1.617027e-01 -2.366183e-02 -5.000000e-02
   endloop
 endfacet
 facet normal  0.000000e+00  0.000000e+00 -1.000000e+00
   outer loop
     vertex  0.000000e+00  3.000000e+00 -5.000000e-02
     vertex  2.508855e-02 -6.199423e-04 -5.000000e-02
     vertex  0.000000e+00  0.000000e+00 -5.000000e-02
   endloop
 endfacet
 facet normal  0.000000e+00  0.000000e+00 -1.000000e+00
   outer loop
     vertex  0.000000e+00  3.000000e+00 -5.000000e-02
     vertex  5.011746e-02 -2.458590e-03 -5.000000e-02
     vertex  2.508855e-02 -6.199423e-04 -5.000000e-02
   endloop
 endfacet
 facet normal  0.000000e+00  0.000000e+00 -1.000000e+00
   outer loop
     vertex  0.000000e+00  3.000000e+00 -5.000000e-02
     vertex  7.591097e-02 -5.580332e-03 -5.000000e-02
     vertex  5.011746e-02 -2.458590e-03 -5.000000e-02
   endloop
 endfacet
 facet normal  0.000000e+00  0.000000e+00 -1.000000e+00
   outer loop
     vertex  0.000000e+00  3.000000e+00 -5.000000e-02
     vertex  1.026537e-01 -1.004477e-02 -5.000000e-02
     vertex  7.591097e-02 -5.580332e-03 -5.000000e-02
   endloop
 endfacet
 facet normal  0.000000e+00  0.000000e+00 -1.000000e+00
   outer loop
     vertex  0.000000e+00  3.000000e+00 -5.000000e-02
     vertex  1.309339e-01 -1.598711e-02 -5.000000e-02
     vertex  1.026537e-01 -1.004477e-02 -5.000000e-02
   endloop
 endfacet
 facet normal -0.000000e+00  0.000000e+00 -1.000000e+00
   outer loop
     vertex  1.000000e+00  3.000000e+00 -5.000000e-02
     vertex  1.309339e-01 -1.598711e-02 -5.000000e-02
     vertex  0.000000e+00  3.000000e+00 -5.000000e-02
   endloop
 endfacet
 facet normal  0.000000e+00  0.000000e+00 -1.000000e+00
   outer loop
     vertex  1.000000e+00  3.000000e+00 -5.000000e-02
     vertex  8.807534e-01 -1.338996e-02 -5.000000e-02
     vertex  8.507153e-01 -2.042924e-02 -5.000000e-02
   endloop
 endfacet
 facet normal  0.000000e+00  0.000000e+00 -1.000000e+00
   outer loop
     vertex  1.000000e+00  3.000000e+00 -5.000000e-02
     vertex  9.076212e-01 -8.188734e-03 -5.000000e-02
     vertex  8.807534e-01 -1.338996e-02 -5.000000e-02
   endloop
 endfacet
 facet normal  0.000000e+00  0.000000e+00 -1.000000e+00
   outer loop
     vertex  1.000000e+00  3.000000e+00 -5.000000e-02
     vertex  9.326511e-01 -4.410330e-03 -5.000000e-02
     vertex  9.076212e-01 -8.188734e-03 -5.000000e-02
   endloop
 endfacet
 facet normal  0.000000e+00  0.000000e+00 -1.000000e+00
   outer loop
     vertex  1.000000e+00  3.000000e+00 -5.000000e-02
     vertex  9.565262e-01 -1.853757e-03 -5.000000e-02
     vertex  9.326511e-01 -4.410330e-03 -5.000000e-02
   endloop
 endfacet
 facet normal  0.000000e+00  0.000000e+00 -1.000000e+00
   outer loop
     vertex  1.000000e+00  3.000000e+00 -5.000000e-02
     vertex  9.782435e-01 -4.664440e-04 -5.000000e-02
     vertex  9.565262e-01 -1.853757e-03 -5.000000e-02
   endloop
 endfacet
 facet normal  0.000000e+00 -0.000000e+00 -1.000000e+00
   outer loop
     vertex  1.000000e+00  3.000000e+00 -5.000000e-02
     vertex  1.000000e+00  0.000000e+00 -5.000000e-02
     vertex  9.782435e-01 -4.664440e-04 -5.000000e-02
   endloop
 endfacet
 facet normal  0.000000e+00  0.000000e+00 -1.000000e+00
   outer loop
     vertex  1.000000e+00  3.000000e+00 -5.000000e-02
     vertex  8.507153e-01 -2.042924e-02 -5.000000e-02
     vertex  1.309339e-01 -1.598711e-02 -5.000000e-02
   endloop
 endfacet
 facet normal  0.000000e+00  0.000000e+00  1.000000e+00
   outer loop
     vertex  5.178992e-01 -9.968413e-02  5.000000e-02
     vertex  4.698308e-01 -9.910437e-02  5.000000e-02
     vertex  4.927216e-01 -9.994772e-02  5.000000e-02
   endloop
 endfacet
 facet normal  0.000000e+00  0.000000e+00  1.000000e+00
   outer loop
     vertex  5.431186e-01 -9.817623e-02  5.000000e-02
     vertex  4.464097e-01 -9.719220e-02  5.000000e-02
     vertex  4.698308e-01 -9.910437e-02  5.000000e-02
   endloop
 endfacet
 facet normal  0.000000e+00  0.000000e+00  1.000000e+00
   outer loop
     vertex  5.431186e-01 -9.817623e-02  5.000000e-02
     vertex  4.698308e-01 -9.910437e-02  5.000000e-02
     vertex  5.178992e-01 -9.968413e-02  5.000000e-02
   endloop
 endfacet
 facet normal  0.000000e+00  0.000000e+00  1.000000e+00
   outer loop
     vertex  5.687397e-01 -9.540851e-02  5.000000e-02
     vertex  4.221039e-01 -9.412992e-02  5.000000e-02
     vertex  4.464097e-01 -9.719220e-02  5.000000e-02
   endloop
 endfacet
 facet normal  0.000000e+00  0.000000e+00  1.000000e+00
   outer loop
     vertex  5.687397e-01 -9.540851e-02  5.000000e-02
     vertex  4.464097e-01 -9.719220e-02  5.000000e-02
     vertex  5.431186e-01 -9.817623e-02  5.000000e-02
   endloop
 endfacet
 facet normal  0.000000e+00  0.000000e+00  1.000000e+00
   outer loop
     vertex  5.951690e-01 -9.132416e-02  5.000000e-02
     vertex  3.963917e-01 -8.977420e-02  5.000000e-02
     vertex  4.221039e-01 -9.412992e-02  5.000000e-02
   endloop
 endfacet
 facet normal  0.000000e+00  0.000000e+00  1.000000e+00
   outer loop
     vertex  5.951690e-01 -9.132416e-02  5.000000e-02
     vertex  4.221039e-01 -9.412992e-02  5.000000e-02
     vertex  5.687397e-01 -9.540851e-02  5.000000e-02
   endloop
 endfacet
 facet normal  0.000000e+00  0.000000e+00  1.000000e+00
   outer loop
     vertex  6.229527e-01 -8.580719e-02  5.000000e-02
     vertex  3.683954e-01 -8.385815e-02  5.000000e-02
     vertex  3.963917e-01 -8.977420e-02  5.000000e-02
   endloop
 endfacet
 facet normal  0.000000e+00  0.000000e+00  1.000000e+00
   outer loop
     vertex  6.229527e-01 -8.580719e-02  5.000000e-02
     vertex  3.963917e-01 -8.977420e-02  5.000000e-02
     vertex  5.951690e-01 -9.132416e-02  5.000000e-02
   endloop
 endfacet
 facet normal  0.000000e+00  0.000000e+00  1.000000e+00
   outer loop
     vertex  6.529085e-01 -7.864516e-02  5.000000e-02
     vertex  3.361457e-01 -7.576121e-02  5.000000e-02
     vertex  3.683954e-01 -8.385815e-02  5.000000e-02
   endloop
 endfacet
 facet normal  0.000000e+00  0.000000e+00  1.000000e+00
   outer loop
     vertex  6.529085e-01 -7.864516e-02  5.000000e-02
     vertex  3.683954e-01 -8.385815e-02  5.000000e-02
     vertex  6.229527e-01 -8.580719e-02  5.000000e-02
   endloop
 endfacet
 facet normal  0.000000e+00  0.000000e+00  1.000000e+00
   outer loop
     vertex  6.865482e-01 -6.941009e-02  5.000000e-02
     vertex  2.976532e-01 -6.474800e-02  5.000000e-02
     vertex  3.361457e-01 -7.576121e-02  5.000000e-02
   endloop
 endfacet
 facet normal  0.000000e+00  0.000000e+00  1.000000e+00
   outer loop
     vertex  6.865482e-01 -6.941009e-02  5.000000e-02
     vertex  3.361457e-01 -7.576121e-02  5.000000e-02
     vertex  6.529085e-01 -7.864516e-02  5.000000e-02
   endloop
 endfacet
 facet normal  0.000000e+00  0.000000e+00  1.000000e+00
   outer loop
     vertex  7.276169e-01 -5.700870e-02  5.000000e-02
     vertex  2.415810e-01 -4.735634e-02  5.000000e-02
     vertex  2.976532e-01 -6.474800e-02  5.000000e-02
   endloop
 endfacet
 facet normal  0.000000e+00  0.000000e+00  1.000000e+00
   outer loop
     vertex  7.276169e-01 -5.700870e-02  5.000000e-02
     vertex  2.976532e-01 -6.474800e-02  5.000000e-02
     vertex  6.865482e-01 -6.941009e-02  5.000000e-02
   endloop
 endfacet
 facet normal  0.000000e+00  0.000000e+00  1.000000e+00
   outer loop
     vertex  7.734444e-01 -4.266134e-02  5.000000e-02
     vertex  1.968297e-01 -3.360506e-02  5.000000e-02
     vertex  2.415810e-01 -4.735634e-02  5.000000e-02
   endloop
 endfacet
 facet normal  0.000000e+00  0.000000e+00  1.000000e+00
   outer loop
     vertex  7.734444e-01 -4.266134e-02  5.000000e-02
     vertex  2.415810e-01 -4.735634e-02  5.000000e-02
     vertex  7.276169e-01 -5.700870e-02  5.000000e-02
   endloop
 endfacet
 facet normal  0.000000e+00  0.000000e+00  1.000000e+00
   outer loop
     vertex  8.183854e-01 -2.917109e-02  5.000000e-02
     vertex  1.617027e-01 -2.366183e-02  5.000000e-02
     vertex  1.968297e-01 -3.360506e-02  5.000000e-02
   endloop
 endfacet
 facet normal  0.000000e+00  0.000000e+00  1.000000e+00
   outer loop
     vertex  8.183854e-01 -2.917109e-02  5.000000e-02
     vertex  1.968297e-01 -3.360506e-02  5.000000e-02
     vertex  7.734444e-01 -4.266134e-02  5.000000e-02
   endloop
 endfacet
 facet normal  0.000000e+00  0.000000e+00  1.000000e+00
   outer loop
     vertex  8.507153e-01 -2.042924e-02  5.000000e-02
     vertex  1.309339e-01 -1.598711e-02  5.000000e-02
     vertex  1.617027e-01 -2.366183e-02  5.000000e-02
   endloop
 endfacet
 facet normal  0.000000e+00  0.000000e+00  1.000000e+00
   outer loop
     vertex  8.507153e-01 -2.042924e-02  5.000000e-02
     vertex  1.617027e-01 -2.366183e-02  5.000000e-02
     vertex  8.183854e-01 -2.917109e-02  5.000000e-02
   endloop
 endfacet
 facet normal  0.000000e+00  0.000000e+00  1.000000e+00
   outer loop
     vertex  0.000000e+00  3.000000e+00  5.000000e-02
     vertex  0.000000e+00  0.000000e+00  5.000000e-02
     vertex  2.508855e-02 -6.199423e-04  5.000000e-02
   endloop
 endfacet
 facet normal  0.000000e+00  0.000000e+00  1.000000e+00
   outer loop
     vertex  0.000000e+00  3.000000e+00  5.000000e-02
     vertex  2.508855e-02 -6.199423e-04  5.000000e-02
     vertex  5.011746e-02 -2.458590e-03  5.000000e-02
   endloop
 endfacet
 facet normal  0.000000e+00  0.000000e+00  1.000000e+00
   outer loop
     vertex  0.000000e+00  3.000000e+00  5.000000e-02
     vertex  5.011746e-02 -2.458590e-03  5.000000e-02
     vertex  7.591097e-02 -5.580332e-03  5.000000e-02
   endloop
 endfacet
 facet normal  0.000000e+00  0.000000e+00  1.000000e+00
   outer loop
     vertex  0.000000e+00  3.000000e+00  5.000000e-02
     vertex  7.591097e-02 -5.580332e-03  5.000000e-02
     vertex  1.026537e-01 -1.004477e-02  5.000000e-02
   endloop
 endfacet
 facet normal  0.000000e+00  0.000000e+00  1.000000e+00
   outer loop
     vertex  0.000000e+00  3.000000e+00  5.000000e-02
     vertex  1.026537e-01 -1.004477e-02  5.000000e-02
     vertex  1.309339e-01 -1.598711e-02  5.000000e-02
   endloop
 endfacet
 facet normal  0.000000e+00  0.000000e+00  1.000000e+00
   outer loop
     vertex  1.000000e+00  3.000000e+00  5.000000e-02
     vertex  0.000000e+00  3.000000e+00  5.000000e-02
     vertex  1.309339e-01 -1.598711e-02  5.000000e-02
   endloop
 endfacet
 facet normal  0.000000e+00  0.000000e+00  1.000000e+00
   outer loop
     vertex  1.000000e+00  3.000000e+00  5.000000e-02
     vertex  8.507153e-01 -2.042924e-02  5.000000e-02
     vertex  8.807534e-01 -1.338996e-02  5.000000e-02
   endloop
 endfacet
 facet normal  0.000000e+00  0.000000e+00  1.000000e+00
   outer loop
     vertex  1.000000e+00  3.000000e+00  5.000000e-02
     vertex  8.807534e-01 -1.338996e-02  5.000000e-02
     vertex  9.076212e-01 -8.188734e-03  5.000000e-02
   endloop
 endfacet
 facet normal  0.000000e+00  0.000000e+00  1.000000e+00
   outer loop
     vertex  1.000000e+00  3.000000e+00  5.000000e-02
     vertex  9.076212e-01 -8.188734e-03  5.000000e-02
     vertex  9.326511e-01 -4.410330e-03  5.000000e-02
   endloop
 endfacet
 facet normal  0.000000e+00  0.000000e+00  1.000000e+00
   outer loop
     vertex  1.000000e+00  3.000000e+00  5.000000e-02
     vertex  9.326511e-01 -4.410330e-03  5.000000e-02
     vertex  9.565262e-01 -1.853757e-03  5.000000e-02
   endloop
 endfacet
 facet normal  0.000000e+00  0.000000e+00  1.000000e+00
   outer loop
     vertex  1.000000e+00  3.000000e+00  5.000000e-02
     vertex  9.565262e-01 -1.853757e-03  5.000000e-02
     vertex  9.782435e-01 -4.664440e-04  5.000000e-02
   endloop
 endfacet
 facet normal  0.000000e+00  0.000000e+00  1.000000e+00
   outer loop
     vertex  1.000000e+00  3.000000e+00  5.000000e-02
     vertex  9.782435e-01 -4.664440e-04  5.000000e-02
     vertex  1.000000e+00  0.000000e+00  5.000000e-02
   endloop
 endfacet
 facet normal  0.000000e+00  0.000000e+00  1.000000e+00
   outer loop
     vertex  1.000000e+00  3.000000e+00  5.000000e-02
     vertex  1.309339e-01 -1.598711e-02  5.000000e-02
     vertex  8.507153e-01 -2.042924e-02  5.000000e-02
   endloop
 endfacet
endsolid
