solid patch_1_0
 facet normal 0.0 -0.0 -1.0
  outer loop
   vertex 0.0464644660949707 0.0464644660949707 0.0
   vertex 0.047222148895263674 0.0458426513671875 0.0
   vertex 0.0 0.0 0.0
  endloop
 endfacet
 facet normal 0.0 0.0 -1.0
  outer loop
   vertex 0.0 0.0 0.0
   vertex 0.0458426513671875 0.047222148895263674 0.0
   vertex 0.0464644660949707 0.0464644660949707 0.0
  endloop
 endfacet
 facet normal 0.0 -0.0 -1.0
  outer loop
   vertex 0.047222148895263674 0.0458426513671875 0.0
   vertex 0.04808658218383789 0.045380603790283205 0.0
   vertex 0.0 0.0 0.0
  endloop
 endfacet
 facet normal 0.0 0.0 -1.0
  outer loop
   vertex 0.0 0.0 0.0
   vertex 0.045380603790283205 0.04808658218383789 0.0
   vertex 0.0458426513671875 0.047222148895263674 0.0
  endloop
 endfacet
 facet normal 0.0 0.0 -1.0
  outer loop
   vertex 0.0 0.0 0.0
   vertex 0.04509607315063477 0.0490245475769043 0.0
   vertex 0.045380603790283205 0.04808658218383789 0.0
  endloop
 endfacet
 facet normal 0.0 -0.0 -1.0
  outer loop
   vertex 0.04808658218383789 0.045380603790283205 0.0
   vertex 0.0490245475769043 0.04509607315063477 0.0
   vertex 0.0 0.0 0.0
  endloop
 endfacet
 facet normal 0.0 -0.0 -1.0
  outer loop
   vertex 0.0490245475769043 0.04509607315063477 0.0
   vertex 0.05 0.045 0.0
   vertex 0.0 0.0 0.0
  endloop
 endfacet
 facet normal 0.0 0.0 -1.0
  outer loop
   vertex 0.0 0.0 0.0
   vertex 0.045 0.05 0.0
   vertex 0.04509607315063477 0.0490245475769043 0.0
  endloop
 endfacet
 facet normal 0.0 -0.0 -1.0
  outer loop
   vertex 0.05 0.045 0.0
   vertex 0.0509754524230957 0.04509607315063477 0.0
   vertex 0.0 0.0 0.0
  endloop
 endfacet
 facet normal 0.0 -0.0 -1.0
  outer loop
   vertex 0.0509754524230957 0.04509607315063477 0.0
   vertex 0.051913417816162113 0.045380603790283205 0.0
   vertex 0.0 0.0 0.0
  endloop
 endfacet
 facet normal 0.0 0.0 -1.0
  outer loop
   vertex 0.045 0.05 0.0
   vertex 0.0 0.1 0.0
   vertex 0.04509607315063477 0.0509754524230957 0.0
  endloop
 endfacet
 facet normal 0.0 0.0 -1.0
  outer loop
   vertex 0.04509607315063477 0.0509754524230957 0.0
   vertex 0.0 0.1 0.0
   vertex 0.045380603790283205 0.051913417816162113 0.0
  endloop
 endfacet
 facet normal 0.0 0.0 -1.0
  outer loop
   vertex 0.045380603790283205 0.051913417816162113 0.0
   vertex 0.0 0.1 0.0
   vertex 0.0458426513671875 0.05277785110473633 0.0
  endloop
 endfacet
 facet normal 0.0 0.0 -1.0
  outer loop
   vertex 0.0 0.0 0.0
   vertex 0.0 0.1 0.0
   vertex 0.045 0.05 0.0
  endloop
 endfacet
 facet normal 0.0 0.0 -1.0
  outer loop
   vertex 0.0 0.1 0.0
   vertex 0.0464644660949707 0.0535355339050293 0.0
   vertex 0.0458426513671875 0.05277785110473633 0.0
  endloop
 endfacet
 facet normal 0.0 0.0 -1.0
  outer loop
   vertex 0.0 0.1 0.0
   vertex 0.047222148895263674 0.0541573486328125 0.0
   vertex 0.0464644660949707 0.0535355339050293 0.0
  endloop
 endfacet
 facet normal 0.0 0.0 -1.0
  outer loop
   vertex 0.0 0.1 0.0
   vertex 0.04808658218383789 0.0546193962097168 0.0
   vertex 0.047222148895263674 0.0541573486328125 0.0
  endloop
 endfacet
 facet normal 0.0 0.0 -1.0
  outer loop
   vertex 0.0 0.1 0.0
   vertex 0.0490245475769043 0.05490392684936524 0.0
   vertex 0.04808658218383789 0.0546193962097168 0.0
  endloop
 endfacet
 facet normal 0.0 0.0 -1.0
  outer loop
   vertex 0.0 0.1 0.0
   vertex 0.05 0.055 0.0
   vertex 0.0490245475769043 0.05490392684936524 0.0
  endloop
 endfacet
 facet normal 0.0 0.0 -1.0
  outer loop
   vertex 0.0 0.1 0.0
   vertex 0.0509754524230957 0.05490392684936524 0.0
   vertex 0.05 0.055 0.0
  endloop
 endfacet
 facet normal 0.0 0.0 -1.0
  outer loop
   vertex 0.0 0.1 0.0
   vertex 0.051913417816162113 0.0546193962097168 0.0
   vertex 0.0509754524230957 0.05490392684936524 0.0
  endloop
 endfacet
 facet normal 0.0 -0.0 -1.0
  outer loop
   vertex 0.055 0.05 0.0
   vertex 0.2 0.0 0.0
   vertex 0.05490392684936524 0.0490245475769043 0.0
  endloop
 endfacet
 facet normal 0.0 -0.0 -1.0
  outer loop
   vertex 0.05490392684936524 0.0490245475769043 0.0
   vertex 0.2 0.0 0.0
   vertex 0.0546193962097168 0.04808658218383789 0.0
  endloop
 endfacet
 facet normal 0.0 -0.0 -1.0
  outer loop
   vertex 0.0546193962097168 0.04808658218383789 0.0
   vertex 0.2 0.0 0.0
   vertex 0.0541573486328125 0.047222148895263674 0.0
  endloop
 endfacet
 facet normal 0.0 -0.0 -1.0
  outer loop
   vertex 0.0541573486328125 0.047222148895263674 0.0
   vertex 0.2 0.0 0.0
   vertex 0.0535355339050293 0.0464644660949707 0.0
  endloop
 endfacet
 facet normal 0.0 -0.0 -1.0
  outer loop
   vertex 0.0535355339050293 0.0464644660949707 0.0
   vertex 0.2 0.0 0.0
   vertex 0.05277785110473633 0.0458426513671875 0.0
  endloop
 endfacet
 facet normal 0.0 -0.0 -1.0
  outer loop
   vertex 0.05277785110473633 0.0458426513671875 0.0
   vertex 0.2 0.0 0.0
   vertex 0.051913417816162113 0.045380603790283205 0.0
  endloop
 endfacet
 facet normal 0.0 -0.0 -1.0
  outer loop
   vertex 0.051913417816162113 0.045380603790283205 0.0
   vertex 0.2 0.0 0.0
   vertex 0.0 0.0 0.0
  endloop
 endfacet
 facet normal 0.0 0.0 -1.0
  outer loop
   vertex 0.051913417816162113 0.0546193962097168 0.0
   vertex 0.2 0.1 0.0
   vertex 0.05277785110473633 0.0541573486328125 0.0
  endloop
 endfacet
 facet normal 0.0 0.0 -1.0
  outer loop
   vertex 0.05277785110473633 0.0541573486328125 0.0
   vertex 0.2 0.1 0.0
   vertex 0.0535355339050293 0.0535355339050293 0.0
  endloop
 endfacet
 facet normal 0.0 0.0 -1.0
  outer loop
   vertex 0.0535355339050293 0.0535355339050293 0.0
   vertex 0.2 0.1 0.0
   vertex 0.0541573486328125 0.05277785110473633 0.0
  endloop
 endfacet
 facet normal 0.0 0.0 -1.0
  outer loop
   vertex 0.0541573486328125 0.05277785110473633 0.0
   vertex 0.2 0.1 0.0
   vertex 0.0546193962097168 0.051913417816162113 0.0
  endloop
 endfacet
 facet normal 0.0 0.0 -1.0
  outer loop
   vertex 0.0546193962097168 0.051913417816162113 0.0
   vertex 0.2 0.1 0.0
   vertex 0.05490392684936524 0.0509754524230957 0.0
  endloop
 endfacet
 facet normal 0.0 0.0 -1.0
  outer loop
   vertex 0.05490392684936524 0.0509754524230957 0.0
   vertex 0.2 0.1 0.0
   vertex 0.055 0.05 0.0
  endloop
 endfacet
 facet normal 0.0 0.0 -1.0
  outer loop
   vertex 0.055 0.05 0.0
   vertex 0.2 0.1 0.0
   vertex 0.2 0.0 0.0
  endloop
 endfacet
 facet normal 0.0 0.0 -1.0
  outer loop
   vertex 0.0 0.1 0.0
   vertex 0.2 0.1 0.0
   vertex 0.051913417816162113 0.0546193962097168 0.0
  endloop
 endfacet
endsolid patch_1_0
solid patch_2_0
 facet normal 0.0 0.0 1.0
  outer loop
   vertex 0.047222148895263674 0.0458426513671875 0.002
   vertex 0.0464644660949707 0.0464644660949707 0.002
   vertex 0.0 0.0 0.002
  endloop
 endfacet
 facet normal 0.0 0.0 1.0
  outer loop
   vertex 0.0458426513671875 0.047222148895263674 0.002
   vertex 0.0 0.0 0.002
   vertex 0.0464644660949707 0.0464644660949707 0.002
  endloop
 endfacet
 facet normal 0.0 0.0 1.0
  outer loop
   vertex 0.04808658218383789 0.045380603790283205 0.002
   vertex 0.047222148895263674 0.0458426513671875 0.002
   vertex 0.0 0.0 0.002
  endloop
 endfacet
 facet normal 0.0 0.0 1.0
  outer loop
   vertex 0.045380603790283205 0.04808658218383789 0.002
   vertex 0.0 0.0 0.002
   vertex 0.0458426513671875 0.047222148895263674 0.002
  endloop
 endfacet
 facet normal 0.0 0.0 1.0
  outer loop
   vertex 0.04509607315063477 0.0490245475769043 0.002
   vertex 0.0 0.0 0.002
   vertex 0.045380603790283205 0.04808658218383789 0.002
  endloop
 endfacet
 facet normal 0.0 0.0 1.0
  outer loop
   vertex 0.0490245475769043 0.04509607315063477 0.002
   vertex 0.04808658218383789 0.045380603790283205 0.002
   vertex 0.0 0.0 0.002
  endloop
 endfacet
 facet normal 0.0 0.0 1.0
  outer loop
   vertex 0.05 0.045 0.002
   vertex 0.0490245475769043 0.04509607315063477 0.002
   vertex 0.0 0.0 0.002
  endloop
 endfacet
 facet normal 0.0 0.0 1.0
  outer loop
   vertex 0.045 0.05 0.002
   vertex 0.0 0.0 0.002
   vertex 0.04509607315063477 0.0490245475769043 0.002
  endloop
 endfacet
 facet normal 0.0 0.0 1.0
  outer loop
   vertex 0.0509754524230957 0.04509607315063477 0.002
   vertex 0.05 0.045 0.002
   vertex 0.0 0.0 0.002
  endloop
 endfacet
 facet normal 0.0 0.0 1.0
  outer loop
   vertex 0.051913417816162113 0.045380603790283205 0.002
   vertex 0.0509754524230957 0.04509607315063477 0.002
   vertex 0.0 0.0 0.002
  endloop
 endfacet
 facet normal 0.0 0.0 1.0
  outer loop
   vertex 0.0 0.1 0.002
   vertex 0.045 0.05 0.002
   vertex 0.04509607315063477 0.0509754524230957 0.002
  endloop
 endfacet
 facet normal 0.0 0.0 1.0
  outer loop
   vertex 0.0 0.1 0.002
   vertex 0.04509607315063477 0.0509754524230957 0.002
   vertex 0.045380603790283205 0.051913417816162113 0.002
  endloop
 endfacet
 facet normal 0.0 0.0 1.0
  outer loop
   vertex 0.0 0.1 0.002
   vertex 0.045380603790283205 0.051913417816162113 0.002
   vertex 0.0458426513671875 0.05277785110473633 0.002
  endloop
 endfacet
 facet normal 0.0 0.0 1.0
  outer loop
   vertex 0.0 0.1 0.002
   vertex 0.0 0.0 0.002
   vertex 0.045 0.05 0.002
  endloop
 endfacet
 facet normal 0.0 0.0 1.0
  outer loop
   vertex 0.0464644660949707 0.0535355339050293 0.002
   vertex 0.0 0.1 0.002
   vertex 0.0458426513671875 0.05277785110473633 0.002
  endloop
 endfacet
 facet normal 0.0 0.0 1.0
  outer loop
   vertex 0.047222148895263674 0.0541573486328125 0.002
   vertex 0.0 0.1 0.002
   vertex 0.0464644660949707 0.0535355339050293 0.002
  endloop
 endfacet
 facet normal 0.0 0.0 1.0
  outer loop
   vertex 0.04808658218383789 0.0546193962097168 0.002
   vertex 0.0 0.1 0.002
   vertex 0.047222148895263674 0.0541573486328125 0.002
  endloop
 endfacet
 facet normal 0.0 0.0 1.0
  outer loop
   vertex 0.0490245475769043 0.05490392684936524 0.002
   vertex 0.0 0.1 0.002
   vertex 0.04808658218383789 0.0546193962097168 0.002
  endloop
 endfacet
 facet normal 0.0 0.0 1.0
  outer loop
   vertex 0.05 0.055 0.002
   vertex 0.0 0.1 0.002
   vertex 0.0490245475769043 0.05490392684936524 0.002
  endloop
 endfacet
 facet normal 0.0 0.0 1.0
  outer loop
   vertex 0.0509754524230957 0.05490392684936524 0.002
   vertex 0.0 0.1 0.002
   vertex 0.05 0.055 0.002
  endloop
 endfacet
 facet normal 0.0 0.0 1.0
  outer loop
   vertex 0.051913417816162113 0.0546193962097168 0.002
   vertex 0.0 0.1 0.002
   vertex 0.0509754524230957 0.05490392684936524 0.002
  endloop
 endfacet
 facet normal 0.0 0.0 1.0
  outer loop
   vertex 0.2 0.0 0.002
   vertex 0.055 0.05 0.002
   vertex 0.05490392684936524 0.0490245475769043 0.002
  endloop
 endfacet
 facet normal 0.0 0.0 1.0
  outer loop
   vertex 0.2 0.0 0.002
   vertex 0.05490392684936524 0.0490245475769043 0.002
   vertex 0.0546193962097168 0.04808658218383789 0.002
  endloop
 endfacet
 facet normal 0.0 0.0 1.0
  outer loop
   vertex 0.2 0.0 0.002
   vertex 0.0546193962097168 0.04808658218383789 0.002
   vertex 0.0541573486328125 0.047222148895263674 0.002
  endloop
 endfacet
 facet normal 0.0 0.0 1.0
  outer loop
   vertex 0.2 0.0 0.002
   vertex 0.0541573486328125 0.047222148895263674 0.002
   vertex 0.0535355339050293 0.0464644660949707 0.002
  endloop
 endfacet
 facet normal 0.0 0.0 1.0
  outer loop
   vertex 0.2 0.0 0.002
   vertex 0.0535355339050293 0.0464644660949707 0.002
   vertex 0.05277785110473633 0.0458426513671875 0.002
  endloop
 endfacet
 facet normal 0.0 0.0 1.0
  outer loop
   vertex 0.2 0.0 0.002
   vertex 0.05277785110473633 0.0458426513671875 0.002
   vertex 0.051913417816162113 0.045380603790283205 0.002
  endloop
 endfacet
 facet normal 0.0 0.0 1.0
  outer loop
   vertex 0.2 0.0 0.002
   vertex 0.051913417816162113 0.045380603790283205 0.002
   vertex 0.0 0.0 0.002
  endloop
 endfacet
 facet normal 0.0 0.0 1.0
  outer loop
   vertex 0.2 0.1 0.002
   vertex 0.051913417816162113 0.0546193962097168 0.002
   vertex 0.05277785110473633 0.0541573486328125 0.002
  endloop
 endfacet
 facet normal 0.0 0.0 1.0
  outer loop
   vertex 0.2 0.1 0.002
   vertex 0.05277785110473633 0.0541573486328125 0.002
   vertex 0.0535355339050293 0.0535355339050293 0.002
  endloop
 endfacet
 facet normal 0.0 0.0 1.0
  outer loop
   vertex 0.2 0.1 0.002
   vertex 0.0535355339050293 0.0535355339050293 0.002
   vertex 0.0541573486328125 0.05277785110473633 0.002
  endloop
 endfacet
 facet normal 0.0 0.0 1.0
  outer loop
   vertex 0.2 0.1 0.002
   vertex 0.0541573486328125 0.05277785110473633 0.002
   vertex 0.0546193962097168 0.051913417816162113 0.002
  endloop
 endfacet
 facet normal 0.0 0.0 1.0
  outer loop
   vertex 0.2 0.1 0.002
   vertex 0.0546193962097168 0.051913417816162113 0.002
   vertex 0.05490392684936524 0.0509754524230957 0.002
  endloop
 endfacet
 facet normal 0.0 0.0 1.0
  outer loop
   vertex 0.2 0.1 0.002
   vertex 0.05490392684936524 0.0509754524230957 0.002
   vertex 0.055 0.05 0.002
  endloop
 endfacet
 facet normal 0.0 0.0 1.0
  outer loop
   vertex 0.2 0.1 0.002
   vertex 0.055 0.05 0.002
   vertex 0.2 0.0 0.002
  endloop
 endfacet
 facet normal 0.0 0.0 1.0
  outer loop
   vertex 0.2 0.1 0.002
   vertex 0.0 0.1 0.002
   vertex 0.051913417816162113 0.0546193962097168 0.002
  endloop
 endfacet
endsolid patch_2_0
solid patch_3_0
 facet normal -0.9951847195625305 -0.09801660478115082 0.0
  outer loop
   vertex 0.05490392684936524 0.0509754524230957 0.0
   vertex 0.055 0.05 0.0
   vertex 0.055 0.05 0.002
  endloop
 endfacet
 facet normal -0.9951847195625305 -0.09801660478115082 0.0
  outer loop
   vertex 0.05490392684936524 0.0509754524230957 0.0
   vertex 0.055 0.05 0.002
   vertex 0.05490392684936524 0.0509754524230957 0.002
  endloop
 endfacet
 facet normal -0.9569398164749146 -0.29028651118278503 0.0
  outer loop
   vertex 0.0546193962097168 0.051913417816162113 0.0
   vertex 0.05490392684936524 0.0509754524230957 0.002
   vertex 0.0546193962097168 0.051913417816162113 0.002
  endloop
 endfacet
 facet normal -0.9569398164749146 -0.29028651118278503 0.0
  outer loop
   vertex 0.0546193962097168 0.051913417816162113 0.0
   vertex 0.05490392684936524 0.0509754524230957 0.0
   vertex 0.05490392684936524 0.0509754524230957 0.002
  endloop
 endfacet
 facet normal -0.8819219470024109 -0.47139543294906616 0.0
  outer loop
   vertex 0.0541573486328125 0.05277785110473633 0.0
   vertex 0.0546193962097168 0.051913417816162113 0.002
   vertex 0.0541573486328125 0.05277785110473633 0.002
  endloop
 endfacet
 facet normal -0.8819219470024109 -0.47139543294906616 0.0
  outer loop
   vertex 0.0541573486328125 0.05277785110473633 0.0
   vertex 0.0546193962097168 0.051913417816162113 0.0
   vertex 0.0546193962097168 0.051913417816162113 0.002
  endloop
 endfacet
 facet normal -0.7730101943016052 -0.6343936324119568 0.0
  outer loop
   vertex 0.0535355339050293 0.0535355339050293 0.0
   vertex 0.0541573486328125 0.05277785110473633 0.002
   vertex 0.0535355339050293 0.0535355339050293 0.002
  endloop
 endfacet
 facet normal -0.7730101943016052 -0.6343936324119568 0.0
  outer loop
   vertex 0.0535355339050293 0.0535355339050293 0.0
   vertex 0.0541573486328125 0.05277785110473633 0.0
   vertex 0.0541573486328125 0.05277785110473633 0.002
  endloop
 endfacet
 facet normal -0.6343936324119568 -0.7730101943016052 0.0
  outer loop
   vertex 0.05277785110473633 0.0541573486328125 0.0
   vertex 0.0535355339050293 0.0535355339050293 0.002
   vertex 0.05277785110473633 0.0541573486328125 0.002
  endloop
 endfacet
 facet normal -0.6343936324119568 -0.7730101943016052 0.0
  outer loop
   vertex 0.05277785110473633 0.0541573486328125 0.0
   vertex 0.0535355339050293 0.0535355339050293 0.0
   vertex 0.0535355339050293 0.0535355339050293 0.002
  endloop
 endfacet
 facet normal -0.47139543294906616 -0.8819219470024109 0.0
  outer loop
   vertex 0.051913417816162113 0.0546193962097168 0.0
   vertex 0.05277785110473633 0.0541573486328125 0.002
   vertex 0.051913417816162113 0.0546193962097168 0.002
  endloop
 endfacet
 facet normal -0.47139543294906616 -0.8819219470024109 0.0
  outer loop
   vertex 0.051913417816162113 0.0546193962097168 0.0
   vertex 0.05277785110473633 0.0541573486328125 0.0
   vertex 0.05277785110473633 0.0541573486328125 0.002
  endloop
 endfacet
 facet normal -0.29028651118278503 -0.9569398164749146 0.0
  outer loop
   vertex 0.0509754524230957 0.05490392684936524 0.0
   vertex 0.051913417816162113 0.0546193962097168 0.002
   vertex 0.0509754524230957 0.05490392684936524 0.002
  endloop
 endfacet
 facet normal -0.29028651118278503 -0.9569398164749146 0.0
  outer loop
   vertex 0.0509754524230957 0.05490392684936524 0.0
   vertex 0.051913417816162113 0.0546193962097168 0.0
   vertex 0.051913417816162113 0.0546193962097168 0.002
  endloop
 endfacet
 facet normal -0.09801660478115082 -0.9951847195625305 0.0
  outer loop
   vertex 0.05 0.055 0.0
   vertex 0.0509754524230957 0.05490392684936524 0.0
   vertex 0.0509754524230957 0.05490392684936524 0.002
  endloop
 endfacet
 facet normal -0.09801660478115082 -0.9951847195625305 0.0
  outer loop
   vertex 0.05 0.055 0.0
   vertex 0.0509754524230957 0.05490392684936524 0.002
   vertex 0.05 0.055 0.002
  endloop
 endfacet
 facet normal 0.09801660478115082 -0.9951847195625305 0.0
  outer loop
   vertex 0.0490245475769043 0.05490392684936524 0.0
   vertex 0.05 0.055 0.0
   vertex 0.05 0.055 0.002
  endloop
 endfacet
 facet normal 0.09801660478115082 -0.9951847195625305 0.0
  outer loop
   vertex 0.0490245475769043 0.05490392684936524 0.0
   vertex 0.05 0.055 0.002
   vertex 0.0490245475769043 0.05490392684936524 0.002
  endloop
 endfacet
 facet normal 0.29028651118278503 -0.9569398164749146 0.0
  outer loop
   vertex 0.04808658218383789 0.0546193962097168 0.0
   vertex 0.0490245475769043 0.05490392684936524 0.0
   vertex 0.0490245475769043 0.05490392684936524 0.002
  endloop
 endfacet
 facet normal 0.29028651118278503 -0.9569398164749146 0.0
  outer loop
   vertex 0.04808658218383789 0.0546193962097168 0.0
   vertex 0.0490245475769043 0.05490392684936524 0.002
   vertex 0.04808658218383789 0.0546193962097168 0.002
  endloop
 endfacet
 facet normal 0.47139543294906616 -0.8819219470024109 0.0
  outer loop
   vertex 0.047222148895263674 0.0541573486328125 0.0
   vertex 0.04808658218383789 0.0546193962097168 0.0
   vertex 0.04808658218383789 0.0546193962097168 0.002
  endloop
 endfacet
 facet normal 0.47139543294906616 -0.8819219470024109 0.0
  outer loop
   vertex 0.047222148895263674 0.0541573486328125 0.0
   vertex 0.04808658218383789 0.0546193962097168 0.002
   vertex 0.047222148895263674 0.0541573486328125 0.002
  endloop
 endfacet
 facet normal 0.6343936324119568 -0.7730101943016052 0.0
  outer loop
   vertex 0.0464644660949707 0.0535355339050293 0.0
   vertex 0.047222148895263674 0.0541573486328125 0.0
   vertex 0.047222148895263674 0.0541573486328125 0.002
  endloop
 endfacet
 facet normal 0.6343936324119568 -0.7730101943016052 0.0
  outer loop
   vertex 0.0464644660949707 0.0535355339050293 0.0
   vertex 0.047222148895263674 0.0541573486328125 0.002
   vertex 0.0464644660949707 0.0535355339050293 0.002
  endloop
 endfacet
 facet normal 0.7730101943016052 -0.6343936324119568 0.0
  outer loop
   vertex 0.0458426513671875 0.05277785110473633 0.0
   vertex 0.0464644660949707 0.0535355339050293 0.0
   vertex 0.0464644660949707 0.0535355339050293 0.002
  endloop
 endfacet
 facet normal 0.7730101943016052 -0.6343936324119568 0.0
  outer loop
   vertex 0.0458426513671875 0.05277785110473633 0.0
   vertex 0.0464644660949707 0.0535355339050293 0.002
   vertex 0.0458426513671875 0.05277785110473633 0.002
  endloop
 endfacet
 facet normal 0.8819219470024109 -0.47139543294906616 0.0
  outer loop
   vertex 0.045380603790283205 0.051913417816162113 0.0
   vertex 0.0458426513671875 0.05277785110473633 0.0
   vertex 0.0458426513671875 0.05277785110473633 0.002
  endloop
 endfacet
 facet normal 0.8819219470024109 -0.47139543294906616 0.0
  outer loop
   vertex 0.045380603790283205 0.051913417816162113 0.0
   vertex 0.0458426513671875 0.05277785110473633 0.002
   vertex 0.045380603790283205 0.051913417816162113 0.002
  endloop
 endfacet
 facet normal 0.9569398164749146 -0.29028651118278503 0.0
  outer loop
   vertex 0.04509607315063477 0.0509754524230957 0.0
   vertex 0.045380603790283205 0.051913417816162113 0.0
   vertex 0.045380603790283205 0.051913417816162113 0.002
  endloop
 endfacet
 facet normal 0.9569398164749146 -0.29028651118278503 0.0
  outer loop
   vertex 0.04509607315063477 0.0509754524230957 0.0
   vertex 0.045380603790283205 0.051913417816162113 0.002
   vertex 0.04509607315063477 0.0509754524230957 0.002
  endloop
 endfacet
 facet normal 0.9951847195625305 -0.09801660478115082 0.0
  outer loop
   vertex 0.045 0.05 0.0
   vertex 0.04509607315063477 0.0509754524230957 0.0
   vertex 0.04509607315063477 0.0509754524230957 0.002
  endloop
 endfacet
 facet normal 0.9951847195625305 -0.09801660478115082 0.0
  outer loop
   vertex 0.045 0.05 0.0
   vertex 0.04509607315063477 0.0509754524230957 0.002
   vertex 0.045 0.05 0.002
  endloop
 endfacet
 facet normal 0.9951847195625305 0.09801660478115082 0.0
  outer loop
   vertex 0.04509607315063477 0.0490245475769043 0.0
   vertex 0.045 0.05 0.0
   vertex 0.045 0.05 0.002
  endloop
 endfacet
 facet normal 0.9951847195625305 0.09801660478115082 -0.0
  outer loop
   vertex 0.04509607315063477 0.0490245475769043 0.0
   vertex 0.045 0.05 0.002
   vertex 0.04509607315063477 0.0490245475769043 0.002
  endloop
 endfacet
 facet normal 0.9569398164749146 0.29028651118278503 0.0
  outer loop
   vertex 0.045380603790283205 0.04808658218383789 0.0
   vertex 0.04509607315063477 0.0490245475769043 0.0
   vertex 0.04509607315063477 0.0490245475769043 0.002
  endloop
 endfacet
 facet normal 0.9569398164749146 0.29028651118278503 -0.0
  outer loop
   vertex 0.045380603790283205 0.04808658218383789 0.0
   vertex 0.04509607315063477 0.0490245475769043 0.002
   vertex 0.045380603790283205 0.04808658218383789 0.002
  endloop
 endfacet
 facet normal 0.8819219470024109 0.47139543294906616 -0.0
  outer loop
   vertex 0.0458426513671875 0.047222148895263674 0.0
   vertex 0.045380603790283205 0.04808658218383789 0.002
   vertex 0.0458426513671875 0.047222148895263674 0.002
  endloop
 endfacet
 facet normal 0.8819219470024109 0.47139543294906616 0.0
  outer loop
   vertex 0.0458426513671875 0.047222148895263674 0.0
   vertex 0.045380603790283205 0.04808658218383789 0.0
   vertex 0.045380603790283205 0.04808658218383789 0.002
  endloop
 endfacet
 facet normal 0.6343936324119568 0.7730101943016052 -0.0
  outer loop
   vertex 0.0464644660949707 0.0464644660949707 0.0
   vertex 0.0464644660949707 0.0464644660949707 0.002
   vertex 0.047222148895263674 0.0458426513671875 0.002
  endloop
 endfacet
 facet normal 0.7730101943016052 0.6343936324119568 -0.0
  outer loop
   vertex 0.0464644660949707 0.0464644660949707 0.0
   vertex 0.0458426513671875 0.047222148895263674 0.002
   vertex 0.0464644660949707 0.0464644660949707 0.002
  endloop
 endfacet
 facet normal 0.7730101943016052 0.6343936324119568 0.0
  outer loop
   vertex 0.0464644660949707 0.0464644660949707 0.0
   vertex 0.0458426513671875 0.047222148895263674 0.0
   vertex 0.0458426513671875 0.047222148895263674 0.002
  endloop
 endfacet
 facet normal 0.47139543294906616 0.8819219470024109 -0.0
  outer loop
   vertex 0.047222148895263674 0.0458426513671875 0.0
   vertex 0.047222148895263674 0.0458426513671875 0.002
   vertex 0.04808658218383789 0.045380603790283205 0.002
  endloop
 endfacet
 facet normal 0.6343936324119568 0.7730101943016052 -0.0
  outer loop
   vertex 0.047222148895263674 0.0458426513671875 0.0
   vertex 0.0464644660949707 0.0464644660949707 0.0
   vertex 0.047222148895263674 0.0458426513671875 0.002
  endloop
 endfacet
 facet normal 0.47139543294906616 0.8819219470024109 -0.0
  outer loop
   vertex 0.04808658218383789 0.045380603790283205 0.0
   vertex 0.047222148895263674 0.0458426513671875 0.0
   vertex 0.04808658218383789 0.045380603790283205 0.002
  endloop
 endfacet
 facet normal 0.29028651118278503 0.9569398164749146 -0.0
  outer loop
   vertex 0.0490245475769043 0.04509607315063477 0.0
   vertex 0.04808658218383789 0.045380603790283205 0.002
   vertex 0.0490245475769043 0.04509607315063477 0.002
  endloop
 endfacet
 facet normal 0.29028651118278503 0.9569398164749146 0.0
  outer loop
   vertex 0.0490245475769043 0.04509607315063477 0.0
   vertex 0.04808658218383789 0.045380603790283205 0.0
   vertex 0.04808658218383789 0.045380603790283205 0.002
  endloop
 endfacet
 facet normal 0.09801660478115082 0.9951847195625305 -0.0
  outer loop
   vertex 0.05 0.045 0.0
   vertex 0.0490245475769043 0.04509607315063477 0.002
   vertex 0.05 0.045 0.002
  endloop
 endfacet
 facet normal 0.09801660478115082 0.9951847195625305 0.0
  outer loop
   vertex 0.05 0.045 0.0
   vertex 0.0490245475769043 0.04509607315063477 0.0
   vertex 0.0490245475769043 0.04509607315063477 0.002
  endloop
 endfacet
 facet normal -0.09801660478115082 0.9951847195625305 0.0
  outer loop
   vertex 0.0509754524230957 0.04509607315063477 0.0
   vertex 0.05 0.045 0.002
   vertex 0.0509754524230957 0.04509607315063477 0.002
  endloop
 endfacet
 facet normal -0.09801660478115082 0.9951847195625305 0.0
  outer loop
   vertex 0.0509754524230957 0.04509607315063477 0.0
   vertex 0.05 0.045 0.0
   vertex 0.05 0.045 0.002
  endloop
 endfacet
 facet normal -0.29028651118278503 0.9569398164749146 0.0
  outer loop
   vertex 0.051913417816162113 0.045380603790283205 0.0
   vertex 0.0509754524230957 0.04509607315063477 0.002
   vertex 0.051913417816162113 0.045380603790283205 0.002
  endloop
 endfacet
 facet normal -0.29028651118278503 0.9569398164749146 0.0
  outer loop
   vertex 0.051913417816162113 0.045380603790283205 0.0
   vertex 0.0509754524230957 0.04509607315063477 0.0
   vertex 0.0509754524230957 0.04509607315063477 0.002
  endloop
 endfacet
 facet normal -0.6343936324119568 0.7730101943016052 0.0
  outer loop
   vertex 0.05277785110473633 0.0458426513671875 0.0
   vertex 0.05277785110473633 0.0458426513671875 0.002
   vertex 0.0535355339050293 0.0464644660949707 0.002
  endloop
 endfacet
 facet normal -0.47139543294906616 0.8819219470024109 0.0
  outer loop
   vertex 0.05277785110473633 0.0458426513671875 0.0
   vertex 0.051913417816162113 0.045380603790283205 0.002
   vertex 0.05277785110473633 0.0458426513671875 0.002
  endloop
 endfacet
 facet normal -0.47139543294906616 0.8819219470024109 0.0
  outer loop
   vertex 0.05277785110473633 0.0458426513671875 0.0
   vertex 0.051913417816162113 0.045380603790283205 0.0
   vertex 0.051913417816162113 0.045380603790283205 0.002
  endloop
 endfacet
 facet normal -0.6343936324119568 0.7730101943016052 0.0
  outer loop
   vertex 0.0535355339050293 0.0464644660949707 0.0
   vertex 0.05277785110473633 0.0458426513671875 0.0
   vertex 0.0535355339050293 0.0464644660949707 0.002
  endloop
 endfacet
 facet normal -0.8819219470024109 0.47139543294906616 0.0
  outer loop
   vertex 0.0541573486328125 0.047222148895263674 0.0
   vertex 0.0541573486328125 0.047222148895263674 0.002
   vertex 0.0546193962097168 0.04808658218383789 0.002
  endloop
 endfacet
 facet normal -0.7730101943016052 0.6343936324119568 0.0
  outer loop
   vertex 0.0541573486328125 0.047222148895263674 0.0
   vertex 0.0535355339050293 0.0464644660949707 0.002
   vertex 0.0541573486328125 0.047222148895263674 0.002
  endloop
 endfacet
 facet normal -0.7730101943016052 0.6343936324119568 0.0
  outer loop
   vertex 0.0541573486328125 0.047222148895263674 0.0
   vertex 0.0535355339050293 0.0464644660949707 0.0
   vertex 0.0535355339050293 0.0464644660949707 0.002
  endloop
 endfacet
 facet normal -0.8819219470024109 0.47139543294906616 0.0
  outer loop
   vertex 0.0546193962097168 0.04808658218383789 0.0
   vertex 0.0541573486328125 0.047222148895263674 0.0
   vertex 0.0546193962097168 0.04808658218383789 0.002
  endloop
 endfacet
 facet normal -0.9569398164749146 0.29028651118278503 0.0
  outer loop
   vertex 0.05490392684936524 0.0490245475769043 0.0
   vertex 0.0546193962097168 0.04808658218383789 0.002
   vertex 0.05490392684936524 0.0490245475769043 0.002
  endloop
 endfacet
 facet normal -0.9569398164749146 0.29028651118278503 0.0
  outer loop
   vertex 0.05490392684936524 0.0490245475769043 0.0
   vertex 0.0546193962097168 0.04808658218383789 0.0
   vertex 0.0546193962097168 0.04808658218383789 0.002
  endloop
 endfacet
 facet normal -0.9951847195625305 0.09801660478115082 0.0
  outer loop
   vertex 0.055 0.05 0.0
   vertex 0.05490392684936524 0.0490245475769043 0.002
   vertex 0.055 0.05 0.002
  endloop
 endfacet
 facet normal -0.9951847195625305 0.09801660478115082 0.0
  outer loop
   vertex 0.055 0.05 0.0
   vertex 0.05490392684936524 0.0490245475769043 0.0
   vertex 0.05490392684936524 0.0490245475769043 0.002
  endloop
 endfacet
endsolid patch_3_0
solid patch_4_0
 facet normal -1.0 0.0 0.0
  outer loop
   vertex 0.0 0.1 0.0
   vertex 0.0 0.0 0.0
   vertex 0.0 0.1 0.002
  endloop
 endfacet
 facet normal -1.0 -0.0 0.0
  outer loop
   vertex 0.0 0.1 0.002
   vertex 0.0 0.0 0.0
   vertex 0.0 0.0 0.002
  endloop
 endfacet
endsolid patch_4_0
solid patch_5_0
 facet normal 1.0 0.0 0.0
  outer loop
   vertex 0.2 0.0 0.0
   vertex 0.2 0.1 0.0
   vertex 0.2 0.0 0.002
  endloop
 endfacet
 facet normal 1.0 -0.0 0.0
  outer loop
   vertex 0.2 0.0 0.002
   vertex 0.2 0.1 0.0
   vertex 0.2 0.1 0.002
  endloop
 endfacet
endsolid patch_5_0
solid patch_6_0
 facet normal 0.0 -1.0 0.0
  outer loop
   vertex 0.0 0.0 0.0
   vertex 0.2 0.0 0.002
   vertex 0.0 0.0 0.002
  endloop
 endfacet
 facet normal 0.0 -1.0 0.0
  outer loop
   vertex 0.0 0.0 0.0
   vertex 0.2 0.0 0.0
   vertex 0.2 0.0 0.002
  endloop
 endfacet
endsolid patch_6_0
solid patch_7_0
 facet normal 0.0 1.0 -0.0
  outer loop
   vertex 0.2 0.1 0.0
   vertex 0.0 0.1 0.002
   vertex 0.2 0.1 0.002
  endloop
 endfacet
 facet normal 0.0 1.0 0.0
  outer loop
   vertex 0.2 0.1 0.0
   vertex 0.0 0.1 0.0
   vertex 0.0 0.1 0.002
  endloop
 endfacet
endsolid patch_7_0
