solid MeshRefinement001
 facet normal 0.9987568855285645 0.04984772950410843 -0.0
  outer loop
   vertex 0.07 0.05 -0.002
   vertex 0.06990061187744141 0.05199135589599609 -0.002
   vertex 0.07 0.05 0.004
  endloop
 endfacet
 facet normal 0.9987568855285645 0.04984772950410843 0.0
  outer loop
   vertex 0.07 0.05 0.004
   vertex 0.06990061187744141 0.05199135589599609 -0.002
   vertex 0.06990061187744141 0.05199135589599609 0.004
  endloop
 endfacet
 facet normal 0.9888308644294739 0.14904190599918365 0.0
  outer loop
   vertex 0.06990061187744141 0.05199135589599609 0.004
   vertex 0.06960344696044922 0.05396292114257813 -0.002
   vertex 0.06960344696044922 0.05396292114257813 0.004
  endloop
 endfacet
 facet normal 0.9690778851509094 0.24675507843494415 0.0
  outer loop
   vertex 0.06960344696044922 0.05396292114257813 0.004
   vertex 0.06960344696044922 0.05396292114257813 -0.002
   vertex 0.06911145782470703 0.055895103454589846 0.004
  endloop
 endfacet
 facet normal 0.9888308644294739 0.14904190599918365 -0.0
  outer loop
   vertex 0.06990061187744141 0.05199135589599609 -0.002
   vertex 0.06960344696044922 0.05396292114257813 -0.002
   vertex 0.06990061187744141 0.05199135589599609 0.004
  endloop
 endfacet
 facet normal 0.9690778851509094 0.24675507843494415 0.0
  outer loop
   vertex 0.06960344696044922 0.05396292114257813 -0.002
   vertex 0.06911145782470703 0.055895103454589846 -0.002
   vertex 0.06911145782470703 0.055895103454589846 0.004
  endloop
 endfacet
 facet normal 0.9396927952766418 0.34201955795288086 0.0
  outer loop
   vertex 0.06911145782470703 0.055895103454589846 0.004
   vertex 0.06842952728271484 0.05776869583129883 -0.002
   vertex 0.06842952728271484 0.05776869583129883 0.004
  endloop
 endfacet
 facet normal 0.9009679555892944 0.4338856339454651 0.0
  outer loop
   vertex 0.06842952728271484 0.05776869583129883 0.004
   vertex 0.06842952728271484 0.05776869583129883 -0.002
   vertex 0.06756443023681641 0.059565078735351565 0.004
  endloop
 endfacet
 facet normal 0.9396927952766418 0.34201955795288086 -0.0
  outer loop
   vertex 0.06911145782470703 0.055895103454589846 -0.002
   vertex 0.06842952728271484 0.05776869583129883 -0.002
   vertex 0.06911145782470703 0.055895103454589846 0.004
  endloop
 endfacet
 facet normal 0.9009679555892944 0.4338856339454651 0.0
  outer loop
   vertex 0.06842952728271484 0.05776869583129883 -0.002
   vertex 0.06756443023681641 0.059565078735351565 -0.002
   vertex 0.06756443023681641 0.059565078735351565 0.004
  endloop
 endfacet
 facet normal 0.8532903790473938 0.5214359760284424 0.0
  outer loop
   vertex 0.06756443023681641 0.059565078735351565 0.004
   vertex 0.06652477264404297 0.061266399383544924 -0.002
   vertex 0.06652477264404297 0.061266399383544924 0.004
  endloop
 endfacet
 facet normal 0.8532903790473938 0.5214359760284424 -0.0
  outer loop
   vertex 0.06756443023681641 0.059565078735351565 -0.002
   vertex 0.06652477264404297 0.061266399383544924 -0.002
   vertex 0.06756443023681641 0.059565078735351565 0.004
  endloop
 endfacet
 facet normal 0.7971341609954834 0.6038022637367249 0.0
  outer loop
   vertex 0.06652477264404297 0.061266399383544924 0.004
   vertex 0.06532089233398437 0.06285575103759766 -0.002
   vertex 0.06532089233398437 0.06285575103759766 0.004
  endloop
 endfacet
 facet normal 0.7971341609954834 0.6038022637367249 -0.0
  outer loop
   vertex 0.06652477264404297 0.061266399383544924 -0.002
   vertex 0.06532089233398437 0.06285575103759766 -0.002
   vertex 0.06652477264404297 0.061266399383544924 0.004
  endloop
 endfacet
 facet normal 0.7330514192581177 0.6801732182502747 0.0
  outer loop
   vertex 0.06532089233398437 0.06285575103759766 0.004
   vertex 0.06396473693847657 0.06431733703613281 -0.002
   vertex 0.06396473693847657 0.06431733703613281 0.004
  endloop
 endfacet
 facet normal 0.7330514192581177 0.6801732182502747 -0.0
  outer loop
   vertex 0.06532089233398437 0.06285575103759766 -0.002
   vertex 0.06396473693847657 0.06431733703613281 -0.002
   vertex 0.06532089233398437 0.06285575103759766 0.004
  endloop
 endfacet
 facet normal 0.6616848111152649 0.749782145023346 0.0
  outer loop
   vertex 0.06396473693847657 0.06431733703613281 0.004
   vertex 0.06246979522705078 0.06563662719726562 -0.002
   vertex 0.06246979522705078 0.06563662719726562 0.004
  endloop
 endfacet
 facet normal 0.6616848111152649 0.749782145023346 -0.0
  outer loop
   vertex 0.06396473693847657 0.06431733703613281 -0.002
   vertex 0.06246979522705078 0.06563662719726562 -0.002
   vertex 0.06396473693847657 0.06431733703613281 0.004
  endloop
 endfacet
 facet normal 0.5837458372116089 0.8119364976882935 0.0
  outer loop
   vertex 0.06246979522705078 0.06563662719726562 0.004
   vertex 0.06085092544555664 0.06680052185058594 -0.002
   vertex 0.06085092544555664 0.06680052185058594 0.004
  endloop
 endfacet
 facet normal 0.5837458372116089 0.8119364976882935 -0.0
  outer loop
   vertex 0.06246979522705078 0.06563662719726562 -0.002
   vertex 0.06085092544555664 0.06680052185058594 -0.002
   vertex 0.06246979522705078 0.06563662719726562 0.004
  endloop
 endfacet
 facet normal 0.5000001788139343 0.8660253286361694 0.0
  outer loop
   vertex 0.06085092544555664 0.06680052185058594 0.004
   vertex 0.059124214172363285 0.06779743957519531 -0.002
   vertex 0.059124214172363285 0.06779743957519531 0.004
  endloop
 endfacet
 facet normal 0.5000001788139343 0.8660253286361694 -0.0
  outer loop
   vertex 0.06085092544555664 0.06680052185058594 -0.002
   vertex 0.059124214172363285 0.06779743957519531 -0.002
   vertex 0.06085092544555664 0.06680052185058594 0.004
  endloop
 endfacet
 facet normal 0.4112863838672638 0.9115061163902283 0.0
  outer loop
   vertex 0.059124214172363285 0.06779743957519531 0.004
   vertex 0.05730681991577149 0.06861747741699219 -0.002
   vertex 0.05730681991577149 0.06861747741699219 0.004
  endloop
 endfacet
 facet normal 0.31848660111427307 0.9479273557662964 0.0
  outer loop
   vertex 0.05730681991577149 0.06861747741699219 0.004
   vertex 0.05730681991577149 0.06861747741699219 -0.002
   vertex 0.055416809082031254 0.06925248718261719 0.004
  endloop
 endfacet
 facet normal 0.4112863838672638 0.9115061163902283 -0.0
  outer loop
   vertex 0.059124214172363285 0.06779743957519531 -0.002
   vertex 0.05730681991577149 0.06861747741699219 -0.002
   vertex 0.059124214172363285 0.06779743957519531 0.004
  endloop
 endfacet
 facet normal 0.22251848876476288 0.9749284386634827 0.0
  outer loop
   vertex 0.055416809082031254 0.06925248718261719 0.004
   vertex 0.055416809082031254 0.06925248718261719 -0.002
   vertex 0.053472965240478516 0.06969615173339844 0.004
  endloop
 endfacet
 facet normal 0.31848660111427307 0.9479273557662964 0.0
  outer loop
   vertex 0.05730681991577149 0.06861747741699219 -0.002
   vertex 0.055416809082031254 0.06925248718261719 -0.002
   vertex 0.055416809082031254 0.06925248718261719 0.004
  endloop
 endfacet
 facet normal 0.22251848876476288 0.9749284386634827 0.0
  outer loop
   vertex 0.055416809082031254 0.06925248718261719 -0.002
   vertex 0.053472965240478516 0.06969615173339844 -0.002
   vertex 0.053472965240478516 0.06969615173339844 0.004
  endloop
 endfacet
 facet normal 0.12434554845094681 0.9922389388084412 0.0
  outer loop
   vertex 0.053472965240478516 0.06969615173339844 0.004
   vertex 0.05149460220336914 0.06994407653808594 -0.002
   vertex 0.05149460220336914 0.06994407653808594 0.004
  endloop
 endfacet
 facet normal 0.12434554845094681 0.9922389388084412 -0.0
  outer loop
   vertex 0.053472965240478516 0.06969615173339844 -0.002
   vertex 0.05149460220336914 0.06994407653808594 -0.002
   vertex 0.053472965240478516 0.06969615173339844 0.004
  endloop
 endfacet
 facet normal 0.02492957003414631 0.9996891617774963 0.0
  outer loop
   vertex 0.05149460220336914 0.06994407653808594 0.004
   vertex 0.04950138473510742 0.06999378204345703 -0.002
   vertex 0.04950138473510742 0.06999378204345703 0.004
  endloop
 endfacet
 facet normal 0.02492957003414631 0.9996891617774963 -0.0
  outer loop
   vertex 0.05149460220336914 0.06994407653808594 -0.002
   vertex 0.04950138473510742 0.06999378204345703 -0.002
   vertex 0.05149460220336914 0.06994407653808594 0.004
  endloop
 endfacet
 facet normal -0.07472763955593109 0.9972039461135864 0.0
  outer loop
   vertex 0.04950138473510742 0.06999378204345703 0.004
   vertex 0.04751312637329102 0.06984478759765625 -0.002
   vertex 0.04751312637329102 0.06984478759765625 0.004
  endloop
 endfacet
 facet normal -0.07472763955593109 0.9972039461135864 0.0
  outer loop
   vertex 0.04950138473510742 0.06999378204345703 -0.002
   vertex 0.04751312637329102 0.06984478759765625 -0.002
   vertex 0.04950138473510742 0.06999378204345703 0.004
  endloop
 endfacet
 facet normal -0.17364977300167084 0.9848074913024902 0.0
  outer loop
   vertex 0.04751312637329102 0.06984478759765625 -0.002
   vertex 0.04554957962036133 0.0694985580444336 -0.002
   vertex 0.04751312637329102 0.06984478759765625 0.004
  endloop
 endfacet
 facet normal -0.17364977300167084 0.9848074913024902 0.0
  outer loop
   vertex 0.04751312637329102 0.06984478759765625 0.004
   vertex 0.04554957962036133 0.0694985580444336 -0.002
   vertex 0.04554957962036133 0.0694985580444336 0.004
  endloop
 endfacet
 facet normal -0.27083951234817505 0.9626244306564331 0.0
  outer loop
   vertex 0.04554957962036133 0.0694985580444336 0.004
   vertex 0.04554957962036133 0.0694985580444336 -0.002
   vertex 0.04363026809692383 0.06895854949951172 0.004
  endloop
 endfacet
 facet normal -0.27083951234817505 0.9626244306564331 0.0
  outer loop
   vertex 0.04554957962036133 0.0694985580444336 -0.002
   vertex 0.04363026809692383 0.06895854949951172 -0.002
   vertex 0.04363026809692383 0.06895854949951172 0.004
  endloop
 endfacet
 facet normal -0.36534157395362854 0.9308735132217407 0.0
  outer loop
   vertex 0.04363026809692383 0.06895854949951172 0.004
   vertex 0.04363026809692383 0.06895854949951172 -0.002
   vertex 0.04177425765991211 0.06823011779785157 0.004
  endloop
 endfacet
 facet normal -0.36534157395362854 0.9308735132217407 0.0
  outer loop
   vertex 0.04363026809692383 0.06895854949951172 -0.002
   vertex 0.04177425765991211 0.06823011779785157 -0.002
   vertex 0.04177425765991211 0.06823011779785157 0.004
  endloop
 endfacet
 facet normal -0.4562098979949951 0.889872133731842 0.0
  outer loop
   vertex 0.04177425765991211 0.06823011779785157 0.004
   vertex 0.04177425765991211 0.06823011779785157 -0.002
   vertex 0.04 0.06732051086425782 0.004
  endloop
 endfacet
 facet normal -0.4562098979949951 0.889872133731842 0.0
  outer loop
   vertex 0.04177425765991211 0.06823011779785157 -0.002
   vertex 0.04 0.06732051086425782 -0.002
   vertex 0.04 0.06732051086425782 0.004
  endloop
 endfacet
 facet normal -0.5425466299057007 0.8400256633758545 0.0
  outer loop
   vertex 0.04 0.06732051086425782 -0.002
   vertex 0.038325126647949216 0.06623876190185547 -0.002
   vertex 0.04 0.06732051086425782 0.004
  endloop
 endfacet
 facet normal -0.5425466299057007 0.8400256633758545 0.0
  outer loop
   vertex 0.04 0.06732051086425782 0.004
   vertex 0.038325126647949216 0.06623876190185547 -0.002
   vertex 0.038325126647949216 0.06623876190185547 0.004
  endloop
 endfacet
 facet normal -0.6234917640686035 0.7818298935890198 0.0
  outer loop
   vertex 0.038325126647949216 0.06623876190185547 0.004
   vertex 0.038325126647949216 0.06623876190185547 -0.002
   vertex 0.03676628494262695 0.06499562072753906 0.004
  endloop
 endfacet
 facet normal -0.6234917640686035 0.7818298935890198 0.0
  outer loop
   vertex 0.038325126647949216 0.06623876190185547 -0.002
   vertex 0.03676628494262695 0.06499562072753906 -0.002
   vertex 0.03676628494262695 0.06499562072753906 0.004
  endloop
 endfacet
 facet normal -0.6982355713844299 0.7158680558204651 0.0
  outer loop
   vertex 0.03676628494262695 0.06499562072753906 0.004
   vertex 0.03676628494262695 0.06499562072753906 -0.002
   vertex 0.035338962554931644 0.06360345458984375 0.004
  endloop
 endfacet
 facet normal -0.766044557094574 0.642787516117096 0.0
  outer loop
   vertex 0.035338962554931644 0.06360345458984375 0.004
   vertex 0.035338962554931644 0.06360345458984375 -0.002
   vertex 0.03405735015869141 0.062076087951660155 0.004
  endloop
 endfacet
 facet normal -0.6982355713844299 0.7158680558204651 0.0
  outer loop
   vertex 0.03676628494262695 0.06499562072753906 -0.002
   vertex 0.035338962554931644 0.06360345458984375 -0.002
   vertex 0.035338962554931644 0.06360345458984375 0.004
  endloop
 endfacet
 facet normal -0.766044557094574 0.642787516117096 0.0
  outer loop
   vertex 0.035338962554931644 0.06360345458984375 -0.002
   vertex 0.03405735015869141 0.062076087951660155 -0.002
   vertex 0.03405735015869141 0.062076087951660155 0.004
  endloop
 endfacet
 facet normal -0.8262385129928589 0.5633203983306885 0.0
  outer loop
   vertex 0.03405735015869141 0.062076087951660155 0.004
   vertex 0.032934181213378905 0.06042870330810547 -0.002
   vertex 0.032934181213378905 0.06042870330810547 0.004
  endloop
 endfacet
 facet normal -0.8262385129928589 0.5633203983306885 0.0
  outer loop
   vertex 0.03405735015869141 0.062076087951660155 -0.002
   vertex 0.032934181213378905 0.06042870330810547 -0.002
   vertex 0.03405735015869141 0.062076087951660155 0.004
  endloop
 endfacet
 facet normal -0.8782220482826233 0.47825315594673157 0.0
  outer loop
   vertex 0.032934181213378905 0.06042870330810547 0.004
   vertex 0.03198062324523926 0.05867767333984375 -0.002
   vertex 0.03198062324523926 0.05867767333984375 0.004
  endloop
 endfacet
 facet normal -0.8782220482826233 0.47825315594673157 0.0
  outer loop
   vertex 0.032934181213378905 0.06042870330810547 -0.002
   vertex 0.03198062324523926 0.05867767333984375 -0.002
   vertex 0.032934181213378905 0.06042870330810547 0.004
  endloop
 endfacet
 facet normal -0.9214759469032288 0.38843536376953125 0.0
  outer loop
   vertex 0.03198062324523926 0.05867767333984375 0.004
   vertex 0.031206148147583008 0.05684040451049805 -0.002
   vertex 0.031206148147583008 0.05684040451049805 0.004
  endloop
 endfacet
 facet normal -0.9555728435516357 0.29475510120391846 0.0
  outer loop
   vertex 0.031206148147583008 0.05684040451049805 0.004
   vertex 0.031206148147583008 0.05684040451049805 -0.002
   vertex 0.03061845397949219 0.05493514633178711 0.004
  endloop
 endfacet
 facet normal -0.9214759469032288 0.38843536376953125 0.0
  outer loop
   vertex 0.03198062324523926 0.05867767333984375 -0.002
   vertex 0.031206148147583008 0.05684040451049805 -0.002
   vertex 0.03198062324523926 0.05867767333984375 0.004
  endloop
 endfacet
 facet normal -0.9801723957061768 0.1981465071439743 0.0
  outer loop
   vertex 0.03061845397949219 0.05493514633178711 0.004
   vertex 0.03061845397949219 0.05493514633178711 -0.002
   vertex 0.0302233829498291 0.0529808464050293 0.004
  endloop
 endfacet
 facet normal -0.9555728435516357 0.29475510120391846 0.0
  outer loop
   vertex 0.031206148147583008 0.05684040451049805 -0.002
   vertex 0.03061845397949219 0.05493514633178711 -0.002
   vertex 0.03061845397949219 0.05493514633178711 0.004
  endloop
 endfacet
 facet normal -0.9950308203697205 0.09956717491149902 0.0
  outer loop
   vertex 0.0302233829498291 0.0529808464050293 0.004
   vertex 0.0302233829498291 0.0529808464050293 -0.002
   vertex 0.030024862289428713 0.050996917724609375 0.004
  endloop
 endfacet
 facet normal -0.9801723957061768 0.1981465071439743 0.0
  outer loop
   vertex 0.03061845397949219 0.05493514633178711 -0.002
   vertex 0.0302233829498291 0.0529808464050293 -0.002
   vertex 0.0302233829498291 0.0529808464050293 0.004
  endloop
 endfacet
 facet normal -0.9950308203697205 0.09956717491149902 0.0
  outer loop
   vertex 0.0302233829498291 0.0529808464050293 -0.002
   vertex 0.030024862289428713 0.050996917724609375 -0.002
   vertex 0.030024862289428713 0.050996917724609375 0.004
  endloop
 endfacet
 facet normal -1.0 -0.0 0.0
  outer loop
   vertex 0.030024862289428713 0.050996917724609375 0.004
   vertex 0.030024862289428713 0.04900308227539062 -0.002
   vertex 0.030024862289428713 0.04900308227539062 0.004
  endloop
 endfacet
 facet normal -1.0 0.0 0.0
  outer loop
   vertex 0.030024862289428713 0.050996917724609375 -0.002
   vertex 0.030024862289428713 0.04900308227539062 -0.002
   vertex 0.030024862289428713 0.050996917724609375 0.004
  endloop
 endfacet
 facet normal -0.9950308203697205 -0.09956717491149902 0.0
  outer loop
   vertex 0.030024862289428713 0.04900308227539062 0.004
   vertex 0.0302233829498291 0.047019153594970706 -0.002
   vertex 0.0302233829498291 0.047019153594970706 0.004
  endloop
 endfacet
 facet normal -0.9950308203697205 -0.09956717491149902 0.0
  outer loop
   vertex 0.030024862289428713 0.04900308227539062 -0.002
   vertex 0.0302233829498291 0.047019153594970706 -0.002
   vertex 0.030024862289428713 0.04900308227539062 0.004
  endloop
 endfacet
 facet normal -0.9801723957061768 -0.1981465071439743 0.0
  outer loop
   vertex 0.0302233829498291 0.047019153594970706 0.004
   vertex 0.03061845397949219 0.04506485366821289 -0.002
   vertex 0.03061845397949219 0.04506485366821289 0.004
  endloop
 endfacet
 facet normal -0.9801723957061768 -0.1981465071439743 0.0
  outer loop
   vertex 0.0302233829498291 0.047019153594970706 -0.002
   vertex 0.03061845397949219 0.04506485366821289 -0.002
   vertex 0.0302233829498291 0.047019153594970706 0.004
  endloop
 endfacet
 facet normal -0.9555728435516357 -0.29475510120391846 0.0
  outer loop
   vertex 0.03061845397949219 0.04506485366821289 0.004
   vertex 0.031206148147583008 0.043159595489501955 -0.002
   vertex 0.031206148147583008 0.043159595489501955 0.004
  endloop
 endfacet
 facet normal -0.9555728435516357 -0.29475510120391846 0.0
  outer loop
   vertex 0.03061845397949219 0.04506485366821289 -0.002
   vertex 0.031206148147583008 0.043159595489501955 -0.002
   vertex 0.03061845397949219 0.04506485366821289 0.004
  endloop
 endfacet
 facet normal -0.9214759469032288 -0.38843536376953125 0.0
  outer loop
   vertex 0.031206148147583008 0.043159595489501955 0.004
   vertex 0.03198062324523926 0.04132232666015625 -0.002
   vertex 0.03198062324523926 0.04132232666015625 0.004
  endloop
 endfacet
 facet normal -0.8782220482826233 -0.47825315594673157 -0.0
  outer loop
   vertex 0.03198062324523926 0.04132232666015625 0.004
   vertex 0.03198062324523926 0.04132232666015625 -0.002
   vertex 0.032934181213378905 0.039571296691894534 0.004
  endloop
 endfacet
 facet normal -0.9214759469032288 -0.38843536376953125 0.0
  outer loop
   vertex 0.031206148147583008 0.043159595489501955 -0.002
   vertex 0.03198062324523926 0.04132232666015625 -0.002
   vertex 0.031206148147583008 0.043159595489501955 0.004
  endloop
 endfacet
 facet normal -0.8782220482826233 -0.47825315594673157 0.0
  outer loop
   vertex 0.03198062324523926 0.04132232666015625 -0.002
   vertex 0.032934181213378905 0.039571296691894534 -0.002
   vertex 0.032934181213378905 0.039571296691894534 0.004
  endloop
 endfacet
 facet normal -0.8262385129928589 -0.5633203983306885 0.0
  outer loop
   vertex 0.032934181213378905 0.039571296691894534 0.004
   vertex 0.03405735015869141 0.03792391204833984 -0.002
   vertex 0.03405735015869141 0.03792391204833984 0.004
  endloop
 endfacet
 facet normal -0.8262385129928589 -0.5633203983306885 0.0
  outer loop
   vertex 0.032934181213378905 0.039571296691894534 -0.002
   vertex 0.03405735015869141 0.03792391204833984 -0.002
   vertex 0.032934181213378905 0.039571296691894534 0.004
  endloop
 endfacet
 facet normal -0.766044557094574 -0.642787516117096 0.0
  outer loop
   vertex 0.03405735015869141 0.03792391204833984 0.004
   vertex 0.035338962554931644 0.03639654541015625 -0.002
   vertex 0.035338962554931644 0.03639654541015625 0.004
  endloop
 endfacet
 facet normal -0.766044557094574 -0.642787516117096 0.0
  outer loop
   vertex 0.03405735015869141 0.03792391204833984 -0.002
   vertex 0.035338962554931644 0.03639654541015625 -0.002
   vertex 0.03405735015869141 0.03792391204833984 0.004
  endloop
 endfacet
 facet normal -0.6982365250587463 -0.7158670425415039 0.0
  outer loop
   vertex 0.035338962554931644 0.03639654541015625 0.004
   vertex 0.03676628494262695 0.03500437545776367 -0.002
   vertex 0.03676628494262695 0.03500437545776367 0.004
  endloop
 endfacet
 facet normal -0.6982365250587463 -0.7158670425415039 0.0
  outer loop
   vertex 0.035338962554931644 0.03639654541015625 -0.002
   vertex 0.03676628494262695 0.03500437545776367 -0.002
   vertex 0.035338962554931644 0.03639654541015625 0.004
  endloop
 endfacet
 facet normal -0.623490571975708 -0.7818308472633362 0.0
  outer loop
   vertex 0.03676628494262695 0.03500437545776367 0.004
   vertex 0.038325126647949216 0.03376123809814453 -0.002
   vertex 0.038325126647949216 0.03376123809814453 0.004
  endloop
 endfacet
 facet normal -0.623490571975708 -0.7818308472633362 0.0
  outer loop
   vertex 0.03676628494262695 0.03500437545776367 -0.002
   vertex 0.038325126647949216 0.03376123809814453 -0.002
   vertex 0.03676628494262695 0.03500437545776367 0.004
  endloop
 endfacet
 facet normal -0.5425452589988708 -0.8400265574455261 0.0
  outer loop
   vertex 0.038325126647949216 0.03376123809814453 0.004
   vertex 0.04 0.032679492950439454 -0.002
   vertex 0.04 0.032679492950439454 0.004
  endloop
 endfacet
 facet normal -0.4562113881111145 -0.88987135887146 -0.0
  outer loop
   vertex 0.04 0.032679492950439454 0.004
   vertex 0.04 0.032679492950439454 -0.002
   vertex 0.04177425765991211 0.031769882202148436 0.004
  endloop
 endfacet
 facet normal -0.5425452589988708 -0.8400265574455261 0.0
  outer loop
   vertex 0.038325126647949216 0.03376123809814453 -0.002
   vertex 0.04 0.032679492950439454 -0.002
   vertex 0.038325126647949216 0.03376123809814453 0.004
  endloop
 endfacet
 facet normal -0.4562113881111145 -0.88987135887146 0.0
  outer loop
   vertex 0.04 0.032679492950439454 -0.002
   vertex 0.04177425765991211 0.031769882202148436 -0.002
   vertex 0.04177425765991211 0.031769882202148436 0.004
  endloop
 endfacet
 facet normal -0.3653407394886017 -0.9308738112449646 0.0
  outer loop
   vertex 0.04177425765991211 0.031769882202148436 -0.002
   vertex 0.04363026809692383 0.031041452407836914 -0.002
   vertex 0.04177425765991211 0.031769882202148436 0.004
  endloop
 endfacet
 facet normal -0.3653407394886017 -0.9308738112449646 0.0
  outer loop
   vertex 0.04177425765991211 0.031769882202148436 0.004
   vertex 0.04363026809692383 0.031041452407836914 -0.002
   vertex 0.04363026809692383 0.031041452407836914 0.004
  endloop
 endfacet
 facet normal -0.2708404064178467 -0.962624192237854 0.0
  outer loop
   vertex 0.04363026809692383 0.031041452407836914 -0.002
   vertex 0.04554957962036133 0.030501441955566408 -0.002
   vertex 0.04363026809692383 0.031041452407836914 0.004
  endloop
 endfacet
 facet normal -0.2708404064178467 -0.962624192237854 0.0
  outer loop
   vertex 0.04363026809692383 0.031041452407836914 0.004
   vertex 0.04554957962036133 0.030501441955566408 -0.002
   vertex 0.04554957962036133 0.030501441955566408 0.004
  endloop
 endfacet
 facet normal -0.1736479252576828 -0.9848077893257141 0.0
  outer loop
   vertex 0.04554957962036133 0.030501441955566408 -0.002
   vertex 0.04751312637329102 0.030155216217041016 -0.002
   vertex 0.04554957962036133 0.030501441955566408 0.004
  endloop
 endfacet
 facet normal -0.1736479252576828 -0.9848077893257141 0.0
  outer loop
   vertex 0.04554957962036133 0.030501441955566408 0.004
   vertex 0.04751312637329102 0.030155216217041016 -0.002
   vertex 0.04751312637329102 0.030155216217041016 0.004
  endloop
 endfacet
 facet normal -0.07473049312829971 -0.9972037672996521 -0.0
  outer loop
   vertex 0.04751312637329102 0.030155216217041016 0.004
   vertex 0.04751312637329102 0.030155216217041016 -0.002
   vertex 0.04950138473510742 0.030006216049194335 0.004
  endloop
 endfacet
 facet normal -0.07473049312829971 -0.9972037672996521 0.0
  outer loop
   vertex 0.04751312637329102 0.030155216217041016 -0.002
   vertex 0.04950138473510742 0.030006216049194335 -0.002
   vertex 0.04950138473510742 0.030006216049194335 0.004
  endloop
 endfacet
 facet normal 0.024930527433753014 -0.9996891617774963 0.0
  outer loop
   vertex 0.04950138473510742 0.030006216049194335 -0.002
   vertex 0.05149460220336914 0.030055923461914064 -0.002
   vertex 0.04950138473510742 0.030006216049194335 0.004
  endloop
 endfacet
 facet normal 0.024930527433753014 -0.9996891617774963 0.0
  outer loop
   vertex 0.04950138473510742 0.030006216049194335 0.004
   vertex 0.05149460220336914 0.030055923461914064 -0.002
   vertex 0.05149460220336914 0.030055923461914064 0.004
  endloop
 endfacet
 facet normal 0.12434367090463638 -0.9922391772270203 0.0
  outer loop
   vertex 0.05149460220336914 0.030055923461914064 -0.002
   vertex 0.053472965240478516 0.0303038444519043 -0.002
   vertex 0.05149460220336914 0.030055923461914064 0.004
  endloop
 endfacet
 facet normal 0.12434367090463638 -0.9922391772270203 0.0
  outer loop
   vertex 0.05149460220336914 0.030055923461914064 0.004
   vertex 0.053472965240478516 0.0303038444519043 -0.002
   vertex 0.053472965240478516 0.0303038444519043 0.004
  endloop
 endfacet
 facet normal 0.22252121567726135 -0.9749278426170349 0.0
  outer loop
   vertex 0.053472965240478516 0.0303038444519043 -0.002
   vertex 0.055416809082031254 0.030747514724731445 -0.002
   vertex 0.053472965240478516 0.0303038444519043 0.004
  endloop
 endfacet
 facet normal 0.22252121567726135 -0.9749278426170349 0.0
  outer loop
   vertex 0.053472965240478516 0.0303038444519043 0.004
   vertex 0.055416809082031254 0.030747514724731445 -0.002
   vertex 0.055416809082031254 0.030747514724731445 0.004
  endloop
 endfacet
 facet normal 0.31848660111427307 -0.9479273557662964 0.0
  outer loop
   vertex 0.055416809082031254 0.030747514724731445 0.004
   vertex 0.055416809082031254 0.030747514724731445 -0.002
   vertex 0.05730681991577149 0.031382524490356445 0.004
  endloop
 endfacet
 facet normal 0.31848660111427307 -0.9479273557662964 0.0
  outer loop
   vertex 0.055416809082031254 0.030747514724731445 -0.002
   vertex 0.05730681991577149 0.031382524490356445 -0.002
   vertex 0.05730681991577149 0.031382524490356445 0.004
  endloop
 endfacet
 facet normal 0.41128718852996826 -0.9115057587623596 0.0
  outer loop
   vertex 0.05730681991577149 0.031382524490356445 -0.002
   vertex 0.059124214172363285 0.032202564239501956 -0.002
   vertex 0.05730681991577149 0.031382524490356445 0.004
  endloop
 endfacet
 facet normal 0.41128718852996826 -0.9115057587623596 0.0
  outer loop
   vertex 0.05730681991577149 0.031382524490356445 0.004
   vertex 0.059124214172363285 0.032202564239501956 -0.002
   vertex 0.059124214172363285 0.032202564239501956 0.004
  endloop
 endfacet
 facet normal 0.5000001788139343 -0.8660253286361694 0.0
  outer loop
   vertex 0.059124214172363285 0.032202564239501956 0.004
   vertex 0.059124214172363285 0.032202564239501956 -0.002
   vertex 0.06085092544555664 0.03319948196411133 0.004
  endloop
 endfacet
 facet normal 0.5000001788139343 -0.8660253286361694 0.0
  outer loop
   vertex 0.059124214172363285 0.032202564239501956 -0.002
   vertex 0.06085092544555664 0.03319948196411133 -0.002
   vertex 0.06085092544555664 0.03319948196411133 0.004
  endloop
 endfacet
 facet normal 0.5837433338165283 -0.8119382858276367 0.0
  outer loop
   vertex 0.06085092544555664 0.03319948196411133 -0.002
   vertex 0.06246979522705078 0.03436336898803711 -0.002
   vertex 0.06085092544555664 0.03319948196411133 0.004
  endloop
 endfacet
 facet normal 0.5837433338165283 -0.8119382858276367 0.0
  outer loop
   vertex 0.06085092544555664 0.03319948196411133 0.004
   vertex 0.06246979522705078 0.03436336898803711 -0.002
   vertex 0.06246979522705078 0.03436336898803711 0.004
  endloop
 endfacet
 facet normal 0.6616858839988708 -0.7497811913490295 0.0
  outer loop
   vertex 0.06246979522705078 0.03436336898803711 0.004
   vertex 0.06246979522705078 0.03436336898803711 -0.002
   vertex 0.06396473693847657 0.03568266296386719 0.004
  endloop
 endfacet
 facet normal 0.6616858839988708 -0.7497811913490295 0.0
  outer loop
   vertex 0.06246979522705078 0.03436336898803711 -0.002
   vertex 0.06396473693847657 0.03568266296386719 -0.002
   vertex 0.06396473693847657 0.03568266296386719 0.004
  endloop
 endfacet
 facet normal 0.7330514192581177 -0.6801732182502747 0.0
  outer loop
   vertex 0.06396473693847657 0.03568266296386719 -0.002
   vertex 0.06532089233398437 0.03714424896240234 -0.002
   vertex 0.06396473693847657 0.03568266296386719 0.004
  endloop
 endfacet
 facet normal 0.7330514192581177 -0.6801732182502747 0.0
  outer loop
   vertex 0.06396473693847657 0.03568266296386719 0.004
   vertex 0.06532089233398437 0.03714424896240234 -0.002
   vertex 0.06532089233398437 0.03714424896240234 0.004
  endloop
 endfacet
 facet normal 0.7971341609954834 -0.6038022637367249 0.0
  outer loop
   vertex 0.06532089233398437 0.03714424896240234 0.004
   vertex 0.06652477264404297 0.03873360061645508 -0.002
   vertex 0.06652477264404297 0.03873360061645508 0.004
  endloop
 endfacet
 facet normal 0.7971341609954834 -0.6038022637367249 0.0
  outer loop
   vertex 0.06532089233398437 0.03714424896240234 -0.002
   vertex 0.06652477264404297 0.03873360061645508 -0.002
   vertex 0.06532089233398437 0.03714424896240234 0.004
  endloop
 endfacet
 facet normal 0.8532903790473938 -0.5214359760284424 0.0
  outer loop
   vertex 0.06652477264404297 0.03873360061645508 0.004
   vertex 0.06756443023681641 0.04043492126464844 -0.002
   vertex 0.06756443023681641 0.04043492126464844 0.004
  endloop
 endfacet
 facet normal 0.9009679555892944 -0.4338856339454651 0.0
  outer loop
   vertex 0.06756443023681641 0.04043492126464844 0.004
   vertex 0.06756443023681641 0.04043492126464844 -0.002
   vertex 0.06842952728271484 0.042231304168701175 0.004
  endloop
 endfacet
 facet normal 0.8532903790473938 -0.5214359760284424 0.0
  outer loop
   vertex 0.06652477264404297 0.03873360061645508 -0.002
   vertex 0.06756443023681641 0.04043492126464844 -0.002
   vertex 0.06652477264404297 0.03873360061645508 0.004
  endloop
 endfacet
 facet normal 0.9009679555892944 -0.4338856339454651 0.0
  outer loop
   vertex 0.06756443023681641 0.04043492126464844 -0.002
   vertex 0.06842952728271484 0.042231304168701175 -0.002
   vertex 0.06842952728271484 0.042231304168701175 0.004
  endloop
 endfacet
 facet normal 0.9396927952766418 -0.34201955795288086 0.0
  outer loop
   vertex 0.06842952728271484 0.042231304168701175 0.004
   vertex 0.06911145782470703 0.04410489654541016 -0.002
   vertex 0.06911145782470703 0.04410489654541016 0.004
  endloop
 endfacet
 facet normal 0.9396927952766418 -0.34201955795288086 0.0
  outer loop
   vertex 0.06842952728271484 0.042231304168701175 -0.002
   vertex 0.06911145782470703 0.04410489654541016 -0.002
   vertex 0.06842952728271484 0.042231304168701175 0.004
  endloop
 endfacet
 facet normal 0.9690778851509094 -0.24675507843494415 0.0
  outer loop
   vertex 0.06911145782470703 0.04410489654541016 0.004
   vertex 0.06960344696044922 0.04603707885742188 -0.002
   vertex 0.06960344696044922 0.04603707885742188 0.004
  endloop
 endfacet
 facet normal 0.9690778851509094 -0.24675507843494415 0.0
  outer loop
   vertex 0.06911145782470703 0.04410489654541016 -0.002
   vertex 0.06960344696044922 0.04603707885742188 -0.002
   vertex 0.06911145782470703 0.04410489654541016 0.004
  endloop
 endfacet
 facet normal 0.9888308644294739 -0.14904190599918365 0.0
  outer loop
   vertex 0.06960344696044922 0.04603707885742188 0.004
   vertex 0.06990061187744141 0.048008644104003906 -0.002
   vertex 0.06990061187744141 0.048008644104003906 0.004
  endloop
 endfacet
 facet normal 0.9888308644294739 -0.14904190599918365 0.0
  outer loop
   vertex 0.06960344696044922 0.04603707885742188 -0.002
   vertex 0.06990061187744141 0.048008644104003906 -0.002
   vertex 0.06960344696044922 0.04603707885742188 0.004
  endloop
 endfacet
 facet normal 0.9987568855285645 -0.04984772950410843 0.0
  outer loop
   vertex 0.06990061187744141 0.048008644104003906 0.004
   vertex 0.07 0.05 -0.002
   vertex 0.07 0.05 0.004
  endloop
 endfacet
 facet normal 0.9987568855285645 -0.04984772950410843 0.0
  outer loop
   vertex 0.06990061187744141 0.048008644104003906 -0.002
   vertex 0.07 0.05 -0.002
   vertex 0.06990061187744141 0.048008644104003906 0.004
  endloop
 endfacet
 facet normal 0.0 0.0 -1.0
  outer loop
   vertex 0.032934181213378905 0.039571296691894534 -0.002
   vertex 0.03198062324523926 0.04132232666015625 -0.002
   vertex 0.03405735015869141 0.03792391204833984 -0.002
  endloop
 endfacet
 facet normal 0.0 0.0 -1.0
  outer loop
   vertex 0.03405735015869141 0.03792391204833984 -0.002
   vertex 0.03198062324523926 0.04132232666015625 -0.002
   vertex 0.035338962554931644 0.03639654541015625 -0.002
  endloop
 endfacet
 facet normal 0.0 0.0 -1.0
  outer loop
   vertex 0.035338962554931644 0.03639654541015625 -0.002
   vertex 0.03198062324523926 0.04132232666015625 -0.002
   vertex 0.03676628494262695 0.03500437545776367 -0.002
  endloop
 endfacet
 facet normal 0.0 0.0 -1.0
  outer loop
   vertex 0.03676628494262695 0.03500437545776367 -0.002
   vertex 0.04363026809692383 0.031041452407836914 -0.002
   vertex 0.038325126647949216 0.03376123809814453 -0.002
  endloop
 endfacet
 facet normal 0.0 0.0 -1.0
  outer loop
   vertex 0.038325126647949216 0.03376123809814453 -0.002
   vertex 0.04363026809692383 0.031041452407836914 -0.002
   vertex 0.04 0.032679492950439454 -0.002
  endloop
 endfacet
 facet normal 0.0 0.0 -1.0
  outer loop
   vertex 0.04 0.032679492950439454 -0.002
   vertex 0.04363026809692383 0.031041452407836914 -0.002
   vertex 0.04177425765991211 0.031769882202148436 -0.002
  endloop
 endfacet
 facet normal 0.0 0.0 -1.0
  outer loop
   vertex 0.03061845397949219 0.04506485366821289 -0.002
   vertex 0.0302233829498291 0.047019153594970706 -0.002
   vertex 0.031206148147583008 0.043159595489501955 -0.002
  endloop
 endfacet
 facet normal 0.0 0.0 -1.0
  outer loop
   vertex 0.04363026809692383 0.031041452407836914 -0.002
   vertex 0.04751312637329102 0.030155216217041016 -0.002
   vertex 0.04554957962036133 0.030501441955566408 -0.002
  endloop
 endfacet
 facet normal 0.0 0.0 -1.0
  outer loop
   vertex 0.030024862289428713 0.050996917724609375 -0.002
   vertex 0.0302233829498291 0.0529808464050293 -0.002
   vertex 0.030024862289428713 0.04900308227539062 -0.002
  endloop
 endfacet
 facet normal 0.0 0.0 -1.0
  outer loop
   vertex 0.030024862289428713 0.04900308227539062 -0.002
   vertex 0.0302233829498291 0.0529808464050293 -0.002
   vertex 0.0302233829498291 0.047019153594970706 -0.002
  endloop
 endfacet
 facet normal 0.0 0.0 -1.0
  outer loop
   vertex 0.04751312637329102 0.030155216217041016 -0.002
   vertex 0.05730681991577149 0.031382524490356445 -0.002
   vertex 0.04950138473510742 0.030006216049194335 -0.002
  endloop
 endfacet
 facet normal 0.0 0.0 -1.0
  outer loop
   vertex 0.04950138473510742 0.030006216049194335 -0.002
   vertex 0.05730681991577149 0.031382524490356445 -0.002
   vertex 0.05149460220336914 0.030055923461914064 -0.002
  endloop
 endfacet
 facet normal 0.0 0.0 -1.0
  outer loop
   vertex 0.05149460220336914 0.030055923461914064 -0.002
   vertex 0.05730681991577149 0.031382524490356445 -0.002
   vertex 0.053472965240478516 0.0303038444519043 -0.002
  endloop
 endfacet
 facet normal 0.0 0.0 -1.0
  outer loop
   vertex 0.053472965240478516 0.0303038444519043 -0.002
   vertex 0.05730681991577149 0.031382524490356445 -0.002
   vertex 0.055416809082031254 0.030747514724731445 -0.002
  endloop
 endfacet
 facet normal 0.0 -0.0 -1.0
  outer loop
   vertex 0.031206148147583008 0.05684040451049805 -0.002
   vertex 0.03198062324523926 0.05867767333984375 -0.002
   vertex 0.03061845397949219 0.05493514633178711 -0.002
  endloop
 endfacet
 facet normal 0.0 -0.0 -1.0
  outer loop
   vertex 0.03198062324523926 0.05867767333984375 -0.002
   vertex 0.03405735015869141 0.062076087951660155 -0.002
   vertex 0.03061845397949219 0.05493514633178711 -0.002
  endloop
 endfacet
 facet normal 0.0 -0.0 -1.0
  outer loop
   vertex 0.032934181213378905 0.06042870330810547 -0.002
   vertex 0.03405735015869141 0.062076087951660155 -0.002
   vertex 0.03198062324523926 0.05867767333984375 -0.002
  endloop
 endfacet
 facet normal 0.0 -0.0 -1.0
  outer loop
   vertex 0.03405735015869141 0.062076087951660155 -0.002
   vertex 0.03676628494262695 0.06499562072753906 -0.002
   vertex 0.03061845397949219 0.05493514633178711 -0.002
  endloop
 endfacet
 facet normal 0.0 -0.0 -1.0
  outer loop
   vertex 0.035338962554931644 0.06360345458984375 -0.002
   vertex 0.03676628494262695 0.06499562072753906 -0.002
   vertex 0.03405735015869141 0.062076087951660155 -0.002
  endloop
 endfacet
 facet normal 0.0 -0.0 -1.0
  outer loop
   vertex 0.03061845397949219 0.05493514633178711 -0.002
   vertex 0.03676628494262695 0.06499562072753906 -0.002
   vertex 0.0302233829498291 0.0529808464050293 -0.002
  endloop
 endfacet
 facet normal 0.0 0.0 -1.0
  outer loop
   vertex 0.031206148147583008 0.043159595489501955 -0.002
   vertex 0.03676628494262695 0.06499562072753906 -0.002
   vertex 0.03198062324523926 0.04132232666015625 -0.002
  endloop
 endfacet
 facet normal 0.0 0.0 -1.0
  outer loop
   vertex 0.0302233829498291 0.047019153594970706 -0.002
   vertex 0.03676628494262695 0.06499562072753906 -0.002
   vertex 0.031206148147583008 0.043159595489501955 -0.002
  endloop
 endfacet
 facet normal 0.0 0.0 -1.0
  outer loop
   vertex 0.03198062324523926 0.04132232666015625 -0.002
   vertex 0.03676628494262695 0.06499562072753906 -0.002
   vertex 0.03676628494262695 0.03500437545776367 -0.002
  endloop
 endfacet
 facet normal 0.0 0.0 -1.0
  outer loop
   vertex 0.0302233829498291 0.0529808464050293 -0.002
   vertex 0.03676628494262695 0.06499562072753906 -0.002
   vertex 0.0302233829498291 0.047019153594970706 -0.002
  endloop
 endfacet
 facet normal 0.0 0.0 -1.0
  outer loop
   vertex 0.04751312637329102 0.030155216217041016 -0.002
   vertex 0.06532089233398437 0.03714424896240234 -0.002
   vertex 0.05730681991577149 0.031382524490356445 -0.002
  endloop
 endfacet
 facet normal 0.0 0.0 -1.0
  outer loop
   vertex 0.05730681991577149 0.031382524490356445 -0.002
   vertex 0.06532089233398437 0.03714424896240234 -0.002
   vertex 0.059124214172363285 0.032202564239501956 -0.002
  endloop
 endfacet
 facet normal 0.0 0.0 -1.0
  outer loop
   vertex 0.059124214172363285 0.032202564239501956 -0.002
   vertex 0.06532089233398437 0.03714424896240234 -0.002
   vertex 0.06085092544555664 0.03319948196411133 -0.002
  endloop
 endfacet
 facet normal 0.0 0.0 -1.0
  outer loop
   vertex 0.06085092544555664 0.03319948196411133 -0.002
   vertex 0.06532089233398437 0.03714424896240234 -0.002
   vertex 0.06246979522705078 0.03436336898803711 -0.002
  endloop
 endfacet
 facet normal 0.0 0.0 -1.0
  outer loop
   vertex 0.06246979522705078 0.03436336898803711 -0.002
   vertex 0.06532089233398437 0.03714424896240234 -0.002
   vertex 0.06396473693847657 0.03568266296386719 -0.002
  endloop
 endfacet
 facet normal 0.0 -0.0 -1.0
  outer loop
   vertex 0.038325126647949216 0.06623876190185547 -0.002
   vertex 0.04 0.06732051086425782 -0.002
   vertex 0.03676628494262695 0.06499562072753906 -0.002
  endloop
 endfacet
 facet normal 0.0 0.0 -1.0
  outer loop
   vertex 0.03676628494262695 0.06499562072753906 -0.002
   vertex 0.04177425765991211 0.06823011779785157 -0.002
   vertex 0.03676628494262695 0.03500437545776367 -0.002
  endloop
 endfacet
 facet normal 0.0 -0.0 -1.0
  outer loop
   vertex 0.04 0.06732051086425782 -0.002
   vertex 0.04177425765991211 0.06823011779785157 -0.002
   vertex 0.03676628494262695 0.06499562072753906 -0.002
  endloop
 endfacet
 facet normal 0.0 0.0 -1.0
  outer loop
   vertex 0.03676628494262695 0.03500437545776367 -0.002
   vertex 0.04177425765991211 0.06823011779785157 -0.002
   vertex 0.04363026809692383 0.031041452407836914 -0.002
  endloop
 endfacet
 facet normal 0.0 0.0 -1.0
  outer loop
   vertex 0.04177425765991211 0.06823011779785157 -0.002
   vertex 0.04363026809692383 0.06895854949951172 -0.002
   vertex 0.04363026809692383 0.031041452407836914 -0.002
  endloop
 endfacet
 facet normal 0.0 0.0 -1.0
  outer loop
   vertex 0.04363026809692383 0.031041452407836914 -0.002
   vertex 0.04363026809692383 0.06895854949951172 -0.002
   vertex 0.04751312637329102 0.030155216217041016 -0.002
  endloop
 endfacet
 facet normal 0.0 0.0 -1.0
  outer loop
   vertex 0.06756443023681641 0.04043492126464844 -0.002
   vertex 0.06911145782470703 0.04410489654541016 -0.002
   vertex 0.06842952728271484 0.042231304168701175 -0.002
  endloop
 endfacet
 facet normal 0.0 0.0 -1.0
  outer loop
   vertex 0.06756443023681641 0.04043492126464844 -0.002
   vertex 0.06960344696044922 0.04603707885742188 -0.002
   vertex 0.06911145782470703 0.04410489654541016 -0.002
  endloop
 endfacet
 facet normal 0.0 0.0 -1.0
  outer loop
   vertex 0.06532089233398437 0.03714424896240234 -0.002
   vertex 0.06960344696044922 0.04603707885742188 -0.002
   vertex 0.06652477264404297 0.03873360061645508 -0.002
  endloop
 endfacet
 facet normal 0.0 0.0 -1.0
  outer loop
   vertex 0.06652477264404297 0.03873360061645508 -0.002
   vertex 0.06960344696044922 0.04603707885742188 -0.002
   vertex 0.06756443023681641 0.04043492126464844 -0.002
  endloop
 endfacet
 facet normal 0.0 -0.0 -1.0
  outer loop
   vertex 0.04751312637329102 0.06984478759765625 -0.002
   vertex 0.04950138473510742 0.06999378204345703 -0.002
   vertex 0.04554957962036133 0.0694985580444336 -0.002
  endloop
 endfacet
 facet normal 0.0 -0.0 -1.0
  outer loop
   vertex 0.04554957962036133 0.0694985580444336 -0.002
   vertex 0.04950138473510742 0.06999378204345703 -0.002
   vertex 0.04363026809692383 0.06895854949951172 -0.002
  endloop
 endfacet
 facet normal 0.0 0.0 -1.0
  outer loop
   vertex 0.06960344696044922 0.04603707885742188 -0.002
   vertex 0.07 0.05 -0.002
   vertex 0.06990061187744141 0.048008644104003906 -0.002
  endloop
 endfacet
 facet normal 0.0 0.0 -1.0
  outer loop
   vertex 0.04363026809692383 0.06895854949951172 -0.002
   vertex 0.05149460220336914 0.06994407653808594 -0.002
   vertex 0.04751312637329102 0.030155216217041016 -0.002
  endloop
 endfacet
 facet normal 0.0 -0.0 -1.0
  outer loop
   vertex 0.04950138473510742 0.06999378204345703 -0.002
   vertex 0.05149460220336914 0.06994407653808594 -0.002
   vertex 0.04363026809692383 0.06895854949951172 -0.002
  endloop
 endfacet
 facet normal 0.0 0.0 -1.0
  outer loop
   vertex 0.06960344696044922 0.04603707885742188 -0.002
   vertex 0.06990061187744141 0.05199135589599609 -0.002
   vertex 0.07 0.05 -0.002
  endloop
 endfacet
 facet normal 0.0 0.0 -1.0
  outer loop
   vertex 0.06990061187744141 0.05199135589599609 -0.002
   vertex 0.06911145782470703 0.055895103454589846 -0.002
   vertex 0.06960344696044922 0.05396292114257813 -0.002
  endloop
 endfacet
 facet normal -0.0 -0.0 -1.0
  outer loop
   vertex 0.059124214172363285 0.06779743957519531 -0.002
   vertex 0.06085092544555664 0.06680052185058594 -0.002
   vertex 0.05730681991577149 0.06861747741699219 -0.002
  endloop
 endfacet
 facet normal -0.0 -0.0 -1.0
  outer loop
   vertex 0.05730681991577149 0.06861747741699219 -0.002
   vertex 0.06085092544555664 0.06680052185058594 -0.002
   vertex 0.055416809082031254 0.06925248718261719 -0.002
  endloop
 endfacet
 facet normal -0.0 -0.0 -1.0
  outer loop
   vertex 0.055416809082031254 0.06925248718261719 -0.002
   vertex 0.06085092544555664 0.06680052185058594 -0.002
   vertex 0.053472965240478516 0.06969615173339844 -0.002
  endloop
 endfacet
 facet normal -0.0 -0.0 -1.0
  outer loop
   vertex 0.053472965240478516 0.06969615173339844 -0.002
   vertex 0.06085092544555664 0.06680052185058594 -0.002
   vertex 0.05149460220336914 0.06994407653808594 -0.002
  endloop
 endfacet
 facet normal 0.0 0.0 -1.0
  outer loop
   vertex 0.06911145782470703 0.055895103454589846 -0.002
   vertex 0.06652477264404297 0.061266399383544924 -0.002
   vertex 0.06842952728271484 0.05776869583129883 -0.002
  endloop
 endfacet
 facet normal 0.0 0.0 -1.0
  outer loop
   vertex 0.06842952728271484 0.05776869583129883 -0.002
   vertex 0.06652477264404297 0.061266399383544924 -0.002
   vertex 0.06756443023681641 0.059565078735351565 -0.002
  endloop
 endfacet
 facet normal 0.0 0.0 -1.0
  outer loop
   vertex 0.04751312637329102 0.030155216217041016 -0.002
   vertex 0.06246979522705078 0.06563662719726562 -0.002
   vertex 0.06532089233398437 0.03714424896240234 -0.002
  endloop
 endfacet
 facet normal 0.0 0.0 -1.0
  outer loop
   vertex 0.06532089233398437 0.03714424896240234 -0.002
   vertex 0.06246979522705078 0.06563662719726562 -0.002
   vertex 0.06960344696044922 0.04603707885742188 -0.002
  endloop
 endfacet
 facet normal 0.0 -0.0 -1.0
  outer loop
   vertex 0.05149460220336914 0.06994407653808594 -0.002
   vertex 0.06246979522705078 0.06563662719726562 -0.002
   vertex 0.04751312637329102 0.030155216217041016 -0.002
  endloop
 endfacet
 facet normal -0.0 -0.0 -1.0
  outer loop
   vertex 0.06085092544555664 0.06680052185058594 -0.002
   vertex 0.06246979522705078 0.06563662719726562 -0.002
   vertex 0.05149460220336914 0.06994407653808594 -0.002
  endloop
 endfacet
 facet normal 0.0 0.0 -1.0
  outer loop
   vertex 0.06652477264404297 0.061266399383544924 -0.002
   vertex 0.06396473693847657 0.06431733703613281 -0.002
   vertex 0.06532089233398437 0.06285575103759766 -0.002
  endloop
 endfacet
 facet normal 0.0 0.0 -1.0
  outer loop
   vertex 0.06960344696044922 0.04603707885742188 -0.002
   vertex 0.06396473693847657 0.06431733703613281 -0.002
   vertex 0.06990061187744141 0.05199135589599609 -0.002
  endloop
 endfacet
 facet normal 0.0 0.0 -1.0
  outer loop
   vertex 0.06990061187744141 0.05199135589599609 -0.002
   vertex 0.06396473693847657 0.06431733703613281 -0.002
   vertex 0.06911145782470703 0.055895103454589846 -0.002
  endloop
 endfacet
 facet normal 0.0 0.0 -1.0
  outer loop
   vertex 0.06911145782470703 0.055895103454589846 -0.002
   vertex 0.06396473693847657 0.06431733703613281 -0.002
   vertex 0.06652477264404297 0.061266399383544924 -0.002
  endloop
 endfacet
 facet normal 0.0 0.0 -1.0
  outer loop
   vertex 0.06246979522705078 0.06563662719726562 -0.002
   vertex 0.06396473693847657 0.06431733703613281 -0.002
   vertex 0.06960344696044922 0.04603707885742188 -0.002
  endloop
 endfacet
 facet normal 0.0 0.0 1.0
  outer loop
   vertex 0.03198062324523926 0.04132232666015625 0.004
   vertex 0.032934181213378905 0.039571296691894534 0.004
   vertex 0.03405735015869141 0.03792391204833984 0.004
  endloop
 endfacet
 facet normal 0.0 0.0 1.0
  outer loop
   vertex 0.03198062324523926 0.04132232666015625 0.004
   vertex 0.03405735015869141 0.03792391204833984 0.004
   vertex 0.035338962554931644 0.03639654541015625 0.004
  endloop
 endfacet
 facet normal 0.0 0.0 1.0
  outer loop
   vertex 0.03198062324523926 0.04132232666015625 0.004
   vertex 0.035338962554931644 0.03639654541015625 0.004
   vertex 0.03676628494262695 0.03500437545776367 0.004
  endloop
 endfacet
 facet normal 0.0 0.0 1.0
  outer loop
   vertex 0.04363026809692383 0.031041452407836914 0.004
   vertex 0.03676628494262695 0.03500437545776367 0.004
   vertex 0.038325126647949216 0.03376123809814453 0.004
  endloop
 endfacet
 facet normal 0.0 0.0 1.0
  outer loop
   vertex 0.04363026809692383 0.031041452407836914 0.004
   vertex 0.038325126647949216 0.03376123809814453 0.004
   vertex 0.04 0.032679492950439454 0.004
  endloop
 endfacet
 facet normal 0.0 0.0 1.0
  outer loop
   vertex 0.04363026809692383 0.031041452407836914 0.004
   vertex 0.04 0.032679492950439454 0.004
   vertex 0.04177425765991211 0.031769882202148436 0.004
  endloop
 endfacet
 facet normal 0.0 0.0 1.0
  outer loop
   vertex 0.0302233829498291 0.047019153594970706 0.004
   vertex 0.03061845397949219 0.04506485366821289 0.004
   vertex 0.031206148147583008 0.043159595489501955 0.004
  endloop
 endfacet
 facet normal 0.0 0.0 1.0
  outer loop
   vertex 0.04751312637329102 0.030155216217041016 0.004
   vertex 0.04363026809692383 0.031041452407836914 0.004
   vertex 0.04554957962036133 0.030501441955566408 0.004
  endloop
 endfacet
 facet normal 0.0 0.0 1.0
  outer loop
   vertex 0.0302233829498291 0.0529808464050293 0.004
   vertex 0.030024862289428713 0.050996917724609375 0.004
   vertex 0.030024862289428713 0.04900308227539062 0.004
  endloop
 endfacet
 facet normal 0.0 0.0 1.0
  outer loop
   vertex 0.0302233829498291 0.0529808464050293 0.004
   vertex 0.030024862289428713 0.04900308227539062 0.004
   vertex 0.0302233829498291 0.047019153594970706 0.004
  endloop
 endfacet
 facet normal 0.0 0.0 1.0
  outer loop
   vertex 0.05730681991577149 0.031382524490356445 0.004
   vertex 0.04751312637329102 0.030155216217041016 0.004
   vertex 0.04950138473510742 0.030006216049194335 0.004
  endloop
 endfacet
 facet normal 0.0 0.0 1.0
  outer loop
   vertex 0.05730681991577149 0.031382524490356445 0.004
   vertex 0.04950138473510742 0.030006216049194335 0.004
   vertex 0.05149460220336914 0.030055923461914064 0.004
  endloop
 endfacet
 facet normal 0.0 0.0 1.0
  outer loop
   vertex 0.05730681991577149 0.031382524490356445 0.004
   vertex 0.05149460220336914 0.030055923461914064 0.004
   vertex 0.053472965240478516 0.0303038444519043 0.004
  endloop
 endfacet
 facet normal 0.0 0.0 1.0
  outer loop
   vertex 0.05730681991577149 0.031382524490356445 0.004
   vertex 0.053472965240478516 0.0303038444519043 0.004
   vertex 0.055416809082031254 0.030747514724731445 0.004
  endloop
 endfacet
 facet normal 0.0 0.0 1.0
  outer loop
   vertex 0.03198062324523926 0.05867767333984375 0.004
   vertex 0.031206148147583008 0.05684040451049805 0.004
   vertex 0.03061845397949219 0.05493514633178711 0.004
  endloop
 endfacet
 facet normal 0.0 0.0 1.0
  outer loop
   vertex 0.03405735015869141 0.062076087951660155 0.004
   vertex 0.03198062324523926 0.05867767333984375 0.004
   vertex 0.03061845397949219 0.05493514633178711 0.004
  endloop
 endfacet
 facet normal 0.0 0.0 1.0
  outer loop
   vertex 0.03405735015869141 0.062076087951660155 0.004
   vertex 0.032934181213378905 0.06042870330810547 0.004
   vertex 0.03198062324523926 0.05867767333984375 0.004
  endloop
 endfacet
 facet normal 0.0 0.0 1.0
  outer loop
   vertex 0.03676628494262695 0.06499562072753906 0.004
   vertex 0.03405735015869141 0.062076087951660155 0.004
   vertex 0.03061845397949219 0.05493514633178711 0.004
  endloop
 endfacet
 facet normal 0.0 0.0 1.0
  outer loop
   vertex 0.03676628494262695 0.06499562072753906 0.004
   vertex 0.035338962554931644 0.06360345458984375 0.004
   vertex 0.03405735015869141 0.062076087951660155 0.004
  endloop
 endfacet
 facet normal 0.0 0.0 1.0
  outer loop
   vertex 0.03676628494262695 0.06499562072753906 0.004
   vertex 0.03061845397949219 0.05493514633178711 0.004
   vertex 0.0302233829498291 0.0529808464050293 0.004
  endloop
 endfacet
 facet normal 0.0 0.0 1.0
  outer loop
   vertex 0.03676628494262695 0.06499562072753906 0.004
   vertex 0.031206148147583008 0.043159595489501955 0.004
   vertex 0.03198062324523926 0.04132232666015625 0.004
  endloop
 endfacet
 facet normal 0.0 0.0 1.0
  outer loop
   vertex 0.03676628494262695 0.06499562072753906 0.004
   vertex 0.0302233829498291 0.047019153594970706 0.004
   vertex 0.031206148147583008 0.043159595489501955 0.004
  endloop
 endfacet
 facet normal 0.0 0.0 1.0
  outer loop
   vertex 0.03676628494262695 0.06499562072753906 0.004
   vertex 0.03198062324523926 0.04132232666015625 0.004
   vertex 0.03676628494262695 0.03500437545776367 0.004
  endloop
 endfacet
 facet normal 0.0 0.0 1.0
  outer loop
   vertex 0.03676628494262695 0.06499562072753906 0.004
   vertex 0.0302233829498291 0.0529808464050293 0.004
   vertex 0.0302233829498291 0.047019153594970706 0.004
  endloop
 endfacet
 facet normal 0.0 0.0 1.0
  outer loop
   vertex 0.06532089233398437 0.03714424896240234 0.004
   vertex 0.04751312637329102 0.030155216217041016 0.004
   vertex 0.05730681991577149 0.031382524490356445 0.004
  endloop
 endfacet
 facet normal 0.0 0.0 1.0
  outer loop
   vertex 0.06532089233398437 0.03714424896240234 0.004
   vertex 0.05730681991577149 0.031382524490356445 0.004
   vertex 0.059124214172363285 0.032202564239501956 0.004
  endloop
 endfacet
 facet normal 0.0 0.0 1.0
  outer loop
   vertex 0.06532089233398437 0.03714424896240234 0.004
   vertex 0.059124214172363285 0.032202564239501956 0.004
   vertex 0.06085092544555664 0.03319948196411133 0.004
  endloop
 endfacet
 facet normal 0.0 0.0 1.0
  outer loop
   vertex 0.06532089233398437 0.03714424896240234 0.004
   vertex 0.06085092544555664 0.03319948196411133 0.004
   vertex 0.06246979522705078 0.03436336898803711 0.004
  endloop
 endfacet
 facet normal 0.0 0.0 1.0
  outer loop
   vertex 0.06532089233398437 0.03714424896240234 0.004
   vertex 0.06246979522705078 0.03436336898803711 0.004
   vertex 0.06396473693847657 0.03568266296386719 0.004
  endloop
 endfacet
 facet normal 0.0 0.0 1.0
  outer loop
   vertex 0.04 0.06732051086425782 0.004
   vertex 0.038325126647949216 0.06623876190185547 0.004
   vertex 0.03676628494262695 0.06499562072753906 0.004
  endloop
 endfacet
 facet normal 0.0 0.0 1.0
  outer loop
   vertex 0.04177425765991211 0.06823011779785157 0.004
   vertex 0.03676628494262695 0.06499562072753906 0.004
   vertex 0.03676628494262695 0.03500437545776367 0.004
  endloop
 endfacet
 facet normal 0.0 0.0 1.0
  outer loop
   vertex 0.04177425765991211 0.06823011779785157 0.004
   vertex 0.04 0.06732051086425782 0.004
   vertex 0.03676628494262695 0.06499562072753906 0.004
  endloop
 endfacet
 facet normal 0.0 0.0 1.0
  outer loop
   vertex 0.04177425765991211 0.06823011779785157 0.004
   vertex 0.03676628494262695 0.03500437545776367 0.004
   vertex 0.04363026809692383 0.031041452407836914 0.004
  endloop
 endfacet
 facet normal 0.0 0.0 1.0
  outer loop
   vertex 0.04363026809692383 0.06895854949951172 0.004
   vertex 0.04177425765991211 0.06823011779785157 0.004
   vertex 0.04363026809692383 0.031041452407836914 0.004
  endloop
 endfacet
 facet normal 0.0 0.0 1.0
  outer loop
   vertex 0.04363026809692383 0.06895854949951172 0.004
   vertex 0.04363026809692383 0.031041452407836914 0.004
   vertex 0.04751312637329102 0.030155216217041016 0.004
  endloop
 endfacet
 facet normal 0.0 0.0 1.0
  outer loop
   vertex 0.06911145782470703 0.04410489654541016 0.004
   vertex 0.06756443023681641 0.04043492126464844 0.004
   vertex 0.06842952728271484 0.042231304168701175 0.004
  endloop
 endfacet
 facet normal 0.0 0.0 1.0
  outer loop
   vertex 0.06960344696044922 0.04603707885742188 0.004
   vertex 0.06756443023681641 0.04043492126464844 0.004
   vertex 0.06911145782470703 0.04410489654541016 0.004
  endloop
 endfacet
 facet normal 0.0 0.0 1.0
  outer loop
   vertex 0.06960344696044922 0.04603707885742188 0.004
   vertex 0.06532089233398437 0.03714424896240234 0.004
   vertex 0.06652477264404297 0.03873360061645508 0.004
  endloop
 endfacet
 facet normal 0.0 0.0 1.0
  outer loop
   vertex 0.06960344696044922 0.04603707885742188 0.004
   vertex 0.06652477264404297 0.03873360061645508 0.004
   vertex 0.06756443023681641 0.04043492126464844 0.004
  endloop
 endfacet
 facet normal 0.0 0.0 1.0
  outer loop
   vertex 0.04950138473510742 0.06999378204345703 0.004
   vertex 0.04751312637329102 0.06984478759765625 0.004
   vertex 0.04554957962036133 0.0694985580444336 0.004
  endloop
 endfacet
 facet normal 0.0 0.0 1.0
  outer loop
   vertex 0.04950138473510742 0.06999378204345703 0.004
   vertex 0.04554957962036133 0.0694985580444336 0.004
   vertex 0.04363026809692383 0.06895854949951172 0.004
  endloop
 endfacet
 facet normal 0.0 0.0 1.0
  outer loop
   vertex 0.07 0.05 0.004
   vertex 0.06960344696044922 0.04603707885742188 0.004
   vertex 0.06990061187744141 0.048008644104003906 0.004
  endloop
 endfacet
 facet normal 0.0 0.0 1.0
  outer loop
   vertex 0.05149460220336914 0.06994407653808594 0.004
   vertex 0.04363026809692383 0.06895854949951172 0.004
   vertex 0.04751312637329102 0.030155216217041016 0.004
  endloop
 endfacet
 facet normal 0.0 0.0 1.0
  outer loop
   vertex 0.05149460220336914 0.06994407653808594 0.004
   vertex 0.04950138473510742 0.06999378204345703 0.004
   vertex 0.04363026809692383 0.06895854949951172 0.004
  endloop
 endfacet
 facet normal 0.0 0.0 1.0
  outer loop
   vertex 0.06990061187744141 0.05199135589599609 0.004
   vertex 0.06960344696044922 0.04603707885742188 0.004
   vertex 0.07 0.05 0.004
  endloop
 endfacet
 facet normal 0.0 0.0 1.0
  outer loop
   vertex 0.06911145782470703 0.055895103454589846 0.004
   vertex 0.06990061187744141 0.05199135589599609 0.004
   vertex 0.06960344696044922 0.05396292114257813 0.004
  endloop
 endfacet
 facet normal 0.0 0.0 1.0
  outer loop
   vertex 0.06085092544555664 0.06680052185058594 0.004
   vertex 0.059124214172363285 0.06779743957519531 0.004
   vertex 0.05730681991577149 0.06861747741699219 0.004
  endloop
 endfacet
 facet normal 0.0 0.0 1.0
  outer loop
   vertex 0.06085092544555664 0.06680052185058594 0.004
   vertex 0.05730681991577149 0.06861747741699219 0.004
   vertex 0.055416809082031254 0.06925248718261719 0.004
  endloop
 endfacet
 facet normal 0.0 0.0 1.0
  outer loop
   vertex 0.06085092544555664 0.06680052185058594 0.004
   vertex 0.055416809082031254 0.06925248718261719 0.004
   vertex 0.053472965240478516 0.06969615173339844 0.004
  endloop
 endfacet
 facet normal 0.0 0.0 1.0
  outer loop
   vertex 0.06085092544555664 0.06680052185058594 0.004
   vertex 0.053472965240478516 0.06969615173339844 0.004
   vertex 0.05149460220336914 0.06994407653808594 0.004
  endloop
 endfacet
 facet normal 0.0 0.0 1.0
  outer loop
   vertex 0.06652477264404297 0.061266399383544924 0.004
   vertex 0.06911145782470703 0.055895103454589846 0.004
   vertex 0.06842952728271484 0.05776869583129883 0.004
  endloop
 endfacet
 facet normal 0.0 0.0 1.0
  outer loop
   vertex 0.06652477264404297 0.061266399383544924 0.004
   vertex 0.06842952728271484 0.05776869583129883 0.004
   vertex 0.06756443023681641 0.059565078735351565 0.004
  endloop
 endfacet
 facet normal 0.0 0.0 1.0
  outer loop
   vertex 0.06246979522705078 0.06563662719726562 0.004
   vertex 0.04751312637329102 0.030155216217041016 0.004
   vertex 0.06532089233398437 0.03714424896240234 0.004
  endloop
 endfacet
 facet normal 0.0 0.0 1.0
  outer loop
   vertex 0.06246979522705078 0.06563662719726562 0.004
   vertex 0.06532089233398437 0.03714424896240234 0.004
   vertex 0.06960344696044922 0.04603707885742188 0.004
  endloop
 endfacet
 facet normal 0.0 0.0 1.0
  outer loop
   vertex 0.06246979522705078 0.06563662719726562 0.004
   vertex 0.05149460220336914 0.06994407653808594 0.004
   vertex 0.04751312637329102 0.030155216217041016 0.004
  endloop
 endfacet
 facet normal 0.0 0.0 1.0
  outer loop
   vertex 0.06246979522705078 0.06563662719726562 0.004
   vertex 0.06085092544555664 0.06680052185058594 0.004
   vertex 0.05149460220336914 0.06994407653808594 0.004
  endloop
 endfacet
 facet normal 0.0 0.0 1.0
  outer loop
   vertex 0.06396473693847657 0.06431733703613281 0.004
   vertex 0.06652477264404297 0.061266399383544924 0.004
   vertex 0.06532089233398437 0.06285575103759766 0.004
  endloop
 endfacet
 facet normal 0.0 0.0 1.0
  outer loop
   vertex 0.06396473693847657 0.06431733703613281 0.004
   vertex 0.06960344696044922 0.04603707885742188 0.004
   vertex 0.06990061187744141 0.05199135589599609 0.004
  endloop
 endfacet
 facet normal 0.0 0.0 1.0
  outer loop
   vertex 0.06396473693847657 0.06431733703613281 0.004
   vertex 0.06990061187744141 0.05199135589599609 0.004
   vertex 0.06911145782470703 0.055895103454589846 0.004
  endloop
 endfacet
 facet normal 0.0 0.0 1.0
  outer loop
   vertex 0.06396473693847657 0.06431733703613281 0.004
   vertex 0.06911145782470703 0.055895103454589846 0.004
   vertex 0.06652477264404297 0.061266399383544924 0.004
  endloop
 endfacet
 facet normal 0.0 0.0 1.0
  outer loop
   vertex 0.06396473693847657 0.06431733703613281 0.004
   vertex 0.06246979522705078 0.06563662719726562 0.004
   vertex 0.06960344696044922 0.04603707885742188 0.004
  endloop
 endfacet
 facet normal 0.0 -1.0 0.0
  outer loop
   vertex 0.05 0.03 -0.002
   vertex 0.2 0.03 -0.002
   vertex 0.05 0.03 0.004
  endloop
 endfacet
 facet normal 0.0 -1.0 0.0
  outer loop
   vertex 0.05 0.03 0.004
   vertex 0.2 0.03 -0.002
   vertex 0.2 0.03 0.004
  endloop
 endfacet
 facet normal 1.0 0.0 0.0
  outer loop
   vertex 0.2 0.03 -0.002
   vertex 0.2 0.07 -0.002
   vertex 0.2 0.03 0.004
  endloop
 endfacet
 facet normal 1.0 -0.0 0.0
  outer loop
   vertex 0.2 0.03 0.004
   vertex 0.2 0.07 -0.002
   vertex 0.2 0.07 0.004
  endloop
 endfacet
 facet normal 0.0 1.0 -0.0
  outer loop
   vertex 0.2 0.07 -0.002
   vertex 0.05 0.07 -0.002
   vertex 0.2 0.07 0.004
  endloop
 endfacet
 facet normal 0.0 1.0 0.0
  outer loop
   vertex 0.2 0.07 0.004
   vertex 0.05 0.07 -0.002
   vertex 0.05 0.07 0.004
  endloop
 endfacet
 facet normal -1.0 0.0 0.0
  outer loop
   vertex 0.05 0.07 -0.002
   vertex 0.05 0.03 -0.002
   vertex 0.05 0.07 0.004
  endloop
 endfacet
 facet normal -1.0 -0.0 0.0
  outer loop
   vertex 0.05 0.07 0.004
   vertex 0.05 0.03 -0.002
   vertex 0.05 0.03 0.004
  endloop
 endfacet
 facet normal 0.0 0.0 -1.0
  outer loop
   vertex 0.05 0.03 -0.002
   vertex 0.2 0.07 -0.002
   vertex 0.2 0.03 -0.002
  endloop
 endfacet
 facet normal 0.0 0.0 -1.0
  outer loop
   vertex 0.05 0.07 -0.002
   vertex 0.2 0.07 -0.002
   vertex 0.05 0.03 -0.002
  endloop
 endfacet
 facet normal 0.0 0.0 1.0
  outer loop
   vertex 0.2 0.07 0.004
   vertex 0.05 0.03 0.004
   vertex 0.2 0.03 0.004
  endloop
 endfacet
 facet normal 0.0 0.0 1.0
  outer loop
   vertex 0.2 0.07 0.004
   vertex 0.05 0.07 0.004
   vertex 0.05 0.03 0.004
  endloop
 endfacet
endsolid MeshRefinement001
