solid patch_1_0
 facet normal 0.04423351213335991 0.0 -0.9990212321281433
  outer loop
   vertex 1.3877787807814457e-17 -8.326672684688674e-18 -0.025
   vertex 0.002209502696990967 0.3 -0.024902170181274413
   vertex 0.002209502696990967 -9.008278403278315e-18 -0.024902170181274413
  endloop
 endfacet
 facet normal 0.13235385715961456 0.0 -0.9912025928497314
  outer loop
   vertex 0.002209502696990967 -9.008278403278315e-18 -0.024902170181274413
   vertex 0.002209502696990967 0.3 -0.024902170181274413
   vertex 0.004401712894439697 -9.575937861671519e-18 -0.024609447479248047
  endloop
 endfacet
 facet normal 0.04423351213335991 -9.82181272609848e-18 -0.9990212321281433
  outer loop
   vertex 8.049116928532385e-17 0.3 -0.025
   vertex 0.002209502696990967 0.3 -0.024902170181274413
   vertex 1.3877787807814457e-17 -8.326672684688674e-18 -0.025
  endloop
 endfacet
 facet normal 0.13235385715961456 0.0 -0.9912025928497314
  outer loop
   vertex 0.002209502696990967 0.3 -0.024902170181274413
   vertex 0.004401712894439697 0.3 -0.024609447479248047
   vertex 0.004401712894439697 -9.575937861671519e-18 -0.024609447479248047
  endloop
 endfacet
 facet normal 0.21943843364715576 0.0 -0.9756263494491577
  outer loop
   vertex 0.004401712894439697 -9.575937861671519e-18 -0.024609447479248047
   vertex 0.006559473991394043 0.3 -0.024124122619628905
   vertex 0.006559473991394043 -1.0025206677994042e-17 -0.024124122619628905
  endloop
 endfacet
 facet normal 0.21943843364715576 0.0 -0.9756263494491577
  outer loop
   vertex 0.004401712894439697 0.3 -0.024609447479248047
   vertex 0.006559473991394043 0.3 -0.024124122619628905
   vertex 0.004401712894439697 -9.575937861671519e-18 -0.024609447479248047
  endloop
 endfacet
 facet normal 0.3048059642314911 0.0 -0.9524145126342773
  outer loop
   vertex 0.006559473991394043 -1.0025206677994042e-17 -0.024124122619628905
   vertex 0.008665898323059083 0.3 -0.023449993133544924
   vertex 0.008665898323059083 -1.0352570512547724e-17 -0.023449993133544924
  endloop
 endfacet
 facet normal 0.3048059642314911 0.0 -0.9524145126342773
  outer loop
   vertex 0.006559473991394043 0.3 -0.024124122619628905
   vertex 0.008665898323059083 0.3 -0.023449993133544924
   vertex 0.006559473991394043 -1.0025206677994042e-17 -0.024124122619628905
  endloop
 endfacet
 facet normal 0.38778746128082275 0.0 -0.9217488765716553
  outer loop
   vertex 0.008665898323059083 -1.0352570512547724e-17 -0.023449993133544924
   vertex 0.010704499244689941 0.3 -0.022592336654663085
   vertex 0.010704499244689941 -1.055546539660123e-17 -0.022592336654663085
  endloop
 endfacet
 facet normal 0.38778746128082275 0.0 -0.9217488765716553
  outer loop
   vertex 0.008665898323059083 0.3 -0.023449993133544924
   vertex 0.010704499244689941 0.3 -0.022592336654663085
   vertex 0.008665898323059083 -1.0352570512547724e-17 -0.023449993133544924
  endloop
 endfacet
 facet normal 0.4677339196205139 0.0 -0.8838693499565125
  outer loop
   vertex 0.010704499244689941 -1.055546539660123e-17 -0.022592336654663085
   vertex 0.012659323692321778 0.3 -0.021557865142822267
   vertex 0.012659323692321778 -1.06323056844773e-17 -0.021557865142822267
  endloop
 endfacet
 facet normal 0.5440208911895752 0.0 -0.8390716910362244
  outer loop
   vertex 0.012659323692321778 -1.06323056844773e-17 -0.021557865142822267
   vertex 0.012659323692321778 0.3 -0.021557865142822267
   vertex 0.014515071868896485 -1.0582488288717485e-17 -0.020354671478271486
  endloop
 endfacet
 facet normal 0.4677339196205139 0.0 -0.8838693499565125
  outer loop
   vertex 0.010704499244689941 0.3 -0.022592336654663085
   vertex 0.012659323692321778 0.3 -0.021557865142822267
   vertex 0.010704499244689941 -1.055546539660123e-17 -0.022592336654663085
  endloop
 endfacet
 facet normal 0.6160484552383423 0.0 -0.7877081632614136
  outer loop
   vertex 0.014515071868896485 -1.0582488288717485e-17 -0.020354671478271486
   vertex 0.014515071868896485 0.3 -0.020354671478271486
   vertex 0.016257219314575196 -1.0406402844477524e-17 -0.018992177963256838
  endloop
 endfacet
 facet normal 0.5440208911895752 0.0 -0.8390716910362244
  outer loop
   vertex 0.012659323692321778 0.3 -0.021557865142822267
   vertex 0.014515071868896485 0.3 -0.020354671478271486
   vertex 0.014515071868896485 -1.0582488288717485e-17 -0.020354671478271486
  endloop
 endfacet
 facet normal 0.6832557320594788 0.0 -0.7301790714263916
  outer loop
   vertex 0.016257219314575196 -1.0406402844477524e-17 -0.018992177963256838
   vertex 0.016257219314575196 0.3 -0.018992177963256838
   vertex 0.017872133255004884 -1.0105429168428496e-17 -0.017481042861938478
  endloop
 endfacet
 facet normal 0.6160484552383423 0.0 -0.7877081632614136
  outer loop
   vertex 0.014515071868896485 0.3 -0.020354671478271486
   vertex 0.016257219314575196 0.3 -0.018992177963256838
   vertex 0.016257219314575196 -1.0406402844477524e-17 -0.018992177963256838
  endloop
 endfacet
 facet normal 0.6832557320594788 0.0 -0.7301790714263916
  outer loop
   vertex 0.016257219314575196 0.3 -0.018992177963256838
   vertex 0.017872133255004884 0.3 -0.017481042861938478
   vertex 0.017872133255004884 -1.0105429168428496e-17 -0.017481042861938478
  endloop
 endfacet
 facet normal 0.7451151609420776 0.0 -0.6669358015060425
  outer loop
   vertex 0.017872133255004884 -1.0105429168428496e-17 -0.017481042861938478
   vertex 0.0193471736907959 0.3 -0.01583309555053711
   vertex 0.0193471736907959 -9.681921165130819e-18 -0.01583309555053711
  endloop
 endfacet
 facet normal 0.8011434674263 0.0 -0.5984722971916199
  outer loop
   vertex 0.0193471736907959 -9.681921165130819e-18 -0.01583309555053711
   vertex 0.0193471736907959 0.3 -0.01583309555053711
   vertex 0.02067079544067383 -9.139194121540046e-18 -0.014061232566833497
  endloop
 endfacet
 facet normal 0.7451151609420776 0.0 -0.6669358015060425
  outer loop
   vertex 0.017872133255004884 0.3 -0.017481042861938478
   vertex 0.0193471736907959 0.3 -0.01583309555053711
   vertex 0.017872133255004884 -1.0105429168428496e-17 -0.017481042861938478
  endloop
 endfacet
 facet normal 0.8011434674263 0.0 -0.5984722971916199
  outer loop
   vertex 0.0193471736907959 0.3 -0.01583309555053711
   vertex 0.02067079544067383 0.3 -0.014061232566833497
   vertex 0.02067079544067383 -9.139194121540046e-18 -0.014061232566833497
  endloop
 endfacet
 facet normal 0.8509016036987305 0.0 -0.5253250598907471
  outer loop
   vertex 0.02067079544067383 -9.139194121540046e-18 -0.014061232566833497
   vertex 0.021832639694213868 0.3 -0.0121793212890625
   vertex 0.021832639694213868 -8.481495907886658e-18 -0.0121793212890625
  endloop
 endfacet
 facet normal 0.8940001130104065 0.0 -0.4480666518211365
  outer loop
   vertex 0.021832639694213868 -8.481495907886658e-18 -0.0121793212890625
   vertex 0.021832639694213868 0.3 -0.0121793212890625
   vertex 0.0228236141204834 -7.71397309635817e-18 -0.010202090263366699
  endloop
 endfacet
 facet normal 0.8509016036987305 0.0 -0.5253250598907471
  outer loop
   vertex 0.02067079544067383 0.3 -0.014061232566833497
   vertex 0.021832639694213868 0.3 -0.0121793212890625
   vertex 0.02067079544067383 -9.139194121540046e-18 -0.014061232566833497
  endloop
 endfacet
 facet normal 0.8940001130104065 0.0 -0.4480666518211365
  outer loop
   vertex 0.021832639694213868 0.3 -0.0121793212890625
   vertex 0.0228236141204834 0.3 -0.010202090263366699
   vertex 0.0228236141204834 -7.71397309635817e-18 -0.010202090263366699
  endloop
 endfacet
 facet normal 0.9301018118858337 0.0 -0.3673018217086792
  outer loop
   vertex 0.0228236141204834 0.3 -0.010202090263366699
   vertex 0.023635963439941406 0.3 -0.008145014762878417
   vertex 0.0228236141204834 -7.71397309635817e-18 -0.010202090263366699
  endloop
 endfacet
 facet normal 0.9301018118858337 0.0 -0.3673018217086792
  outer loop
   vertex 0.0228236141204834 -7.71397309635817e-18 -0.010202090263366699
   vertex 0.023635963439941406 0.3 -0.008145014762878417
   vertex 0.023635963439941406 -6.8426332681329875e-18 -0.008145014762878417
  endloop
 endfacet
 facet normal 0.9589245319366455 0.0 -0.2836615741252899
  outer loop
   vertex 0.023635963439941406 0.3 -0.008145014762878417
   vertex 0.024263328552246093 0.3 -0.006024192333221436
   vertex 0.023635963439941406 -6.8426332681329875e-18 -0.008145014762878417
  endloop
 endfacet
 facet normal 0.9589245319366455 0.0 -0.2836615741252899
  outer loop
   vertex 0.023635963439941406 -6.8426332681329875e-18 -0.008145014762878417
   vertex 0.024263328552246093 0.3 -0.006024192333221436
   vertex 0.024263328552246093 -5.874295461952978e-18 -0.006024192333221436
  endloop
 endfacet
 facet normal 0.9802420735359192 0.0 -0.19780167937278748
  outer loop
   vertex 0.024263328552246093 -5.874295461952978e-18 -0.006024192333221436
   vertex 0.024263328552246093 0.3 -0.006024192333221436
   vertex 0.024700799942016603 -4.816538081597226e-18 -0.0038562233448028566
  endloop
 endfacet
 facet normal 0.9802420735359192 0.0 -0.19780167937278748
  outer loop
   vertex 0.024263328552246093 0.3 -0.006024192333221436
   vertex 0.024700799942016603 0.3 -0.0038562233448028566
   vertex 0.024700799942016603 -4.816538081597226e-18 -0.0038562233448028566
  endloop
 endfacet
 facet normal 0.9938878417015076 0.0 -0.11039447784423828
  outer loop
   vertex 0.024700799942016603 0.3 -0.0038562233448028566
   vertex 0.024944955825805665 0.3 -0.001658073902130127
   vertex 0.024700799942016603 -4.816538081597226e-18 -0.0038562233448028566
  endloop
 endfacet
 facet normal 0.9938878417015076 0.0 -0.11039447784423828
  outer loop
   vertex 0.024700799942016603 -4.816538081597226e-18 -0.0038562233448028566
   vertex 0.024944955825805665 0.3 -0.001658073902130127
   vertex 0.024944955825805665 -3.677640027092196e-18 -0.001658073902130127
  endloop
 endfacet
 facet normal 0.999755322933197 0.0 -0.022121500223875046
  outer loop
   vertex 0.024944955825805665 -3.677640027092196e-18 -0.001658073902130127
   vertex 0.024944955825805665 0.3 -0.001658073902130127
   vertex 0.024993881225585938 -2.4665142026253708e-18 0.0005530521869659424
  endloop
 endfacet
 facet normal 0.999755322933197 0.0 -0.022121500223875046
  outer loop
   vertex 0.024944955825805665 0.3 -0.001658073902130127
   vertex 0.024993881225585938 0.3 0.0005530521869659424
   vertex 0.024993881225585938 -2.4665142026253708e-18 0.0005530521869659424
  endloop
 endfacet
 facet normal 0.9977982044219971 0.0 0.06632224470376968
  outer loop
   vertex 0.024993881225585938 0.3 0.0005530521869659424
   vertex 0.024847198486328125 0.3 0.0027598497867584227
   vertex 0.024993881225585938 -2.4665142026253708e-18 0.0005530521869659424
  endloop
 endfacet
 facet normal 0.9977982044219971 0.0 0.06632224470376968
  outer loop
   vertex 0.024993881225585938 -2.4665142026253708e-18 0.0005530521869659424
   vertex 0.024847198486328125 0.3 0.0027598497867584227
   vertex 0.024847198486328125 -1.1926396480303552e-18 0.0027598497867584227
  endloop
 endfacet
 facet normal 0.9880319833755493 0.0 0.1542493999004364
  outer loop
   vertex 0.024847198486328125 -1.1926396480303552e-18 0.0027598497867584227
   vertex 0.024506050109863283 0.3 0.004945047855377197
   vertex 0.024506050109863283 1.3401383391054137e-19 0.004945047855377197
  endloop
 endfacet
 facet normal 0.9705331325531006 -0.0 0.24096743762493134
  outer loop
   vertex 0.024506050109863283 1.3401383391054137e-19 0.004945047855377197
   vertex 0.024506050109863283 0.3 0.004945047855377197
   vertex 0.02397311019897461 1.5030635647927817e-18 0.007091544628143311
  endloop
 endfacet
 facet normal 0.9880319833755493 0.0 0.1542493999004364
  outer loop
   vertex 0.024847198486328125 0.3 0.0027598497867584227
   vertex 0.024506050109863283 0.3 0.004945047855377197
   vertex 0.024847198486328125 -1.1926396480303552e-18 0.0027598497867584227
  endloop
 endfacet
 facet normal 0.9705331325531006 0.0 0.24096743762493134
  outer loop
   vertex 0.024506050109863283 0.3 0.004945047855377197
   vertex 0.02397311019897461 0.3 0.007091544628143311
   vertex 0.02397311019897461 1.5030635647927817e-18 0.007091544628143311
  endloop
 endfacet
 facet normal 0.9454385638237 0.0 0.3258003890514374
  outer loop
   vertex 0.02397311019897461 1.5030635647927817e-18 0.007091544628143311
   vertex 0.02325254821777344 0.3 0.009182539939880371
   vertex 0.02325254821777344 2.9037947498871665e-18 0.009182539939880371
  endloop
 endfacet
 facet normal 0.9454385638237 0.0 0.3258003890514374
  outer loop
   vertex 0.02397311019897461 0.3 0.007091544628143311
   vertex 0.02325254821777344 0.3 0.009182539939880371
   vertex 0.02397311019897461 1.5030635647927817e-18 0.007091544628143311
  endloop
 endfacet
 facet normal 0.9129444360733032 0.0 0.40808385610580444
  outer loop
   vertex 0.02325254821777344 2.9037947498871665e-18 0.009182539939880371
   vertex 0.02235000228881836 0.3 0.011201669692993164
   vertex 0.02235000228881836 4.325244572629628e-18 0.011201669692993164
  endloop
 endfacet
 facet normal 0.8733054399490356 -0.0 0.4871731102466583
  outer loop
   vertex 0.02235000228881836 4.325244572629628e-18 0.011201669692993164
   vertex 0.02235000228881836 0.3 0.011201669692993164
   vertex 0.021272537231445312 5.7562889493238766e-18 0.01313313102722168
  endloop
 endfacet
 facet normal 0.9129444360733032 0.0 0.40808385610580444
  outer loop
   vertex 0.02325254821777344 0.3 0.009182539939880371
   vertex 0.02235000228881836 0.3 0.011201669692993164
   vertex 0.02325254821777344 2.9037947498871665e-18 0.009182539939880371
  endloop
 endfacet
 facet normal 0.8268319964408875 -0.0 0.5624489784240723
  outer loop
   vertex 0.021272537231445312 5.7562889493238766e-18 0.01313313102722168
   vertex 0.021272537231445312 0.3 0.01313313102722168
   vertex 0.020028587341308593 7.185726928033656e-18 0.01496180820465088
  endloop
 endfacet
 facet normal 0.8733054399490356 0.0 0.4871731102466583
  outer loop
   vertex 0.02235000228881836 0.3 0.011201669692993164
   vertex 0.021272537231445312 0.3 0.01313313102722168
   vertex 0.021272537231445312 5.7562889493238766e-18 0.01313313102722168
  endloop
 endfacet
 facet normal 0.8268319964408875 0.0 0.5624489784240723
  outer loop
   vertex 0.021272537231445312 0.3 0.01313313102722168
   vertex 0.020028587341308593 0.3 0.01496180820465088
   vertex 0.020028587341308593 7.185726928033656e-18 0.01496180820465088
  endloop
 endfacet
 facet normal 0.7738867402076721 0.0 0.6333240270614624
  outer loop
   vertex 0.020028587341308593 7.185726928033656e-18 0.01496180820465088
   vertex 0.018627885818481446 0.3 0.016673387527465822
   vertex 0.018627885818481446 8.60237259165753e-18 0.016673387527465822
  endloop
 endfacet
 facet normal 0.7738867402076721 0.0 0.6333240270614624
  outer loop
   vertex 0.020028587341308593 0.3 0.01496180820465088
   vertex 0.018627885818481446 0.3 0.016673387527465822
   vertex 0.020028587341308593 7.185726928033656e-18 0.01496180820465088
  endloop
 endfacet
 facet normal 0.7148855328559875 0.0 0.6992415189743042
  outer loop
   vertex 0.018627885818481446 8.60237259165753e-18 0.016673387527465822
   vertex 0.017081396102905273 0.3 0.018254476547241213
   vertex 0.017081396102905273 9.99513785539946e-18 0.018254476547241213
  endloop
 endfacet
 facet normal 0.7148855328559875 0.0 0.6992415189743042
  outer loop
   vertex 0.018627885818481446 0.3 0.016673387527465822
   vertex 0.017081396102905273 0.3 0.018254476547241213
   vertex 0.018627885818481446 8.60237259165753e-18 0.016673387527465822
  endloop
 endfacet
 facet normal 0.6502887606620789 0.0 0.7596871256828308
  outer loop
   vertex 0.017081396102905273 9.99513785539946e-18 0.018254476547241213
   vertex 0.015401220321655274 0.3 0.019692699432373048
   vertex 0.015401220321655274 1.1353122252261236e-17 0.019692699432373048
  endloop
 endfacet
 facet normal 0.5806025266647339 -0.0 0.8141870498657227
  outer loop
   vertex 0.015401220321655274 1.1353122252261236e-17 0.019692699432373048
   vertex 0.015401220321655274 0.3 0.019692699432373048
   vertex 0.013600509643554687 1.2665698059853656e-17 0.02097679901123047
  endloop
 endfacet
 facet normal 0.6502887606620789 0.0 0.7596871256828308
  outer loop
   vertex 0.017081396102905273 0.3 0.018254476547241213
   vertex 0.015401220321655274 0.3 0.019692699432373048
   vertex 0.017081396102905273 9.99513785539946e-18 0.018254476547241213
  endloop
 endfacet
 facet normal 0.5806025266647339 0.0 0.8141870498657227
  outer loop
   vertex 0.015401220321655274 0.3 0.019692699432373048
   vertex 0.013600509643554687 0.3 0.02097679901123047
   vertex 0.013600509643554687 1.2665698059853656e-17 0.02097679901123047
  endloop
 endfacet
 facet normal 0.5063729286193848 0.0 0.8623146414756775
  outer loop
   vertex 0.013600509643554687 1.2665698059853656e-17 0.02097679901123047
   vertex 0.01169335651397705 0.3 0.022096727371215822
   vertex 0.01169335651397705 1.3922593309625368e-17 0.022096727371215822
  endloop
 endfacet
 facet normal 0.5063729286193848 0.0 0.8623146414756775
  outer loop
   vertex 0.013600509643554687 0.3 0.02097679901123047
   vertex 0.01169335651397705 0.3 0.022096727371215822
   vertex 0.013600509643554687 1.2665698059853656e-17 0.02097679901123047
  endloop
 endfacet
 facet normal 0.4281805455684662 0.0 0.9036931991577148
  outer loop
   vertex 0.01169335651397705 1.3922593309625368e-17 0.022096727371215822
   vertex 0.009694687843322754 0.3 0.02304372024536133
   vertex 0.009694687843322754 1.511396971389401e-17 0.02304372024536133
  endloop
 endfacet
 facet normal 0.4281805455684662 0.0 0.9036931991577148
  outer loop
   vertex 0.01169335651397705 0.3 0.022096727371215822
   vertex 0.009694687843322754 0.3 0.02304372024536133
   vertex 0.01169335651397705 1.3922593309625368e-17 0.022096727371215822
  endloop
 endfacet
 facet normal 0.34663596749305725 0.0 0.9379997253417969
  outer loop
   vertex 0.009694687843322754 1.511396971389401e-17 0.02304372024536133
   vertex 0.007620144367218018 0.3 0.02381036376953125
   vertex 0.007620144367218018 1.6230504828042108e-17 0.02381036376953125
  endloop
 endfacet
 facet normal 0.26237839460372925 -0.0 0.9649651050567627
  outer loop
   vertex 0.007620144367218018 1.6230504828042108e-17 0.02381036376953125
   vertex 0.007620144367218018 0.3 0.02381036376953125
   vertex 0.005485962867736817 1.7263458119086938e-17 0.024390657424926757
  endloop
 endfacet
 facet normal 0.34663596749305725 0.0 0.9379997253417969
  outer loop
   vertex 0.009694687843322754 0.3 0.02304372024536133
   vertex 0.007620144367218018 0.3 0.02381036376953125
   vertex 0.009694687843322754 1.511396971389401e-17 0.02304372024536133
  endloop
 endfacet
 facet normal 0.26237839460372925 0.0 0.9649651050567627
  outer loop
   vertex 0.007620144367218018 0.3 0.02381036376953125
   vertex 0.005485962867736817 0.3 0.024390657424926757
   vertex 0.005485962867736817 1.7263458119086938e-17 0.024390657424926757
  endloop
 endfacet
 facet normal 0.17606906592845917 0.0 0.9843778610229492
  outer loop
   vertex 0.005485962867736817 1.7263458119086938e-17 0.024390657424926757
   vertex 0.003308846473693848 0.3 0.02478006362915039
   vertex 0.003308846473693848 1.8204745504579906e-17 0.02478006362915039
  endloop
 endfacet
 facet normal 0.17606906592845917 0.0 0.9843778610229492
  outer loop
   vertex 0.005485962867736817 0.3 0.024390657424926757
   vertex 0.003308846473693848 0.3 0.02478006362915039
   vertex 0.005485962867736817 1.7263458119086938e-17 0.024390657424926757
  endloop
 endfacet
 facet normal 0.08837991952896118 0.0 0.996086835861206
  outer loop
   vertex 0.003308846473693848 1.8204745504579906e-17 0.02478006362915039
   vertex 0.001105833649635315 0.3 0.02497553062438965
   vertex 0.001105833649635315 1.9047002880077588e-17 0.02497553062438965
  endloop
 endfacet
 facet normal 0.0 -0.0 1.0
  outer loop
   vertex 0.001105833649635315 1.9047002880077588e-17 0.02497553062438965
   vertex 0.001105833649635315 0.3 0.02497553062438965
   vertex -0.001105833649635315 1.9783636941118552e-17 0.02497553062438965
  endloop
 endfacet
 facet normal 0.08837991952896118 0.0 0.996086835861206
  outer loop
   vertex 0.003308846473693848 0.3 0.02478006362915039
   vertex 0.001105833649635315 0.3 0.02497553062438965
   vertex 0.003308846473693848 1.8204745504579906e-17 0.02478006362915039
  endloop
 endfacet
 facet normal 0.0 0.0 1.0
  outer loop
   vertex 0.001105833649635315 0.3 0.02497553062438965
   vertex -0.001105833649635315 0.3 0.02497553062438965
   vertex -0.001105833649635315 1.9783636941118552e-17 0.02497553062438965
  endloop
 endfacet
 facet normal -0.08837991952896118 0.0 0.996086835861206
  outer loop
   vertex -0.001105833649635315 1.9783636941118552e-17 0.02497553062438965
   vertex -0.003308846473693848 0.3 0.02478006362915039
   vertex -0.003308846473693848 2.040888108739789e-17 0.02478006362915039
  endloop
 endfacet
 facet normal -0.08837991952896118 0.0 0.996086835861206
  outer loop
   vertex -0.001105833649635315 0.3 0.02497553062438965
   vertex -0.003308846473693848 0.3 0.02478006362915039
   vertex -0.001105833649635315 1.9783636941118552e-17 0.02497553062438965
  endloop
 endfacet
 facet normal -0.17606906592845917 0.0 0.9843778610229492
  outer loop
   vertex -0.003308846473693848 2.040888108739789e-17 0.02478006362915039
   vertex -0.005485962867736817 0.3 0.024390657424926757
   vertex -0.005485962867736817 2.0917842856612266e-17 0.024390657424926757
  endloop
 endfacet
 facet normal -0.26237839460372925 0.0 0.9649651050567627
  outer loop
   vertex -0.005485962867736817 2.0917842856612266e-17 0.024390657424926757
   vertex -0.005485962867736817 0.3 0.024390657424926757
   vertex -0.007620144367218018 2.1306539499843687e-17 0.02381036376953125
  endloop
 endfacet
 facet normal -0.17606906592845917 0.0 0.9843778610229492
  outer loop
   vertex -0.003308846473693848 0.3 0.02478006362915039
   vertex -0.005485962867736817 0.3 0.024390657424926757
   vertex -0.003308846473693848 2.040888108739789e-17 0.02478006362915039
  endloop
 endfacet
 facet normal -0.26237839460372925 0.0 0.9649651050567627
  outer loop
   vertex -0.005485962867736817 0.3 0.024390657424926757
   vertex -0.007620144367218018 0.3 0.02381036376953125
   vertex -0.007620144367218018 2.1306539499843687e-17 0.02381036376953125
  endloop
 endfacet
 facet normal -0.34663596749305725 0.0 0.9379997253417969
  outer loop
   vertex -0.007620144367218018 0.3 0.02381036376953125
   vertex -0.009694687843322754 0.3 0.02304372024536133
   vertex -0.007620144367218018 2.1306539499843687e-17 0.02381036376953125
  endloop
 endfacet
 facet normal -0.34663596749305725 0.0 0.9379997253417969
  outer loop
   vertex -0.007620144367218018 2.1306539499843687e-17 0.02381036376953125
   vertex -0.009694687843322754 0.3 0.02304372024536133
   vertex -0.009694687843322754 2.1571928474745614e-17 0.02304372024536133
  endloop
 endfacet
 facet normal -0.4281805455684662 0.0 0.9036931991577148
  outer loop
   vertex -0.009694687843322754 2.1571928474745614e-17 0.02304372024536133
   vertex -0.009694687843322754 0.3 0.02304372024536133
   vertex -0.01169335651397705 2.1711932856531383e-17 0.022096727371215822
  endloop
 endfacet
 facet normal -0.4281805455684662 0.0 0.9036931991577148
  outer loop
   vertex -0.009694687843322754 0.3 0.02304372024536133
   vertex -0.01169335651397705 0.3 0.022096727371215822
   vertex -0.01169335651397705 2.1711932856531383e-17 0.022096727371215822
  endloop
 endfacet
 facet normal -0.5063729286193848 0.0 0.8623146414756775
  outer loop
   vertex -0.01169335651397705 0.3 0.022096727371215822
   vertex -0.013600509643554687 0.3 0.02097679901123047
   vertex -0.01169335651397705 2.1711932856531383e-17 0.022096727371215822
  endloop
 endfacet
 facet normal -0.5063729286193848 0.0 0.8623146414756775
  outer loop
   vertex -0.01169335651397705 2.1711932856531383e-17 0.022096727371215822
   vertex -0.013600509643554687 0.3 0.02097679901123047
   vertex -0.013600509643554687 2.172545827863314e-17 0.02097679901123047
  endloop
 endfacet
 facet normal -0.5806025266647339 0.0 0.8141870498657227
  outer loop
   vertex -0.013600509643554687 0.3 0.02097679901123047
   vertex -0.015401220321655274 0.3 0.019692699432373048
   vertex -0.013600509643554687 2.172545827863314e-17 0.02097679901123047
  endloop
 endfacet
 facet normal -0.5806025266647339 0.0 0.8141870498657227
  outer loop
   vertex -0.013600509643554687 2.172545827863314e-17 0.02097679901123047
   vertex -0.015401220321655274 0.3 0.019692699432373048
   vertex -0.015401220321655274 2.1612396320833637e-17 0.019692699432373048
  endloop
 endfacet
 facet normal -0.6502887606620789 0.0 0.7596871256828308
  outer loop
   vertex -0.015401220321655274 2.1612396320833637e-17 0.019692699432373048
   vertex -0.015401220321655274 0.3 0.019692699432373048
   vertex -0.017081396102905273 2.13736329795957e-17 0.018254476547241213
  endloop
 endfacet
 facet normal -0.6502887606620789 0.0 0.7596871256828308
  outer loop
   vertex -0.015401220321655274 0.3 0.019692699432373048
   vertex -0.017081396102905273 0.3 0.018254476547241213
   vertex -0.017081396102905273 2.13736329795957e-17 0.018254476547241213
  endloop
 endfacet
 facet normal -0.7148855328559875 0.0 0.6992415189743042
  outer loop
   vertex -0.017081396102905273 0.3 0.018254476547241213
   vertex -0.018627885818481446 0.3 0.016673387527465822
   vertex -0.017081396102905273 2.13736329795957e-17 0.018254476547241213
  endloop
 endfacet
 facet normal -0.7148855328559875 0.0 0.6992415189743042
  outer loop
   vertex -0.017081396102905273 2.13736329795957e-17 0.018254476547241213
   vertex -0.018627885818481446 0.3 0.016673387527465822
   vertex -0.018627885818481446 2.1011036809600975e-17 0.016673387527465822
  endloop
 endfacet
 facet normal -0.7738867402076721 0.0 0.6333240270614624
  outer loop
   vertex -0.018627885818481446 0.3 0.016673387527465822
   vertex -0.020028587341308593 0.3 0.01496180820465088
   vertex -0.018627885818481446 2.1011036809600975e-17 0.016673387527465822
  endloop
 endfacet
 facet normal -0.7738867402076721 0.0 0.6333240270614624
  outer loop
   vertex -0.018627885818481446 2.1011036809600975e-17 0.016673387527465822
   vertex -0.020028587341308593 0.3 0.01496180820465088
   vertex -0.020028587341308593 2.0527447065288653e-17 0.01496180820465088
  endloop
 endfacet
 facet normal -0.8268319964408875 0.0 0.5624489784240723
  outer loop
   vertex -0.020028587341308593 2.0527447065288653e-17 0.01496180820465088
   vertex -0.020028587341308593 0.3 0.01496180820465088
   vertex -0.021272537231445312 1.9926646595801178e-17 0.01313313102722168
  endloop
 endfacet
 facet normal -0.8268319964408875 0.0 0.5624489784240723
  outer loop
   vertex -0.020028587341308593 0.3 0.01496180820465088
   vertex -0.021272537231445312 0.3 0.01313313102722168
   vertex -0.021272537231445312 1.9926646595801178e-17 0.01313313102722168
  endloop
 endfacet
 facet normal -0.8733054399490356 0.0 0.4871731102466583
  outer loop
   vertex -0.021272537231445312 0.3 0.01313313102722168
   vertex -0.02235000228881836 0.3 0.011201669692993164
   vertex -0.021272537231445312 1.9926646595801178e-17 0.01313313102722168
  endloop
 endfacet
 facet normal -0.8733054399490356 0.0 0.4871731102466583
  outer loop
   vertex -0.021272537231445312 1.9926646595801178e-17 0.01313313102722168
   vertex -0.02235000228881836 0.3 0.011201669692993164
   vertex -0.02235000228881836 1.921333643399581e-17 0.011201669692993164
  endloop
 endfacet
 facet normal -0.9129444360733032 0.0 0.40808385610580444
  outer loop
   vertex -0.02235000228881836 0.3 0.011201669692993164
   vertex -0.02325254821777344 0.3 0.009182539939880371
   vertex -0.02235000228881836 1.921333643399581e-17 0.011201669692993164
  endloop
 endfacet
 facet normal -0.9129444360733032 0.0 0.40808385610580444
  outer loop
   vertex -0.02235000228881836 1.921333643399581e-17 0.011201669692993164
   vertex -0.02325254821777344 0.3 0.009182539939880371
   vertex -0.02325254821777344 1.8393103609192634e-17 0.009182539939880371
  endloop
 endfacet
 facet normal -0.9454385638237 0.0 0.3258003890514374
  outer loop
   vertex -0.02325254821777344 0.3 0.009182539939880371
   vertex -0.02397311019897461 0.3 0.007091544628143311
   vertex -0.02325254821777344 1.8393103609192634e-17 0.009182539939880371
  endloop
 endfacet
 facet normal -0.9454385638237 0.0 0.3258003890514374
  outer loop
   vertex -0.02325254821777344 1.8393103609192634e-17 0.009182539939880371
   vertex -0.02397311019897461 0.3 0.007091544628143311
   vertex -0.02397311019897461 1.7472361854868267e-17 0.007091544628143311
  endloop
 endfacet
 facet normal -0.9705331325531006 0.0 0.24096743762493134
  outer loop
   vertex -0.02397311019897461 1.7472361854868267e-17 0.007091544628143311
   vertex -0.02397311019897461 0.3 0.007091544628143311
   vertex -0.024506050109863283 1.6458322809535624e-17 0.004945047855377197
  endloop
 endfacet
 facet normal -0.9705331325531006 0.0 0.24096743762493134
  outer loop
   vertex -0.02397311019897461 0.3 0.007091544628143311
   vertex -0.024506050109863283 0.3 0.004945047855377197
   vertex -0.024506050109863283 1.6458322809535624e-17 0.004945047855377197
  endloop
 endfacet
 facet normal -0.9880319833755493 0.0 0.1542493999004364
  outer loop
   vertex -0.024506050109863283 1.6458322809535624e-17 0.004945047855377197
   vertex -0.024847198486328125 0.3 0.0027598497867584227
   vertex -0.024847198486328125 1.53589180897128e-17 0.0027598497867584227
  endloop
 endfacet
 facet normal -0.9880319833755493 0.0 0.1542493999004364
  outer loop
   vertex -0.024506050109863283 0.3 0.004945047855377197
   vertex -0.024847198486328125 0.3 0.0027598497867584227
   vertex -0.024506050109863283 1.6458322809535624e-17 0.004945047855377197
  endloop
 endfacet
 facet normal -0.9977982044219971 0.0 0.06632224470376968
  outer loop
   vertex -0.024847198486328125 1.53589180897128e-17 0.0027598497867584227
   vertex -0.024993881225585938 0.3 0.0005530521869659424
   vertex -0.024993881225585938 1.4182756091242738e-17 0.0005530521869659424
  endloop
 endfacet
 facet normal -0.999755322933197 0.0 -0.022121500223875046
  outer loop
   vertex -0.024993881225585938 1.4182756091242738e-17 0.0005530521869659424
   vertex -0.024993881225585938 0.3 0.0005530521869659424
   vertex -0.024944955825805665 1.2939038133031462e-17 -0.001658073902130127
  endloop
 endfacet
 facet normal -0.9977982044219971 0.0 0.06632224470376968
  outer loop
   vertex -0.024847198486328125 0.3 0.0027598497867584227
   vertex -0.024993881225585938 0.3 0.0005530521869659424
   vertex -0.024847198486328125 1.53589180897128e-17 0.0027598497867584227
  endloop
 endfacet
 facet normal -0.999755322933197 0.0 -0.022121500223875046
  outer loop
   vertex -0.024993881225585938 0.3 0.0005530521869659424
   vertex -0.024944955825805665 0.3 -0.001658073902130127
   vertex -0.024944955825805665 1.2939038133031462e-17 -0.001658073902130127
  endloop
 endfacet
 facet normal -0.9938878417015076 0.0 -0.11039447784423828
  outer loop
   vertex -0.024944955825805665 1.2939038133031462e-17 -0.001658073902130127
   vertex -0.024700799942016603 0.3 -0.0038562233448028566
   vertex -0.024700799942016603 1.1637500011774712e-17 -0.0038562233448028566
  endloop
 endfacet
 facet normal -0.9938878417015076 -0.0 -0.11039447784423828
  outer loop
   vertex -0.024944955825805665 0.3 -0.001658073902130127
   vertex -0.024700799942016603 0.3 -0.0038562233448028566
   vertex -0.024944955825805665 1.2939038133031462e-17 -0.001658073902130127
  endloop
 endfacet
 facet normal -0.9802420735359192 0.0 -0.19780167937278748
  outer loop
   vertex -0.024700799942016603 1.1637500011774712e-17 -0.0038562233448028566
   vertex -0.024263328552246093 0.3 -0.006024192333221436
   vertex -0.024263328552246093 1.028832814569617e-17 -0.006024192333221436
  endloop
 endfacet
 facet normal -0.9589245319366455 0.0 -0.2836615741252899
  outer loop
   vertex -0.024263328552246093 1.028832814569617e-17 -0.006024192333221436
   vertex -0.024263328552246093 0.3 -0.006024192333221436
   vertex -0.023635963439941406 8.90208080048336e-18 -0.008145014762878417
  endloop
 endfacet
 facet normal -0.9802420735359192 -0.0 -0.19780167937278748
  outer loop
   vertex -0.024700799942016603 0.3 -0.0038562233448028566
   vertex -0.024263328552246093 0.3 -0.006024192333221436
   vertex -0.024700799942016603 1.1637500011774712e-17 -0.0038562233448028566
  endloop
 endfacet
 facet normal -0.9589245319366455 0.0 -0.2836615741252899
  outer loop
   vertex -0.024263328552246093 0.3 -0.006024192333221436
   vertex -0.023635963439941406 0.3 -0.008145014762878417
   vertex -0.023635963439941406 8.90208080048336e-18 -0.008145014762878417
  endloop
 endfacet
 facet normal -0.9301018118858337 0.0 -0.3673018217086792
  outer loop
   vertex -0.023635963439941406 8.90208080048336e-18 -0.008145014762878417
   vertex -0.0228236141204834 0.3 -0.010202090263366699
   vertex -0.0228236141204834 7.489607621157662e-18 -0.010202090263366699
  endloop
 endfacet
 facet normal -0.9301018118858337 -0.0 -0.3673018217086792
  outer loop
   vertex -0.023635963439941406 0.3 -0.008145014762878417
   vertex -0.0228236141204834 0.3 -0.010202090263366699
   vertex -0.023635963439941406 8.90208080048336e-18 -0.008145014762878417
  endloop
 endfacet
 facet normal -0.8940001130104065 0.0 -0.4480666518211365
  outer loop
   vertex -0.0228236141204834 7.489607621157662e-18 -0.010202090263366699
   vertex -0.021832639694213868 0.3 -0.0121793212890625
   vertex -0.021832639694213868 6.061963234713693e-18 -0.0121793212890625
  endloop
 endfacet
 facet normal -0.8940001130104065 -0.0 -0.4480666518211365
  outer loop
   vertex -0.0228236141204834 0.3 -0.010202090263366699
   vertex -0.021832639694213868 0.3 -0.0121793212890625
   vertex -0.0228236141204834 7.489607621157662e-18 -0.010202090263366699
  endloop
 endfacet
 facet normal -0.8509016036987305 0.0 -0.5253250598907471
  outer loop
   vertex -0.021832639694213868 6.061963234713693e-18 -0.0121793212890625
   vertex -0.02067079544067383 0.3 -0.014061232566833497
   vertex -0.02067079544067383 4.6303208527586834e-18 -0.014061232566833497
  endloop
 endfacet
 facet normal -0.8011434674263 0.0 -0.5984722971916199
  outer loop
   vertex -0.02067079544067383 4.6303208527586834e-18 -0.014061232566833497
   vertex -0.02067079544067383 0.3 -0.014061232566833497
   vertex -0.0193471736907959 3.2058848153606768e-18 -0.01583309555053711
  endloop
 endfacet
 facet normal -0.8509016036987305 -0.0 -0.5253250598907471
  outer loop
   vertex -0.021832639694213868 0.3 -0.0121793212890625
   vertex -0.02067079544067383 0.3 -0.014061232566833497
   vertex -0.021832639694213868 6.061963234713693e-18 -0.0121793212890625
  endloop
 endfacet
 facet normal -0.8011434674263 0.0 -0.5984722971916199
  outer loop
   vertex -0.02067079544067383 0.3 -0.014061232566833497
   vertex -0.0193471736907959 0.3 -0.01583309555053711
   vertex -0.0193471736907959 3.2058848153606768e-18 -0.01583309555053711
  endloop
 endfacet
 facet normal -0.7451151609420776 0.0 -0.6669358015060425
  outer loop
   vertex -0.0193471736907959 3.2058848153606768e-18 -0.01583309555053711
   vertex -0.017872133255004884 0.3 -0.017481042861938478
   vertex -0.017872133255004884 1.79980334665496e-18 -0.017481042861938478
  endloop
 endfacet
 facet normal -0.7451151609420776 -0.0 -0.6669358015060425
  outer loop
   vertex -0.0193471736907959 0.3 -0.01583309555053711
   vertex -0.017872133255004884 0.3 -0.017481042861938478
   vertex -0.0193471736907959 3.2058848153606768e-18 -0.01583309555053711
  endloop
 endfacet
 facet normal -0.6832557320594788 0.0 -0.7301790714263916
  outer loop
   vertex -0.017872133255004884 1.79980334665496e-18 -0.017481042861938478
   vertex -0.016257219314575196 0.3 -0.018992177963256838
   vertex -0.016257219314575196 4.230810192829227e-19 -0.018992177963256838
  endloop
 endfacet
 facet normal -0.6160484552383423 0.0 -0.7877081632614136
  outer loop
   vertex -0.016257219314575196 4.230810192829227e-19 -0.018992177963256838
   vertex -0.016257219314575196 0.3 -0.018992177963256838
   vertex -0.014515071868896485 -9.135075635592259e-19 -0.020354671478271486
  endloop
 endfacet
 facet normal -0.6832557320594788 -0.0 -0.7301790714263916
  outer loop
   vertex -0.017872133255004884 0.3 -0.017481042861938478
   vertex -0.016257219314575196 0.3 -0.018992177963256838
   vertex -0.017872133255004884 1.79980334665496e-18 -0.017481042861938478
  endloop
 endfacet
 facet normal -0.6160484552383423 0.0 -0.7877081632614136
  outer loop
   vertex -0.016257219314575196 0.3 -0.018992177963256838
   vertex -0.014515071868896485 0.3 -0.020354671478271486
   vertex -0.014515071868896485 -9.135075635592259e-19 -0.020354671478271486
  endloop
 endfacet
 facet normal -0.5440208911895752 -0.0 -0.8390716910362244
  outer loop
   vertex -0.014515071868896485 0.3 -0.020354671478271486
   vertex -0.012659323692321778 0.3 -0.021557865142822267
   vertex -0.014515071868896485 -9.135075635592259e-19 -0.020354671478271486
  endloop
 endfacet
 facet normal -0.5440208911895752 0.0 -0.8390716910362244
  outer loop
   vertex -0.014515071868896485 -9.135075635592259e-19 -0.020354671478271486
   vertex -0.012659323692321778 0.3 -0.021557865142822267
   vertex -0.012659323692321778 -2.199501677321793e-18 -0.021557865142822267
  endloop
 endfacet
 facet normal -0.4677339196205139 -0.0 -0.8838693499565125
  outer loop
   vertex -0.012659323692321778 0.3 -0.021557865142822267
   vertex -0.010704499244689941 0.3 -0.022592336654663085
   vertex -0.012659323692321778 -2.199501677321793e-18 -0.021557865142822267
  endloop
 endfacet
 facet normal -0.4677339196205139 0.0 -0.8838693499565125
  outer loop
   vertex -0.012659323692321778 -2.199501677321793e-18 -0.021557865142822267
   vertex -0.010704499244689941 0.3 -0.022592336654663085
   vertex -0.010704499244689941 -3.4248366912370457e-18 -0.022592336654663085
  endloop
 endfacet
 facet normal -0.38778746128082275 0.0 -0.9217488765716553
  outer loop
   vertex -0.010704499244689941 -3.4248366912370457e-18 -0.022592336654663085
   vertex -0.010704499244689941 0.3 -0.022592336654663085
   vertex -0.008665898323059083 -4.579922815913526e-18 -0.023449993133544924
  endloop
 endfacet
 facet normal -0.38778746128082275 0.0 -0.9217488765716553
  outer loop
   vertex -0.010704499244689941 0.3 -0.022592336654663085
   vertex -0.008665898323059083 0.3 -0.023449993133544924
   vertex -0.008665898323059083 -4.579922815913526e-18 -0.023449993133544924
  endloop
 endfacet
 facet normal -0.3048059642314911 -0.0 -0.9524145126342773
  outer loop
   vertex -0.008665898323059083 0.3 -0.023449993133544924
   vertex -0.006559473991394043 0.3 -0.024124122619628905
   vertex -0.008665898323059083 -4.579922815913526e-18 -0.023449993133544924
  endloop
 endfacet
 facet normal -0.3048059642314911 0.0 -0.9524145126342773
  outer loop
   vertex -0.008665898323059083 -4.579922815913526e-18 -0.023449993133544924
   vertex -0.006559473991394043 0.3 -0.024124122619628905
   vertex -0.006559473991394043 -5.655719456946953e-18 -0.024124122619628905
  endloop
 endfacet
 facet normal -0.21943843364715576 -0.0 -0.9756263494491577
  outer loop
   vertex -0.006559473991394043 0.3 -0.024124122619628905
   vertex -0.004401712894439697 0.3 -0.024609447479248047
   vertex -0.006559473991394043 -5.655719456946953e-18 -0.024124122619628905
  endloop
 endfacet
 facet normal -0.21943843364715576 0.0 -0.9756263494491577
  outer loop
   vertex -0.006559473991394043 -5.655719456946953e-18 -0.024124122619628905
   vertex -0.004401712894439697 0.3 -0.024609447479248047
   vertex -0.004401712894439697 -6.643807953874564e-18 -0.024609447479248047
  endloop
 endfacet
 facet normal -0.13235385715961456 0.0 -0.9912025928497314
  outer loop
   vertex -0.004401712894439697 -6.643807953874564e-18 -0.024609447479248047
   vertex -0.004401712894439697 0.3 -0.024609447479248047
   vertex -0.002209502696990967 -7.536454472371456e-18 -0.024902170181274413
  endloop
 endfacet
 facet normal -0.13235385715961456 0.0 -0.9912025928497314
  outer loop
   vertex -0.004401712894439697 0.3 -0.024609447479248047
   vertex -0.002209502696990967 0.3 -0.024902170181274413
   vertex -0.002209502696990967 -7.536454472371456e-18 -0.024902170181274413
  endloop
 endfacet
 facet normal -0.04423351213335991 -0.0 -0.9990212321281433
  outer loop
   vertex -0.002209502696990967 0.3 -0.024902170181274413
   vertex 8.049116928532385e-17 0.3 -0.025
   vertex -0.002209502696990967 -7.536454472371456e-18 -0.024902170181274413
  endloop
 endfacet
 facet normal -0.04423351213335991 0.0 -0.9990212321281433
  outer loop
   vertex -0.002209502696990967 -7.536454472371456e-18 -0.024902170181274413
   vertex 8.049116928532385e-17 0.3 -0.025
   vertex 1.3877787807814457e-17 -8.326672684688674e-18 -0.025
  endloop
 endfacet
endsolid patch_1_0
solid patch_2_0
 facet normal 0.0 1.0 0.0
  outer loop
   vertex -0.014515071868896485 0.3 -0.020354671478271486
   vertex -0.017872133255004884 0.3 -0.017481042861938478
   vertex -0.0193471736907959 0.3 -0.01583309555053711
  endloop
 endfacet
 facet normal 0.0 1.0 0.0
  outer loop
   vertex -0.014515071868896485 0.3 -0.020354671478271486
   vertex -0.016257219314575196 0.3 -0.018992177963256838
   vertex -0.017872133255004884 0.3 -0.017481042861938478
  endloop
 endfacet
 facet normal 0.0 1.0 0.0
  outer loop
   vertex -0.010704499244689941 0.3 -0.022592336654663085
   vertex -0.012659323692321778 0.3 -0.021557865142822267
   vertex -0.014515071868896485 0.3 -0.020354671478271486
  endloop
 endfacet
 facet normal 0.0 1.0 0.0
  outer loop
   vertex -0.010704499244689941 0.3 -0.022592336654663085
   vertex -0.014515071868896485 0.3 -0.020354671478271486
   vertex -0.0193471736907959 0.3 -0.01583309555053711
  endloop
 endfacet
 facet normal 0.0 1.0 0.0
  outer loop
   vertex -0.0228236141204834 0.3 -0.010202090263366699
   vertex -0.02067079544067383 0.3 -0.014061232566833497
   vertex -0.021832639694213868 0.3 -0.0121793212890625
  endloop
 endfacet
 facet normal 0.0 1.0 0.0
  outer loop
   vertex -0.0228236141204834 0.3 -0.010202090263366699
   vertex -0.0193471736907959 0.3 -0.01583309555053711
   vertex -0.02067079544067383 0.3 -0.014061232566833497
  endloop
 endfacet
 facet normal 0.0 1.0 0.0
  outer loop
   vertex -0.023635963439941406 0.3 -0.008145014762878417
   vertex -0.0193471736907959 0.3 -0.01583309555053711
   vertex -0.0228236141204834 0.3 -0.010202090263366699
  endloop
 endfacet
 facet normal 0.0 1.0 0.0
  outer loop
   vertex -0.004401712894439697 0.3 -0.024609447479248047
   vertex -0.008665898323059083 0.3 -0.023449993133544924
   vertex -0.010704499244689941 0.3 -0.022592336654663085
  endloop
 endfacet
 facet normal 0.0 1.0 0.0
  outer loop
   vertex -0.004401712894439697 0.3 -0.024609447479248047
   vertex -0.006559473991394043 0.3 -0.024124122619628905
   vertex -0.008665898323059083 0.3 -0.023449993133544924
  endloop
 endfacet
 facet normal 0.0 1.0 0.0
  outer loop
   vertex -0.004401712894439697 0.3 -0.024609447479248047
   vertex -0.010704499244689941 0.3 -0.022592336654663085
   vertex -0.0193471736907959 0.3 -0.01583309555053711
  endloop
 endfacet
 facet normal 0.0 1.0 0.0
  outer loop
   vertex -0.024944955825805665 0.3 -0.001658073902130127
   vertex -0.024263328552246093 0.3 -0.006024192333221436
   vertex -0.024700799942016603 0.3 -0.0038562233448028566
  endloop
 endfacet
 facet normal 0.0 1.0 0.0
  outer loop
   vertex -0.024993881225585938 0.3 0.0005530521869659424
   vertex -0.024263328552246093 0.3 -0.006024192333221436
   vertex -0.024944955825805665 0.3 -0.001658073902130127
  endloop
 endfacet
 facet normal 0.0 1.0 0.0
  outer loop
   vertex -0.024993881225585938 0.3 0.0005530521869659424
   vertex -0.023635963439941406 0.3 -0.008145014762878417
   vertex -0.024263328552246093 0.3 -0.006024192333221436
  endloop
 endfacet
 facet normal 0.0 1.0 0.0
  outer loop
   vertex -0.024993881225585938 0.3 0.0005530521869659424
   vertex -0.0193471736907959 0.3 -0.01583309555053711
   vertex -0.023635963439941406 0.3 -0.008145014762878417
  endloop
 endfacet
 facet normal 0.0 1.0 0.0
  outer loop
   vertex 0.002209502696990967 0.3 -0.024902170181274413
   vertex -0.002209502696990967 0.3 -0.024902170181274413
   vertex -0.004401712894439697 0.3 -0.024609447479248047
  endloop
 endfacet
 facet normal 0.0 1.0 0.0
  outer loop
   vertex 0.002209502696990967 0.3 -0.024902170181274413
   vertex 8.049116928532385e-17 0.3 -0.025
   vertex -0.002209502696990967 0.3 -0.024902170181274413
  endloop
 endfacet
 facet normal 0.0 1.0 0.0
  outer loop
   vertex 0.004401712894439697 0.3 -0.024609447479248047
   vertex 0.002209502696990967 0.3 -0.024902170181274413
   vertex -0.004401712894439697 0.3 -0.024609447479248047
  endloop
 endfacet
 facet normal 0.0 1.0 0.0
  outer loop
   vertex -0.02397311019897461 0.3 0.007091544628143311
   vertex -0.024847198486328125 0.3 0.0027598497867584227
   vertex -0.024506050109863283 0.3 0.004945047855377197
  endloop
 endfacet
 facet normal 0.0 1.0 0.0
  outer loop
   vertex 0.010704499244689941 0.3 -0.022592336654663085
   vertex 0.006559473991394043 0.3 -0.024124122619628905
   vertex 0.004401712894439697 0.3 -0.024609447479248047
  endloop
 endfacet
 facet normal 0.0 1.0 0.0
  outer loop
   vertex 0.010704499244689941 0.3 -0.022592336654663085
   vertex 0.008665898323059083 0.3 -0.023449993133544924
   vertex 0.006559473991394043 0.3 -0.024124122619628905
  endloop
 endfacet
 facet normal 0.0 1.0 0.0
  outer loop
   vertex 0.010704499244689941 0.3 -0.022592336654663085
   vertex 0.004401712894439697 0.3 -0.024609447479248047
   vertex -0.004401712894439697 0.3 -0.024609447479248047
  endloop
 endfacet
 facet normal 0.0 1.0 0.0
  outer loop
   vertex -0.02235000228881836 0.3 0.011201669692993164
   vertex -0.024847198486328125 0.3 0.0027598497867584227
   vertex -0.02397311019897461 0.3 0.007091544628143311
  endloop
 endfacet
 facet normal 0.0 1.0 0.0
  outer loop
   vertex -0.02235000228881836 0.3 0.011201669692993164
   vertex -0.02397311019897461 0.3 0.007091544628143311
   vertex -0.02325254821777344 0.3 0.009182539939880371
  endloop
 endfacet
 facet normal 0.0 1.0 0.0
  outer loop
   vertex -0.02235000228881836 0.3 0.011201669692993164
   vertex -0.024993881225585938 0.3 0.0005530521869659424
   vertex -0.024847198486328125 0.3 0.0027598497867584227
  endloop
 endfacet
 facet normal 0.0 1.0 0.0
  outer loop
   vertex -0.021272537231445312 0.3 0.01313313102722168
   vertex -0.024993881225585938 0.3 0.0005530521869659424
   vertex -0.02235000228881836 0.3 0.011201669692993164
  endloop
 endfacet
 facet normal 0.0 1.0 0.0
  outer loop
   vertex -0.021272537231445312 0.3 0.01313313102722168
   vertex -0.0193471736907959 0.3 -0.01583309555053711
   vertex -0.024993881225585938 0.3 0.0005530521869659424
  endloop
 endfacet
 facet normal 0.0 1.0 0.0
  outer loop
   vertex 0.014515071868896485 0.3 -0.020354671478271486
   vertex 0.012659323692321778 0.3 -0.021557865142822267
   vertex 0.010704499244689941 0.3 -0.022592336654663085
  endloop
 endfacet
 facet normal 0.0 1.0 0.0
  outer loop
   vertex 0.014515071868896485 0.3 -0.020354671478271486
   vertex 0.010704499244689941 0.3 -0.022592336654663085
   vertex -0.004401712894439697 0.3 -0.024609447479248047
  endloop
 endfacet
 facet normal 0.0 1.0 0.0
  outer loop
   vertex -0.018627885818481446 0.3 0.016673387527465822
   vertex -0.021272537231445312 0.3 0.01313313102722168
   vertex -0.020028587341308593 0.3 0.01496180820465088
  endloop
 endfacet
 facet normal 0.0 1.0 0.0
  outer loop
   vertex -0.017081396102905273 0.3 0.018254476547241213
   vertex -0.021272537231445312 0.3 0.01313313102722168
   vertex -0.018627885818481446 0.3 0.016673387527465822
  endloop
 endfacet
 facet normal 0.0 1.0 0.0
  outer loop
   vertex 0.0193471736907959 0.3 -0.01583309555053711
   vertex 0.016257219314575196 0.3 -0.018992177963256838
   vertex 0.014515071868896485 0.3 -0.020354671478271486
  endloop
 endfacet
 facet normal 0.0 1.0 0.0
  outer loop
   vertex 0.0193471736907959 0.3 -0.01583309555053711
   vertex 0.017872133255004884 0.3 -0.017481042861938478
   vertex 0.016257219314575196 0.3 -0.018992177963256838
  endloop
 endfacet
 facet normal 0.0 1.0 0.0
  outer loop
   vertex 0.0193471736907959 0.3 -0.01583309555053711
   vertex 0.014515071868896485 0.3 -0.020354671478271486
   vertex -0.004401712894439697 0.3 -0.024609447479248047
  endloop
 endfacet
 facet normal 0.0 1.0 0.0
  outer loop
   vertex 0.021832639694213868 0.3 -0.0121793212890625
   vertex -0.004401712894439697 0.3 -0.024609447479248047
   vertex -0.0193471736907959 0.3 -0.01583309555053711
  endloop
 endfacet
 facet normal 0.0 1.0 0.0
  outer loop
   vertex 0.021832639694213868 0.3 -0.0121793212890625
   vertex 0.02067079544067383 0.3 -0.014061232566833497
   vertex 0.0193471736907959 0.3 -0.01583309555053711
  endloop
 endfacet
 facet normal 0.0 1.0 0.0
  outer loop
   vertex 0.021832639694213868 0.3 -0.0121793212890625
   vertex 0.0193471736907959 0.3 -0.01583309555053711
   vertex -0.004401712894439697 0.3 -0.024609447479248047
  endloop
 endfacet
 facet normal 0.0 1.0 0.0
  outer loop
   vertex -0.01169335651397705 0.3 0.022096727371215822
   vertex -0.015401220321655274 0.3 0.019692699432373048
   vertex -0.013600509643554687 0.3 0.02097679901123047
  endloop
 endfacet
 facet normal 0.0 1.0 0.0
  outer loop
   vertex -0.01169335651397705 0.3 0.022096727371215822
   vertex -0.017081396102905273 0.3 0.018254476547241213
   vertex -0.015401220321655274 0.3 0.019692699432373048
  endloop
 endfacet
 facet normal 0.0 1.0 0.0
  outer loop
   vertex -0.009694687843322754 0.3 0.02304372024536133
   vertex -0.021272537231445312 0.3 0.01313313102722168
   vertex -0.017081396102905273 0.3 0.018254476547241213
  endloop
 endfacet
 facet normal 0.0 1.0 0.0
  outer loop
   vertex -0.009694687843322754 0.3 0.02304372024536133
   vertex -0.017081396102905273 0.3 0.018254476547241213
   vertex -0.01169335651397705 0.3 0.022096727371215822
  endloop
 endfacet
 facet normal 0.0 1.0 0.0
  outer loop
   vertex 0.024700799942016603 0.3 -0.0038562233448028566
   vertex 0.023635963439941406 0.3 -0.008145014762878417
   vertex 0.0228236141204834 0.3 -0.010202090263366699
  endloop
 endfacet
 facet normal 0.0 1.0 0.0
  outer loop
   vertex 0.024700799942016603 0.3 -0.0038562233448028566
   vertex 0.024263328552246093 0.3 -0.006024192333221436
   vertex 0.023635963439941406 0.3 -0.008145014762878417
  endloop
 endfacet
 facet normal 0.0 1.0 0.0
  outer loop
   vertex -0.001105833649635315 0.3 0.02497553062438965
   vertex -0.005485962867736817 0.3 0.024390657424926757
   vertex -0.003308846473693848 0.3 0.02478006362915039
  endloop
 endfacet
 facet normal 0.0 1.0 0.0
  outer loop
   vertex -0.001105833649635315 0.3 0.02497553062438965
   vertex -0.007620144367218018 0.3 0.02381036376953125
   vertex -0.005485962867736817 0.3 0.024390657424926757
  endloop
 endfacet
 facet normal 0.0 1.0 0.0
  outer loop
   vertex -0.001105833649635315 0.3 0.02497553062438965
   vertex -0.009694687843322754 0.3 0.02304372024536133
   vertex -0.007620144367218018 0.3 0.02381036376953125
  endloop
 endfacet
 facet normal 0.0 1.0 0.0
  outer loop
   vertex -0.001105833649635315 0.3 0.02497553062438965
   vertex -0.021272537231445312 0.3 0.01313313102722168
   vertex -0.009694687843322754 0.3 0.02304372024536133
  endloop
 endfacet
 facet normal 0.0 1.0 0.0
  outer loop
   vertex 0.024993881225585938 0.3 0.0005530521869659424
   vertex 0.024944955825805665 0.3 -0.001658073902130127
   vertex 0.024700799942016603 0.3 -0.0038562233448028566
  endloop
 endfacet
 facet normal 0.0 1.0 0.0
  outer loop
   vertex 0.024993881225585938 0.3 0.0005530521869659424
   vertex 0.024700799942016603 0.3 -0.0038562233448028566
   vertex 0.0228236141204834 0.3 -0.010202090263366699
  endloop
 endfacet
 facet normal 0.0 1.0 0.0
  outer loop
   vertex 0.003308846473693848 0.3 0.02478006362915039
   vertex -0.001105833649635315 0.3 0.02497553062438965
   vertex 0.001105833649635315 0.3 0.02497553062438965
  endloop
 endfacet
 facet normal 0.0 1.0 0.0
  outer loop
   vertex 0.005485962867736817 0.3 0.024390657424926757
   vertex -0.021272537231445312 0.3 0.01313313102722168
   vertex -0.001105833649635315 0.3 0.02497553062438965
  endloop
 endfacet
 facet normal 0.0 1.0 0.0
  outer loop
   vertex 0.005485962867736817 0.3 0.024390657424926757
   vertex -0.001105833649635315 0.3 0.02497553062438965
   vertex 0.003308846473693848 0.3 0.02478006362915039
  endloop
 endfacet
 facet normal 0.0 1.0 0.0
  outer loop
   vertex 0.007620144367218018 0.3 0.02381036376953125
   vertex -0.021272537231445312 0.3 0.01313313102722168
   vertex 0.005485962867736817 0.3 0.024390657424926757
  endloop
 endfacet
 facet normal 0.0 1.0 0.0
  outer loop
   vertex 0.02325254821777344 0.3 0.009182539939880371
   vertex 0.024847198486328125 0.3 0.0027598497867584227
   vertex 0.024993881225585938 0.3 0.0005530521869659424
  endloop
 endfacet
 facet normal 0.0 1.0 0.0
  outer loop
   vertex 0.02325254821777344 0.3 0.009182539939880371
   vertex 0.024506050109863283 0.3 0.004945047855377197
   vertex 0.024847198486328125 0.3 0.0027598497867584227
  endloop
 endfacet
 facet normal 0.0 1.0 0.0
  outer loop
   vertex 0.02325254821777344 0.3 0.009182539939880371
   vertex 0.02397311019897461 0.3 0.007091544628143311
   vertex 0.024506050109863283 0.3 0.004945047855377197
  endloop
 endfacet
 facet normal 0.0 1.0 0.0
  outer loop
   vertex 0.020028587341308593 0.3 0.01496180820465088
   vertex 0.021272537231445312 0.3 0.01313313102722168
   vertex 0.02235000228881836 0.3 0.011201669692993164
  endloop
 endfacet
 facet normal 0.0 1.0 0.0
  outer loop
   vertex 0.018627885818481446 0.3 0.016673387527465822
   vertex 0.020028587341308593 0.3 0.01496180820465088
   vertex 0.02235000228881836 0.3 0.011201669692993164
  endloop
 endfacet
 facet normal 0.0 1.0 0.0
  outer loop
   vertex 0.018627885818481446 0.3 0.016673387527465822
   vertex 0.0228236141204834 0.3 -0.010202090263366699
   vertex 0.021832639694213868 0.3 -0.0121793212890625
  endloop
 endfacet
 facet normal 0.0 1.0 0.0
  outer loop
   vertex 0.018627885818481446 0.3 0.016673387527465822
   vertex -0.0193471736907959 0.3 -0.01583309555053711
   vertex -0.021272537231445312 0.3 0.01313313102722168
  endloop
 endfacet
 facet normal 0.0 1.0 0.0
  outer loop
   vertex 0.018627885818481446 0.3 0.016673387527465822
   vertex 0.02235000228881836 0.3 0.011201669692993164
   vertex 0.02325254821777344 0.3 0.009182539939880371
  endloop
 endfacet
 facet normal 0.0 1.0 0.0
  outer loop
   vertex 0.018627885818481446 0.3 0.016673387527465822
   vertex 0.021832639694213868 0.3 -0.0121793212890625
   vertex -0.0193471736907959 0.3 -0.01583309555053711
  endloop
 endfacet
 facet normal 0.0 1.0 0.0
  outer loop
   vertex 0.018627885818481446 0.3 0.016673387527465822
   vertex 0.024993881225585938 0.3 0.0005530521869659424
   vertex 0.0228236141204834 0.3 -0.010202090263366699
  endloop
 endfacet
 facet normal 0.0 1.0 0.0
  outer loop
   vertex 0.018627885818481446 0.3 0.016673387527465822
   vertex -0.021272537231445312 0.3 0.01313313102722168
   vertex 0.007620144367218018 0.3 0.02381036376953125
  endloop
 endfacet
 facet normal 0.0 1.0 0.0
  outer loop
   vertex 0.018627885818481446 0.3 0.016673387527465822
   vertex 0.02325254821777344 0.3 0.009182539939880371
   vertex 0.024993881225585938 0.3 0.0005530521869659424
  endloop
 endfacet
 facet normal 0.0 1.0 0.0
  outer loop
   vertex 0.017081396102905273 0.3 0.018254476547241213
   vertex 0.018627885818481446 0.3 0.016673387527465822
   vertex 0.007620144367218018 0.3 0.02381036376953125
  endloop
 endfacet
 facet normal 0.0 1.0 0.0
  outer loop
   vertex 0.017081396102905273 0.3 0.018254476547241213
   vertex 0.013600509643554687 0.3 0.02097679901123047
   vertex 0.015401220321655274 0.3 0.019692699432373048
  endloop
 endfacet
 facet normal 0.0 1.0 0.0
  outer loop
   vertex 0.017081396102905273 0.3 0.018254476547241213
   vertex 0.01169335651397705 0.3 0.022096727371215822
   vertex 0.013600509643554687 0.3 0.02097679901123047
  endloop
 endfacet
 facet normal 0.0 1.0 0.0
  outer loop
   vertex 0.017081396102905273 0.3 0.018254476547241213
   vertex 0.009694687843322754 0.3 0.02304372024536133
   vertex 0.01169335651397705 0.3 0.022096727371215822
  endloop
 endfacet
 facet normal 0.0 1.0 0.0
  outer loop
   vertex 0.017081396102905273 0.3 0.018254476547241213
   vertex 0.007620144367218018 0.3 0.02381036376953125
   vertex 0.009694687843322754 0.3 0.02304372024536133
  endloop
 endfacet
endsolid patch_2_0
solid patch_3_0
 facet normal -3.3306796617873103e-16 -1.0 5.551107711587494e-16
  outer loop
   vertex -0.017872133255004884 1.79980334665496e-18 -0.017481042861938478
   vertex -0.014515071868896485 -9.135075635592259e-19 -0.020354671478271486
   vertex -0.0193471736907959 3.2058848153606768e-18 -0.01583309555053711
  endloop
 endfacet
 facet normal -3.3307259839016133e-16 -1.0 5.551057948401843e-16
  outer loop
   vertex -0.016257219314575196 4.230810192829227e-19 -0.018992177963256838
   vertex -0.014515071868896485 -9.135075635592259e-19 -0.020354671478271486
   vertex -0.017872133255004884 1.79980334665496e-18 -0.017481042861938478
  endloop
 endfacet
 facet normal -3.3306677503864895e-16 -1.0 5.551111417356638e-16
  outer loop
   vertex -0.0193471736907959 3.2058848153606768e-18 -0.01583309555053711
   vertex -0.021832639694213868 6.061963234713693e-18 -0.0121793212890625
   vertex -0.02067079544067383 4.6303208527586834e-18 -0.014061232566833497
  endloop
 endfacet
 facet normal -3.330706660962504e-16 -1.0 5.551047889885594e-16
  outer loop
   vertex -0.012659323692321778 -2.199501677321793e-18 -0.021557865142822267
   vertex -0.010704499244689941 -3.4248366912370457e-18 -0.022592336654663085
   vertex -0.014515071868896485 -9.135075635592259e-19 -0.020354671478271486
  endloop
 endfacet
 facet normal -3.3306651034085294e-16 -1.0 5.551118828894927e-16
  outer loop
   vertex -0.014515071868896485 -9.135075635592259e-19 -0.020354671478271486
   vertex -0.010704499244689941 -3.4248366912370457e-18 -0.022592336654663085
   vertex -0.0193471736907959 3.2058848153606768e-18 -0.01583309555053711
  endloop
 endfacet
 facet normal -3.330660603545997e-16 -1.0 5.551123593455255e-16
  outer loop
   vertex -0.021832639694213868 6.061963234713693e-18 -0.0121793212890625
   vertex -0.023635963439941406 8.90208080048336e-18 -0.008145014762878417
   vertex -0.0228236141204834 7.489607621157662e-18 -0.010202090263366699
  endloop
 endfacet
 facet normal -3.3306476333539922e-16 -1.0 5.551178121201235e-16
  outer loop
   vertex -0.008665898323059083 -4.579922815913526e-18 -0.023449993133544924
   vertex -0.006559473991394043 -5.655719456946953e-18 -0.024124122619628905
   vertex -0.010704499244689941 -3.4248366912370457e-18 -0.022592336654663085
  endloop
 endfacet
 facet normal -3.3306831028586585e-16 -1.0 5.551113534939007e-16
  outer loop
   vertex -0.024263328552246093 1.028832814569617e-17 -0.006024192333221436
   vertex -0.024944955825805665 1.2939038133031462e-17 -0.001658073902130127
   vertex -0.024700799942016603 1.1637500011774712e-17 -0.0038562233448028566
  endloop
 endfacet
 facet normal -3.330672250249022e-16 -1.0 5.551115123125783e-16
  outer loop
   vertex -0.023635963439941406 8.90208080048336e-18 -0.008145014762878417
   vertex -0.024944955825805665 1.2939038133031462e-17 -0.001658073902130127
   vertex -0.024263328552246093 1.028832814569617e-17 -0.006024192333221436
  endloop
 endfacet
 facet normal -3.3306658975019174e-16 -1.0 5.551116711312559e-16
  outer loop
   vertex -0.021832639694213868 6.061963234713693e-18 -0.0121793212890625
   vertex -0.024993881225585938 1.4182756091242738e-17 0.0005530521869659424
   vertex -0.023635963439941406 8.90208080048336e-18 -0.008145014762878417
  endloop
 endfacet
 facet normal -3.3306354572553755e-16 -1.0 5.551119358290519e-16
  outer loop
   vertex -0.023635963439941406 8.90208080048336e-18 -0.008145014762878417
   vertex -0.024993881225585938 1.4182756091242738e-17 0.0005530521869659424
   vertex -0.024944955825805665 1.2939038133031462e-17 -0.001658073902130127
  endloop
 endfacet
 facet normal -3.3306680150842856e-16 -1.0 5.551092888510917e-16
  outer loop
   vertex 1.3877787807814457e-17 -8.326672684688674e-18 -0.025
   vertex 0.002209502696990967 -9.008278403278315e-18 -0.024902170181274413
   vertex -0.002209502696990967 -7.536454472371456e-18 -0.024902170181274413
  endloop
 endfacet
 facet normal -3.3306677503864895e-16 -1.0 5.551087594554997e-16
  outer loop
   vertex 0.002209502696990967 -9.008278403278315e-18 -0.024902170181274413
   vertex 0.004401712894439697 -9.575937861671519e-18 -0.024609447479248047
   vertex -0.002209502696990967 -7.536454472371456e-18 -0.024902170181274413
  endloop
 endfacet
 facet normal -3.33079798170213e-16 -1.0 5.551141592905384e-16
  outer loop
   vertex -0.024847198486328125 1.53589180897128e-17 0.0027598497867584227
   vertex -0.02397311019897461 1.7472361854868267e-17 0.007091544628143311
   vertex -0.024506050109863283 1.6458322809535624e-17 0.004945047855377197
  endloop
 endfacet
 facet normal -3.3306534567055046e-16 -1.0 5.551054772028291e-16
  outer loop
   vertex 0.006559473991394043 -1.0025206677994042e-17 -0.024124122619628905
   vertex 0.008665898323059083 -1.0352570512547724e-17 -0.023449993133544924
   vertex 0.004401712894439697 -9.575937861671519e-18 -0.024609447479248047
  endloop
 endfacet
 facet normal -3.3306693385732656e-16 -1.0 5.551115123125783e-16
  outer loop
   vertex 0.004401712894439697 -9.575937861671519e-18 -0.024609447479248047
   vertex 0.008665898323059083 -1.0352570512547724e-17 -0.023449993133544924
   vertex -0.002209502696990967 -7.536454472371456e-18 -0.024902170181274413
  endloop
 endfacet
 facet normal -3.3305393719554213e-16 -1.0 5.551051595654739e-16
  outer loop
   vertex -0.02325254821777344 1.8393103609192634e-17 0.009182539939880371
   vertex -0.021272537231445312 1.9926646595801178e-17 0.01313313102722168
   vertex -0.02235000228881836 1.921333643399581e-17 0.011201669692993164
  endloop
 endfacet
 facet normal -3.3306523979143206e-16 -1.0 5.551081771203485e-16
  outer loop
   vertex 0.010704499244689941 -1.055546539660123e-17 -0.022592336654663085
   vertex 0.014515071868896485 -1.0582488288717485e-17 -0.020354671478271486
   vertex 0.008665898323059083 -1.0352570512547724e-17 -0.023449993133544924
  endloop
 endfacet
 facet normal -3.330646045167216e-16 -1.0 5.551071183291644e-16
  outer loop
   vertex 0.012659323692321778 -1.06323056844773e-17 -0.021557865142822267
   vertex 0.014515071868896485 -1.0582488288717485e-17 -0.020354671478271486
   vertex 0.010704499244689941 -1.055546539660123e-17 -0.022592336654663085
  endloop
 endfacet
 facet normal -3.3306690738754696e-16 -1.0 5.551114064334599e-16
  outer loop
   vertex 0.008665898323059083 -1.0352570512547724e-17 -0.023449993133544924
   vertex 0.014515071868896485 -1.0582488288717485e-17 -0.020354671478271486
   vertex -0.002209502696990967 -7.536454472371456e-18 -0.024902170181274413
  endloop
 endfacet
 facet normal -3.3306693385732656e-16 -1.0 5.551115123125783e-16
  outer loop
   vertex -0.002209502696990967 -7.536454472371456e-18 -0.024902170181274413
   vertex 0.014515071868896485 -1.0582488288717485e-17 -0.020354671478271486
   vertex -0.004401712894439697 -6.643807953874564e-18 -0.024609447479248047
  endloop
 endfacet
 facet normal -3.3306542507988927e-16 -1.0 5.551100300049206e-16
  outer loop
   vertex -0.021272537231445312 1.9926646595801178e-17 0.01313313102722168
   vertex -0.018627885818481446 2.1011036809600975e-17 0.016673387527465822
   vertex -0.020028587341308593 2.0527447065288653e-17 0.01496180820465088
  endloop
 endfacet
 facet normal -3.330656103683465e-16 -1.0 5.551101888235982e-16
  outer loop
   vertex -0.021272537231445312 1.9926646595801178e-17 0.01313313102722168
   vertex -0.017081396102905273 2.13736329795957e-17 0.018254476547241213
   vertex -0.018627885818481446 2.1011036809600975e-17 0.016673387527465822
  endloop
 endfacet
 facet normal -3.330640751211296e-16 -1.0 5.551089182741773e-16
  outer loop
   vertex 0.016257219314575196 -1.0406402844477524e-17 -0.018992177963256838
   vertex 0.0193471736907959 -9.681921165130819e-18 -0.01583309555053711
   vertex 0.014515071868896485 -1.0582488288717485e-17 -0.020354671478271486
  endloop
 endfacet
 facet normal -3.3307069256603e-16 -1.0 5.551153239608409e-16
  outer loop
   vertex 0.017872133255004884 -1.0105429168428496e-17 -0.017481042861938478
   vertex 0.0193471736907959 -9.681921165130819e-18 -0.01583309555053711
   vertex 0.016257219314575196 -1.0406402844477524e-17 -0.018992177963256838
  endloop
 endfacet
 facet normal -3.330659280057017e-16 -1.0 5.55110665279631e-16
  outer loop
   vertex -0.021272537231445312 1.9926646595801178e-17 0.01313313102722168
   vertex -0.015401220321655274 2.1612396320833637e-17 0.019692699432373048
   vertex -0.017081396102905273 2.13736329795957e-17 0.018254476547241213
  endloop
 endfacet
 facet normal -3.3306672209908975e-16 -1.0 5.551115123125783e-16
  outer loop
   vertex -0.024847198486328125 1.53589180897128e-17 0.0027598497867584227
   vertex -0.013600509643554687 2.172545827863314e-17 0.02097679901123047
   vertex -0.02397311019897461 1.7472361854868267e-17 0.007091544628143311
  endloop
 endfacet
 facet normal -3.330672250249022e-16 -1.0 5.551118828894927e-16
  outer loop
   vertex -0.02325254821777344 1.8393103609192634e-17 0.009182539939880371
   vertex -0.013600509643554687 2.172545827863314e-17 0.02097679901123047
   vertex -0.021272537231445312 1.9926646595801178e-17 0.01313313102722168
  endloop
 endfacet
 facet normal -3.330657162474649e-16 -1.0 5.55110135884039e-16
  outer loop
   vertex -0.021272537231445312 1.9926646595801178e-17 0.01313313102722168
   vertex -0.013600509643554687 2.172545827863314e-17 0.02097679901123047
   vertex -0.015401220321655274 2.1612396320833637e-17 0.019692699432373048
  endloop
 endfacet
 facet normal -3.3306838969520466e-16 -1.0 5.551127828619992e-16
  outer loop
   vertex -0.02397311019897461 1.7472361854868267e-17 0.007091544628143311
   vertex -0.013600509643554687 2.172545827863314e-17 0.02097679901123047
   vertex -0.02325254821777344 1.8393103609192634e-17 0.009182539939880371
  endloop
 endfacet
 facet normal -3.3306539861010967e-16 -1.0 5.551107182191902e-16
  outer loop
   vertex -0.024993881225585938 1.4182756091242738e-17 0.0005530521869659424
   vertex -0.013600509643554687 2.172545827863314e-17 0.02097679901123047
   vertex -0.024847198486328125 1.53589180897128e-17 0.0027598497867584227
  endloop
 endfacet
 facet normal -3.330641545304684e-16 -1.0 5.551096064884469e-16
  outer loop
   vertex 0.02067079544067383 -9.139194121540046e-18 -0.014061232566833497
   vertex 0.021832639694213868 -8.481495907886658e-18 -0.0121793212890625
   vertex 0.0193471736907959 -9.681921165130819e-18 -0.01583309555053711
  endloop
 endfacet
 facet normal -3.3306664268975095e-16 -1.0 5.551101888235982e-16
  outer loop
   vertex -0.013600509643554687 2.172545827863314e-17 0.02097679901123047
   vertex -0.009694687843322754 2.1571928474745614e-17 0.02304372024536133
   vertex -0.01169335651397705 2.1711932856531383e-17 0.022096727371215822
  endloop
 endfacet
 facet normal -3.330676220715962e-16 -1.0 5.551120946477295e-16
  outer loop
   vertex -0.024993881225585938 1.4182756091242738e-17 0.0005530521869659424
   vertex -0.009694687843322754 2.1571928474745614e-17 0.02304372024536133
   vertex -0.013600509643554687 2.172545827863314e-17 0.02097679901123047
  endloop
 endfacet
 facet normal -3.3306550448922807e-16 -1.0 5.5510807124123005e-16
  outer loop
   vertex -0.009694687843322754 2.1571928474745614e-17 0.02304372024536133
   vertex -0.005485962867736817 2.0917842856612266e-17 0.024390657424926757
   vertex -0.007620144367218018 2.1306539499843687e-17 0.02381036376953125
  endloop
 endfacet
 facet normal -3.330674897226982e-16 -1.0 5.551139475323016e-16
  outer loop
   vertex -0.009694687843322754 2.1571928474745614e-17 0.02304372024536133
   vertex -0.003308846473693848 2.040888108739789e-17 0.02478006362915039
   vertex -0.005485962867736817 2.0917842856612266e-17 0.024390657424926757
  endloop
 endfacet
 facet normal -3.33067833829833e-16 -1.0 5.551116711312559e-16
  outer loop
   vertex 0.024700799942016603 -4.816538081597226e-18 -0.0038562233448028566
   vertex 0.024944955825805665 -3.677640027092196e-18 -0.001658073902130127
   vertex 0.024263328552246093 -5.874295461952978e-18 -0.006024192333221436
  endloop
 endfacet
 facet normal -3.3306669562931015e-16 -1.0 5.551114064334599e-16
  outer loop
   vertex -0.009694687843322754 2.1571928474745614e-17 0.02304372024536133
   vertex -0.001105833649635315 1.9783636941118552e-17 0.02497553062438965
   vertex -0.003308846473693848 2.040888108739789e-17 0.02478006362915039
  endloop
 endfacet
 facet normal -3.3306793970895143e-16 -1.0 5.551116181916967e-16
  outer loop
   vertex 0.024263328552246093 -5.874295461952978e-18 -0.006024192333221436
   vertex 0.024506050109863283 1.3401383391054137e-19 0.004945047855377197
   vertex 0.023635963439941406 -6.8426332681329875e-18 -0.008145014762878417
  endloop
 endfacet
 facet normal -3.3306846910454346e-16 -1.0 5.551114064334599e-16
  outer loop
   vertex 0.024993881225585938 -2.4665142026253708e-18 0.0005530521869659424
   vertex 0.024506050109863283 1.3401383391054137e-19 0.004945047855377197
   vertex 0.024944955825805665 -3.677640027092196e-18 -0.001658073902130127
  endloop
 endfacet
 facet normal -3.3306198400854105e-16 -1.0 5.551121475872887e-16
  outer loop
   vertex 0.024847198486328125 -1.1926396480303552e-18 0.0027598497867584227
   vertex 0.024506050109863283 1.3401383391054137e-19 0.004945047855377197
   vertex 0.024993881225585938 -2.4665142026253708e-18 0.0005530521869659424
  endloop
 endfacet
 facet normal -3.3306656328041214e-16 -1.0 5.551116181916967e-16
  outer loop
   vertex 0.024944955825805665 -3.677640027092196e-18 -0.001658073902130127
   vertex 0.024506050109863283 1.3401383391054137e-19 0.004945047855377197
   vertex 0.024263328552246093 -5.874295461952978e-18 -0.006024192333221436
  endloop
 endfacet
 facet normal -3.3306688091776736e-16 -1.0 5.551115652521375e-16
  outer loop
   vertex -0.021832639694213868 6.061963234713693e-18 -0.0121793212890625
   vertex 0.005485962867736817 1.7263458119086938e-17 0.024390657424926757
   vertex -0.024993881225585938 1.4182756091242738e-17 0.0005530521869659424
  endloop
 endfacet
 facet normal -3.3306693385732656e-16 -1.0 5.551116181916967e-16
  outer loop
   vertex 0.014515071868896485 -1.0582488288717485e-17 -0.020354671478271486
   vertex 0.005485962867736817 1.7263458119086938e-17 0.024390657424926757
   vertex -0.004401712894439697 -6.643807953874564e-18 -0.024609447479248047
  endloop
 endfacet
 facet normal -3.3306838969520466e-16 -1.0 5.550990715161655e-16
  outer loop
   vertex 0.001105833649635315 1.9047002880077588e-17 0.02497553062438965
   vertex 0.005485962867736817 1.7263458119086938e-17 0.024390657424926757
   vertex 0.003308846473693848 1.8204745504579906e-17 0.02478006362915039
  endloop
 endfacet
 facet normal -3.33067304434241e-16 -1.0 5.551065359940132e-16
  outer loop
   vertex -0.001105833649635315 1.9783636941118552e-17 0.02497553062438965
   vertex 0.005485962867736817 1.7263458119086938e-17 0.024390657424926757
   vertex 0.001105833649635315 1.9047002880077588e-17 0.02497553062438965
  endloop
 endfacet
 facet normal -3.3306706620622457e-16 -1.0 5.551114593730191e-16
  outer loop
   vertex 0.021832639694213868 -8.481495907886658e-18 -0.0121793212890625
   vertex 0.005485962867736817 1.7263458119086938e-17 0.024390657424926757
   vertex 0.0193471736907959 -9.681921165130819e-18 -0.01583309555053711
  endloop
 endfacet
 facet normal -3.3306666915953055e-16 -1.0 5.551115652521375e-16
  outer loop
   vertex 0.0193471736907959 -9.681921165130819e-18 -0.01583309555053711
   vertex 0.005485962867736817 1.7263458119086938e-17 0.024390657424926757
   vertex 0.014515071868896485 -1.0582488288717485e-17 -0.020354671478271486
  endloop
 endfacet
 facet normal -3.3306680150842856e-16 -1.0 5.551117770103743e-16
  outer loop
   vertex -0.009694687843322754 2.1571928474745614e-17 0.02304372024536133
   vertex 0.005485962867736817 1.7263458119086938e-17 0.024390657424926757
   vertex -0.001105833649635315 1.9783636941118552e-17 0.02497553062438965
  endloop
 endfacet
 facet normal -3.3306680150842856e-16 -1.0 5.551114064334599e-16
  outer loop
   vertex -0.024993881225585938 1.4182756091242738e-17 0.0005530521869659424
   vertex 0.005485962867736817 1.7263458119086938e-17 0.024390657424926757
   vertex -0.009694687843322754 2.1571928474745614e-17 0.02304372024536133
  endloop
 endfacet
 facet normal -3.3306701326666537e-16 -1.0 5.551115652521375e-16
  outer loop
   vertex -0.004401712894439697 -6.643807953874564e-18 -0.024609447479248047
   vertex 0.005485962867736817 1.7263458119086938e-17 0.024390657424926757
   vertex -0.006559473991394043 -5.655719456946953e-18 -0.024124122619628905
  endloop
 endfacet
 facet normal -3.3306685444798776e-16 -1.0 5.551114593730191e-16
  outer loop
   vertex -0.0193471736907959 3.2058848153606768e-18 -0.01583309555053711
   vertex 0.005485962867736817 1.7263458119086938e-17 0.024390657424926757
   vertex -0.021832639694213868 6.061963234713693e-18 -0.0121793212890625
  endloop
 endfacet
 facet normal -3.3306688091776736e-16 -1.0 5.551115652521375e-16
  outer loop
   vertex -0.010704499244689941 -3.4248366912370457e-18 -0.022592336654663085
   vertex 0.005485962867736817 1.7263458119086938e-17 0.024390657424926757
   vertex -0.0193471736907959 3.2058848153606768e-18 -0.01583309555053711
  endloop
 endfacet
 facet normal -3.3306688091776736e-16 -1.0 5.551115123125783e-16
  outer loop
   vertex -0.006559473991394043 -5.655719456946953e-18 -0.024124122619628905
   vertex 0.005485962867736817 1.7263458119086938e-17 0.024390657424926757
   vertex -0.010704499244689941 -3.4248366912370457e-18 -0.022592336654663085
  endloop
 endfacet
 facet normal -3.3306666915953055e-16 -1.0 5.551115123125783e-16
  outer loop
   vertex 0.023635963439941406 -6.8426332681329875e-18 -0.008145014762878417
   vertex 0.02325254821777344 2.9037947498871665e-18 0.009182539939880371
   vertex 0.0228236141204834 -7.71397309635817e-18 -0.010202090263366699
  endloop
 endfacet
 facet normal -3.3306812499740864e-16 -1.0 5.551111417356638e-16
  outer loop
   vertex 0.02397311019897461 1.5030635647927817e-18 0.007091544628143311
   vertex 0.02325254821777344 2.9037947498871665e-18 0.009182539939880371
   vertex 0.024506050109863283 1.3401383391054137e-19 0.004945047855377197
  endloop
 endfacet
 facet normal -3.330673309040206e-16 -1.0 5.551114593730191e-16
  outer loop
   vertex 0.024506050109863283 1.3401383391054137e-19 0.004945047855377197
   vertex 0.02325254821777344 2.9037947498871665e-18 0.009182539939880371
   vertex 0.023635963439941406 -6.8426332681329875e-18 -0.008145014762878417
  endloop
 endfacet
 facet normal -3.3306947495616833e-16 -1.0 5.551052654445923e-16
  outer loop
   vertex 0.007620144367218018 1.6230504828042108e-17 0.02381036376953125
   vertex 0.01169335651397705 1.3922593309625368e-17 0.022096727371215822
   vertex 0.009694687843322754 1.511396971389401e-17 0.02304372024536133
  endloop
 endfacet
 facet normal -3.33067304434241e-16 -1.0 5.551102947027166e-16
  outer loop
   vertex 0.005485962867736817 1.7263458119086938e-17 0.024390657424926757
   vertex 0.01169335651397705 1.3922593309625368e-17 0.022096727371215822
   vertex 0.007620144367218018 1.6230504828042108e-17 0.02381036376953125
  endloop
 endfacet
 facet normal -3.3306677503864895e-16 -1.0 5.551121475872887e-16
  outer loop
   vertex 0.005485962867736817 1.7263458119086938e-17 0.024390657424926757
   vertex 0.015401220321655274 1.1353122252261236e-17 0.019692699432373048
   vertex 0.01169335651397705 1.3922593309625368e-17 0.022096727371215822
  endloop
 endfacet
 facet normal -3.330677544204942e-16 -1.0 5.551101888235982e-16
  outer loop
   vertex 0.01169335651397705 1.3922593309625368e-17 0.022096727371215822
   vertex 0.015401220321655274 1.1353122252261236e-17 0.019692699432373048
   vertex 0.013600509643554687 1.2665698059853656e-17 0.02097679901123047
  endloop
 endfacet
 facet normal -3.330674103133594e-16 -1.0 5.551112476147823e-16
  outer loop
   vertex 0.005485962867736817 1.7263458119086938e-17 0.024390657424926757
   vertex 0.018627885818481446 8.60237259165753e-18 0.016673387527465822
   vertex 0.015401220321655274 1.1353122252261236e-17 0.019692699432373048
  endloop
 endfacet
 facet normal -3.3306703973644497e-16 -1.0 5.551115123125783e-16
  outer loop
   vertex 0.0228236141204834 -7.71397309635817e-18 -0.010202090263366699
   vertex 0.018627885818481446 8.60237259165753e-18 0.016673387527465822
   vertex 0.021832639694213868 -8.481495907886658e-18 -0.0121793212890625
  endloop
 endfacet
 facet normal -3.3306831028586585e-16 -1.0 5.551106123400718e-16
  outer loop
   vertex 0.02235000228881836 4.325244572629628e-18 0.011201669692993164
   vertex 0.018627885818481446 8.60237259165753e-18 0.016673387527465822
   vertex 0.02325254821777344 2.9037947498871665e-18 0.009182539939880371
  endloop
 endfacet
 facet normal -3.3306804558806984e-16 -1.0 5.551110358565454e-16
  outer loop
   vertex 0.021272537231445312 5.7562889493238766e-18 0.01313313102722168
   vertex 0.018627885818481446 8.60237259165753e-18 0.016673387527465822
   vertex 0.02235000228881836 4.325244572629628e-18 0.011201669692993164
  endloop
 endfacet
 facet normal -3.330723072225857e-16 -1.0 5.5510807124123005e-16
  outer loop
   vertex 0.020028587341308593 7.185726928033656e-18 0.01496180820465088
   vertex 0.018627885818481446 8.60237259165753e-18 0.016673387527465822
   vertex 0.021272537231445312 5.7562889493238766e-18 0.01313313102722168
  endloop
 endfacet
 facet normal -3.3306703973644497e-16 -1.0 5.551115123125783e-16
  outer loop
   vertex 0.021832639694213868 -8.481495907886658e-18 -0.0121793212890625
   vertex 0.018627885818481446 8.60237259165753e-18 0.016673387527465822
   vertex 0.005485962867736817 1.7263458119086938e-17 0.024390657424926757
  endloop
 endfacet
 facet normal -3.3306685444798776e-16 -1.0 5.551115652521375e-16
  outer loop
   vertex 0.02325254821777344 2.9037947498871665e-18 0.009182539939880371
   vertex 0.018627885818481446 8.60237259165753e-18 0.016673387527465822
   vertex 0.0228236141204834 -7.71397309635817e-18 -0.010202090263366699
  endloop
 endfacet
 facet normal -3.330641015909092e-16 -1.0 5.551133651971504e-16
  outer loop
   vertex 0.018627885818481446 8.60237259165753e-18 0.016673387527465822
   vertex 0.017081396102905273 9.99513785539946e-18 0.018254476547241213
   vertex 0.015401220321655274 1.1353122252261236e-17 0.019692699432373048
  endloop
 endfacet
endsolid patch_3_0
